<svg xmlns="http://www.w3.org/2000/svg" xmlns:xlink="http://www.w3.org/1999/xlink" width="279" height="159" viewBox="0 0 279 159">
    <defs>
        <path id="wh5uwuu29a" d="M0 0.031L278.975 0.031 278.975 150.963 0 150.963z"/>
        <path id="3zrg9o68pc" d="M0 159L279 159 279 0 0 0z"/>
    </defs>
    <g fill="none" fill-rule="evenodd">
        <g>
            <g transform="translate(-64 -218) translate(64 218)">
                <g>
                    <mask id="7nlzuo1gmb" fill="#fff">
                        <use xlink:href="#wh5uwuu29a"/>
                    </mask>
                    <path fill="#E7F3FE" d="M42.6 6.2c40.125-14.853 80.907-1.72 108.566 26.881 27.658 28.602 85.705-19.741 116.49 8.814 21.009 19.488 11.386 69.59-17.422 91.292-39.155 29.496-158.232 14.53-183.99 9.51-29.676-5.784-51.371-23.33-60.186-44.626-21.24-51.313 18.81-85.306 36.542-91.87" mask="url(#7nlzuo1gmb)"/>
                </g>
                <mask id="ewci99dyrd" fill="#fff">
                    <use xlink:href="#3zrg9o68pc"/>
                </mask>
                <path fill="#99BBEB" d="M33 140L98 140 98 33 33 33z" mask="url(#ewci99dyrd)"/>
                <path fill="#FFF" d="M36 135L96 135 96 35 36 35z" mask="url(#ewci99dyrd)"/>
                <path fill="#9BD6E8" d="M54 75.706C56.276 70.626 60.127 69 66.451 69c7.53 0 11.44 2.83 12.549 6.951-13.485.192-25-.245-25-.245" mask="url(#ewci99dyrd)"/>
                <path fill="#3A384D" d="M64.231 45.219c-3.092.893-2.956 2.682-3.987 4.342-1.03 1.66-3.27 2.767-3.539 3.873-.268 1.107.69 3.413-.448 4.704-1.137 1.29-1.523 1.936-1.075 3.228.448 1.29 1.434 3.32 1.523 3.596.09.277 1.344 2.214 2.867 2.49 1.523.277 4.39.738 5.824 1.384 1.434.645 6.043-.827 8.601-.734 2.559.092 4.3-1.849 4.121-3.14-.179-1.29 1.887-3.873 1.882-6.086-.005-2.377-2.688-4.15-3.405-5.718-.716-1.568.09-4.335-2.598-5.974-1.698-1.035-2.867-.943-4.21-1.404-1.345-.461-3.585-1.13-5.556-.561" mask="url(#ewci99dyrd)"/>
                <path fill="#F09959" d="M68.065 72.22c-.756 1.019-1.31 1.061-2.13 0-.651-.845-1.935-2.763-1.935-3.736V58.77c0-.974.871-1.77 1.936-1.77h2.129c1.064 0 1.935.796 1.935 1.77v9.714c0 .973-1.258 2.821-1.935 3.735" mask="url(#ewci99dyrd)"/>
                <path fill="#E38540" d="M68.065 57h-2.13C64.872 57 64 57.825 64 58.833v8.976c2.39.72 4.572-.712 6-2.326v-6.65C70 57.825 69.129 57 68.065 57" mask="url(#ewci99dyrd)"/>
                <path fill="#F09959" d="M73 57c0 4.418-2.686 8-6 8s-6-3.582-6-8 2.686-8 6-8 6 3.582 6 8" mask="url(#ewci99dyrd)"/>
                <path fill="#3A384D" d="M69.425 50.148C65.62 56.396 60 55.78 60 55.78s.136-8.272 4.6-8.712c4.463-.44 7.09 1.3 7.997 4.17.906 2.87 0 4.762 0 4.762s-1.45-1.1-2.175-2.86c-.725-1.76-.997-2.992-.997-2.992" mask="url(#ewci99dyrd)"/>
                <path fill="#F09959" d="M61.629 56.746c.64 1.315.43 2.72-.469 3.137-.9.416-2.148-.313-2.789-1.629-.64-1.315-.43-2.72.469-3.137.9-.416 2.148.313 2.789 1.629M71.371 56.746c-.64 1.315-.43 2.72.469 3.137.9.416 2.148-.313 2.789-1.629.64-1.315.43-2.72-.469-3.137-.9-.416-2.148.313-2.789 1.629" mask="url(#ewci99dyrd)"/>
                <path fill="#FFF" d="M69 62s-1.12 1-2.5 1-2.5-1-2.5-1h5z" mask="url(#ewci99dyrd)"/>
                <path fill="#99BBEB" d="M74.208 89H58.792C57.807 89 57 88.1 57 87s.807-2 1.792-2h15.416c.985 0 1.792.9 1.792 2s-.807 2-1.792 2M76.254 94H55.746c-.96 0-1.746-.9-1.746-2s.786-2 1.746-2h20.508c.96 0 1.746.9 1.746 2s-.786 2-1.746 2M91.966 113H41.034c-.569 0-1.034-.45-1.034-1s.465-1 1.034-1h50.932c.569 0 1.034.45 1.034 1s-.465 1-1.034 1M91.966 118H41.034c-.569 0-1.034-.45-1.034-1s.465-1 1.034-1h50.932c.569 0 1.034.45 1.034 1s-.465 1-1.034 1M91.966 123H41.034c-.569 0-1.034-.45-1.034-1s.465-1 1.034-1h50.932c.569 0 1.034.45 1.034 1s-.465 1-1.034 1M47.829 40.522c-.185 0-.341.16-.341.349v34.258c0 .19.156.349.34.349h36.343c.185 0 .341-.16.341-.349V40.871c0-.19-.156-.349-.34-.349H47.828zM84.17 77H47.83C46.82 77 46 76.16 46 75.13V40.87c0-1.03.82-1.87 1.829-1.87H84.17C85.18 39 86 39.84 86 40.87v34.26c0 1.03-.82 1.87-1.829 1.87zM53.5 99L54.582 100.975 57 101.292 55.25 102.829 55.663 105 53.5 103.975 51.337 105 51.75 102.829 50 101.292 52.418 100.975zM61.5 99L62.582 100.975 65 101.292 63.25 102.829 63.663 105 61.5 103.975 59.337 105 59.75 102.829 58 101.292 60.418 100.975zM70.5 99L71.582 100.975 74 101.292 72.25 102.829 72.663 105 70.5 103.975 68.337 105 68.75 102.829 67 101.292 69.418 100.975zM79.5 99L80.582 100.975 83 101.292 81.25 102.829 81.663 105 79.5 103.975 77.337 105 77.75 102.829 76 101.292 78.418 100.975zM179 140L244 140 244 33 179 33z" mask="url(#ewci99dyrd)"/>
                <path fill="#FFF" d="M182 135L242 135 242 35 182 35z" mask="url(#ewci99dyrd)"/>
                <path fill="#7A4E34" d="M202 57c0 4.682 2.843 12.237 9.549 11.994 6.705-.242 8.189-7.443 8.448-9.475C220.257 57.486 202 57 202 57" mask="url(#ewci99dyrd)"/>
                <path fill="#D54A41" d="M199 75.706c2.276-5.08 6.127-6.706 12.451-6.706 7.53 0 11.44 2.83 12.549 6.951-13.485.192-25-.245-25-.245" mask="url(#ewci99dyrd)"/>
                <path fill="#F09959" d="M213.065 72.22c-.756 1.019-1.31 1.061-2.13 0-.651-.845-1.935-2.763-1.935-3.736V58.77c0-.974.871-1.77 1.935-1.77h2.13c1.064 0 1.935.796 1.935 1.77v9.714c0 .973-1.258 2.821-1.935 3.735" mask="url(#ewci99dyrd)"/>
                <path fill="#E38540" d="M213.065 57h-2.13c-1.064 0-1.935.825-1.935 1.833v8.976c2.39.72 4.572-.712 6-2.326v-6.65c0-1.008-.871-1.833-1.935-1.833" mask="url(#ewci99dyrd)"/>
                <path fill="#F09959" d="M218 57c0 4.418-2.686 8-6 8s-6-3.582-6-8 2.686-8 6-8 6 3.582 6 8" mask="url(#ewci99dyrd)"/>
                <path fill="#7A4E34" d="M215.335 51.027c-.737 2.517-2.352 2.488-4.603 3.315-2.251.826-3.327 1.658-4.064 3.269-.94 2.053.426 8.04.426 8.04s-5.7-4.133-5.04-10.633c.658-6.5 4.614-9.018 8.337-9.018 3.722 0 5.138 2.198 5.138 2.198s1.983.008 3.858 2.16c2.521 2.894 1.745 9.92 0 12.438-1.745 2.517-2.908 3.306-2.87 3.194.04-.113 1.63-5.894.776-9.469-.853-3.575-1.958-5.494-1.958-5.494" mask="url(#ewci99dyrd)"/>
                <path fill="#FFF" d="M215 62s-1.12 1-2.5 1-2.5-1-2.5-1h5z" mask="url(#ewci99dyrd)"/>
                <path fill="#99BBEB" d="M219.208 89h-15.415c-.986 0-1.793-.9-1.793-2s.807-2 1.793-2h15.415c.985 0 1.792.9 1.792 2s-.807 2-1.792 2M222.254 94h-20.508c-.96 0-1.746-.9-1.746-2s.786-2 1.746-2h20.508c.96 0 1.746.9 1.746 2s-.786 2-1.746 2M236.966 113h-50.932c-.569 0-1.034-.45-1.034-1s.465-1 1.034-1h50.932c.569 0 1.034.45 1.034 1s-.465 1-1.034 1M236.966 118h-50.932c-.569 0-1.034-.45-1.034-1s.465-1 1.034-1h50.932c.569 0 1.034.45 1.034 1s-.465 1-1.034 1M236.966 123h-50.932c-.569 0-1.034-.45-1.034-1s.465-1 1.034-1h50.932c.569 0 1.034.45 1.034 1s-.465 1-1.034 1M193.829 40.522c-.185 0-.341.16-.341.349v34.258c0 .19.156.349.34.349h36.343c.185 0 .341-.16.341-.349V40.871c0-.19-.156-.349-.34-.349h-36.343zM230.17 77h-36.342c-1.008 0-1.829-.84-1.829-1.87V40.87c0-1.03.82-1.87 1.829-1.87h36.342c1.008 0 1.829.84 1.829 1.87v34.26c0 1.03-.82 1.87-1.829 1.87zM198.5 99L199.582 100.975 202 101.292 200.25 102.829 200.663 105 198.5 103.975 196.337 105 196.75 102.829 195 101.292 197.418 100.975zM207.5 99L208.582 100.975 211 101.292 209.25 102.829 209.663 105 207.5 103.975 205.337 105 205.75 102.829 204 101.292 206.418 100.975zM216.5 99L217.582 100.975 220 101.292 218.25 102.829 218.663 105 216.5 103.975 214.337 105 214.75 102.829 213 101.292 215.418 100.975zM224.5 99L225.582 100.975 228 101.292 226.25 102.829 226.663 105 224.5 103.975 222.337 105 222.75 102.829 221 101.292 223.418 100.975zM94 159L183 159 183 13 94 13z" mask="url(#ewci99dyrd)"/>
                <path fill="#FFF" d="M98 153L180 153 180 16 98 16z" mask="url(#ewci99dyrd)"/>
                <path fill="#2E2D3D" d="M130.686 45c-.058-.174-1.508-8.53-1.682-11.779-.173-3.249 5.205-3.713 5.205-3.713s4.395-2.38 7.576-1.16c3.18 1.218 5.346 3.268 6.791 5.821 1.446 2.553-1.272 10.51-1.272 10.51L130.686 45z" mask="url(#ewci99dyrd)"/>
                <path fill="#D5E1E8" d="M122 71.605c-.02-.14.367-3.474.38-3.609.723-7.021 9.11-8.996 17.48-8.996 9.833 0 16.504 1.857 17.569 9.153.031.214.598 3.557.57 3.782-18.225.257-35.998-.33-35.998-.33" mask="url(#ewci99dyrd)"/>
                <path fill="#F09959" d="M140.784 64.878c-1.034 1.466-1.791 1.526-2.913 0-.892-1.214-3.871-3.982-3.871-5.382l1.222-13.952c0-1.4 1.192-2.544 2.649-2.544h2.913c1.456 0 2.648 1.145 2.648 2.544L144 59.496c0 1.4-2.29 4.068-3.216 5.382" mask="url(#ewci99dyrd)"/>
                <path fill="#E38540" d="M141.182 43h-2.72c-1.36 0-2.471 1.13-2.471 2.513L135 57.741c3.053.989 7.176-1.02 9-3.233l-.346-8.995c0-1.382-1.112-2.513-2.472-2.513" mask="url(#ewci99dyrd)"/>
                <path fill="#BDCCD4" d="M130 60.263l4.507 8.117s2.413-1.934 2.646-1.555c.234.38-.428 5.165-.428 5.165s5.37.07 5.604-.157c.233-.227-1.09-5.197-.545-5.197s2.184 1.44 2.184 1.44L149 60.264 147.894 60l-8.246 4.323-8.818-4.228-.83.168z" mask="url(#ewci99dyrd)"/>
                <path fill="#D54A41" d="M135 64.172L138.161 66.314 137.182 72 141.445 71.76 140.38 66.588 143 64.172 141.769 63 136.231 63z" mask="url(#ewci99dyrd)"/>
                <path fill="#D5E1E8" d="M135.024 56.395L131 60.39S135.1 68 135.327 68c.227 0 3.479-4.195 3.479-4.195l2.082-.038 3.29 3.601L148 60.312 144.102 56s-3.329 6.71-3.934 6.868c-.605.158-.61.237-1.099-.157-.49-.395-4.045-6.316-4.045-6.316" mask="url(#ewci99dyrd)"/>
                <path fill="#F09959" d="M148 43.5c0 6.351-3.582 11.5-8 11.5s-8-5.149-8-11.5 3.582-11.5 8-11.5 8 5.149 8 11.5" mask="url(#ewci99dyrd)"/>
                <path fill="#F09959" d="M132.536 43.095c.801 1.579.539 3.264-.585 3.764-1.125.5-2.686-.374-3.487-1.954-.801-1.579-.539-3.264.586-3.764 1.124-.5 2.685.374 3.486 1.954M146.464 43.095c-.801 1.579-.539 3.264.585 3.764 1.125.5 2.686-.374 3.487-1.954.801-1.579.539-3.264-.586-3.764-1.124-.5-2.685.374-3.486 1.954" mask="url(#ewci99dyrd)"/>
                <path fill="#FFF" d="M143 48s-1.567 3-3.5 3-3.5-3-3.5-3h7z" mask="url(#ewci99dyrd)"/>
                <path fill="#2E2D3D" d="M134.464 35.761c3.413-2.452 4.948-2.044 7.508 1.986 2.559 4.029 5.63 4.1 5.63 4.1l.398-4.178s-3.812-7.572-8.93-6.58c-5.118.993-8.028 5.723-8.028 5.723s-.25 8.865.465 9.168c.714.302.796-2.861 1.308-3.504.512-.642-.512-3.679.17-5.08.683-1.401 1.48-1.635 1.48-1.635" mask="url(#ewci99dyrd)"/>
                <path fill="#2E2D3D" d="M146 40c1.133 1.218.703 6.053 1.299 6 .595-.054.811-4.62.649-5.097C147.786 40.425 146 40 146 40" mask="url(#ewci99dyrd)"/>
                <path fill="#99BBEB" d="M157.563 89h-38.126c-1.34 0-2.437-1.125-2.437-2.5s1.097-2.5 2.437-2.5h38.126c1.34 0 2.437 1.125 2.437 2.5s-1.097 2.5-2.437 2.5M153.6 97h-28.2c-1.32 0-2.4-1.125-2.4-2.5s1.08-2.5 2.4-2.5h28.2c1.32 0 2.4 1.125 2.4 2.5s-1.08 2.5-2.4 2.5M173.595 123h-69.19c-.773 0-1.405-.675-1.405-1.5s.632-1.5 1.405-1.5h69.19c.773 0 1.405.675 1.405 1.5s-.632 1.5-1.405 1.5M173.595 130h-69.19c-.773 0-1.405-.675-1.405-1.5s.632-1.5 1.405-1.5h69.19c.773 0 1.405.675 1.405 1.5s-.632 1.5-1.405 1.5M173.595 136h-69.19c-.773 0-1.405-.675-1.405-1.5s.632-1.5 1.405-1.5h69.19c.773 0 1.405.675 1.405 1.5s-.632 1.5-1.405 1.5M114.263 23.512c-.413 0-.75.336-.75.75v46.477c0 .413.337.75.75.75h50.474c.413 0 .75-.337.75-.75V24.26c0-.413-.337-.75-.75-.75h-50.474zM164.737 73h-50.474c-1.248 0-2.263-1.014-2.263-2.261V24.26c0-1.247 1.015-2.261 2.263-2.261h50.474c1.248 0 2.263 1.014 2.263 2.261V70.74c0 1.247-1.015 2.261-2.263 2.261zM115.5 103L116.891 105.963 120 106.438 117.75 108.744 118.281 112 115.5 110.463 112.719 112 113.25 108.744 111 106.438 114.109 105.963zM127.5 103L128.891 105.963 132 106.438 129.75 108.744 130.281 112 127.5 110.463 124.719 112 125.25 108.744 123 106.438 126.109 105.963zM139.5 103L140.891 105.963 144 106.438 141.75 108.744 142.281 112 139.5 110.463 136.719 112 137.25 108.744 135 106.438 138.109 105.963zM150.5 103L151.891 105.963 155 106.438 152.75 108.744 153.281 112 150.5 110.463 147.719 112 148.25 108.744 146 106.438 149.109 105.963zM163.5 103L164.891 105.963 168 106.438 165.75 108.744 166.281 112 163.5 110.463 160.719 112 161.25 108.744 159 106.438 162.109 105.963z" mask="url(#ewci99dyrd)"/>
            </g>
        </g>
    </g>
</svg>
