<svg xmlns="http://www.w3.org/2000/svg" xmlns:xlink="http://www.w3.org/1999/xlink" width="363" height="279" viewBox="0 0 363 279">
    <defs>
        <filter id="izva82fqnc" width="122.9%" height="122.9%" x="-11.4%" y="-11.5%" filterUnits="objectBoundingBox">
            <feGaussianBlur in="SourceAlpha" result="shadowBlurInner1" stdDeviation="1.5"/>
            <feOffset dy="1" in="shadowBlurInner1" result="shadowOffsetInner1"/>
            <feComposite in="shadowOffsetInner1" in2="SourceAlpha" k2="-1" k3="1" operator="arithmetic" result="shadowInnerInner1"/>
            <feColorMatrix in="shadowInnerInner1" values="0 0 0 0 0.748018569 0 0 0 0 0.748018569 0 0 0 0 0.748018569 0 0 0 0.5 0"/>
        </filter>
        <filter id="gy2fe5qutf" width="362.7%" height="2089.4%" x="-131.3%" y="-647.9%" filterUnits="objectBoundingBox">
            <feOffset dy="19" in="SourceAlpha" result="shadowOffsetOuter1"/>
            <feGaussianBlur in="shadowOffsetOuter1" result="shadowBlurOuter1" stdDeviation="15"/>
            <feColorMatrix in="shadowBlurOuter1" values="0 0 0 0 0 0 0 0 0 0 0 0 0 0 0 0 0 0 0.1 0"/>
        </filter>
        <filter id="vun1nzxjhi" width="254.2%" height="1268.1%" x="-77.1%" y="-237.3%" filterUnits="objectBoundingBox">
            <feGaussianBlur in="SourceAlpha" result="shadowBlurInner1" stdDeviation="1.5"/>
            <feOffset dy="1" in="shadowBlurInner1" result="shadowOffsetInner1"/>
            <feComposite in="shadowOffsetInner1" in2="SourceAlpha" k2="-1" k3="1" operator="arithmetic" result="shadowInnerInner1"/>
            <feColorMatrix in="shadowInnerInner1" values="0 0 0 0 0.748018569 0 0 0 0 0.748018569 0 0 0 0 0.748018569 0 0 0 0.5 0"/>
        </filter>
        <filter id="fbu6w9ry5j" width="386.8%" height="2288.4%" x="-143.4%" y="-712.7%" filterUnits="objectBoundingBox">
            <feOffset dy="19" in="SourceAlpha" result="shadowOffsetOuter1"/>
            <feGaussianBlur in="shadowOffsetOuter1" result="shadowBlurOuter1" stdDeviation="15"/>
            <feColorMatrix in="shadowBlurOuter1" values="0 0 0 0 0 0 0 0 0 0 0 0 0 0 0 0 0 0 0.1 0"/>
        </filter>
        <filter id="0e5wsnc6xm" width="268.4%" height="1384.9%" x="-84.2%" y="-261%" filterUnits="objectBoundingBox">
            <feGaussianBlur in="SourceAlpha" result="shadowBlurInner1" stdDeviation="1.5"/>
            <feOffset dy="1" in="shadowBlurInner1" result="shadowOffsetInner1"/>
            <feComposite in="shadowOffsetInner1" in2="SourceAlpha" k2="-1" k3="1" operator="arithmetic" result="shadowInnerInner1"/>
            <feColorMatrix in="shadowInnerInner1" values="0 0 0 0 0.748018569 0 0 0 0 0.748018569 0 0 0 0 0.748018569 0 0 0 0.5 0"/>
        </filter>
        <filter id="mt0c3r9voo" width="122.9%" height="122.9%" x="-11.4%" y="-11.5%" filterUnits="objectBoundingBox">
            <feGaussianBlur in="SourceAlpha" result="shadowBlurInner1" stdDeviation="1.5"/>
            <feOffset dy="1" in="shadowBlurInner1" result="shadowOffsetInner1"/>
            <feComposite in="shadowOffsetInner1" in2="SourceAlpha" k2="-1" k3="1" operator="arithmetic" result="shadowInnerInner1"/>
            <feColorMatrix in="shadowInnerInner1" values="0 0 0 0 0.748018569 0 0 0 0 0.748018569 0 0 0 0 0.748018569 0 0 0 0.5 0"/>
        </filter>
        <filter id="9gehzpimmr" width="722.9%" height="725.3%" x="-311.4%" y="-203.6%" filterUnits="objectBoundingBox">
            <feOffset dy="19" in="SourceAlpha" result="shadowOffsetOuter1"/>
            <feGaussianBlur in="shadowOffsetOuter1" result="shadowBlurOuter1" stdDeviation="15"/>
            <feColorMatrix in="shadowBlurOuter1" values="0 0 0 0 0 0 0 0 0 0 0 0 0 0 0 0 0 0 0.1 0"/>
        </filter>
        <filter id="a2es88wyst" width="465.7%" height="467.1%" x="-182.9%" y="-74.6%" filterUnits="objectBoundingBox">
            <feGaussianBlur in="SourceAlpha" result="shadowBlurInner1" stdDeviation="1.5"/>
            <feOffset dy="1" in="shadowBlurInner1" result="shadowOffsetInner1"/>
            <feComposite in="shadowOffsetInner1" in2="SourceAlpha" k2="-1" k3="1" operator="arithmetic" result="shadowInnerInner1"/>
            <feColorMatrix in="shadowInnerInner1" values="0 0 0 0 0.748018569 0 0 0 0 0.748018569 0 0 0 0 0.748018569 0 0 0 0.5 0"/>
        </filter>
        <filter id="dsh3gtyhlw" width="172.7%" height="173%" x="-36.4%" y="-36.5%" filterUnits="objectBoundingBox">
            <feGaussianBlur in="SourceAlpha" result="shadowBlurInner1" stdDeviation="1.5"/>
            <feOffset dy="1" in="shadowBlurInner1" result="shadowOffsetInner1"/>
            <feComposite in="shadowOffsetInner1" in2="SourceAlpha" k2="-1" k3="1" operator="arithmetic" result="shadowInnerInner1"/>
            <feColorMatrix in="shadowInnerInner1" values="0 0 0 0 0.748018569 0 0 0 0 0.748018569 0 0 0 0 0.748018569 0 0 0 0.5 0"/>
        </filter>
        <filter id="da1hy5h66y" width="172.7%" height="173%" x="-36.4%" y="-36.5%" filterUnits="objectBoundingBox">
            <feGaussianBlur in="SourceAlpha" result="shadowBlurInner1" stdDeviation="1.5"/>
            <feOffset dy="1" in="shadowBlurInner1" result="shadowOffsetInner1"/>
            <feComposite in="shadowOffsetInner1" in2="SourceAlpha" k2="-1" k3="1" operator="arithmetic" result="shadowInnerInner1"/>
            <feColorMatrix in="shadowInnerInner1" values="0 0 0 0 0.748018569 0 0 0 0 0.748018569 0 0 0 0 0.748018569 0 0 0 0.5 0"/>
        </filter>
        <linearGradient id="2xh9gkb6ra" x1="18.048%" x2="74.91%" y1=".382%" y2="77.286%">
            <stop offset="0%" stop-color="#8CD5FF"/>
            <stop offset="100%" stop-color="#6372EF"/>
        </linearGradient>
        <linearGradient id="rpbywtnnwh" x1="18.048%" x2="74.91%" y1="49.129%" y2="50.479%">
            <stop offset="0%" stop-color="#8CD5FF"/>
            <stop offset="100%" stop-color="#6372EF"/>
        </linearGradient>
        <linearGradient id="489266gs2l" x1="18.048%" x2="74.91%" y1="49.141%" y2="50.472%">
            <stop offset="0%" stop-color="#8CD5FF"/>
            <stop offset="100%" stop-color="#6372EF"/>
        </linearGradient>
        <linearGradient id="2kuoqyf1fp" x1="50%" x2="50%" y1="0%" y2="100%">
            <stop offset="0%" stop-color="#FFA147"/>
            <stop offset="100%" stop-color="#FE8240"/>
        </linearGradient>
        <linearGradient id="9dn4j4cyhq" x1="50%" x2="50%" y1="0%" y2="100%">
            <stop offset="0%" stop-color="#FFA147"/>
            <stop offset="100%" stop-color="#FE8240"/>
        </linearGradient>
        <linearGradient id="al71vqfe2u" x1="0%" x2="100%" y1="50%" y2="99.618%">
            <stop offset="0%" stop-color="#FFA147"/>
            <stop offset="100%" stop-color="#FE8440"/>
        </linearGradient>
        <ellipse id="e3kc9a8s9b" cx="89.75" cy="8.716" rx="8.75" ry="8.716"/>
        <ellipse id="ohhffhbmen" cx="244.75" cy="8.843" rx="8.75" ry="8.716"/>
        <ellipse id="fkpypizn8s" cx="140.25" cy="126.889" rx="8.75" ry="8.716"/>
        <ellipse id="xjokvpttjv" cx="206.75" cy="100.989" rx="2.75" ry="2.739"/>
        <ellipse id="tyapuiaosx" cx="62.25" cy="14.82" rx="2.75" ry="2.739"/>
        <path id="clfgxqeind" d="M0.361 0.115L84.474 0.115 84.474 96.336 0.361 96.336z"/>
        <path id="tu2mjv2brg" d="M292.021 153.537L291 154.476 295.563 158.927 299.217 155.389 302.853 158.953 306.511 155.411 310.147 158.972 313.806 155.432 317.44 158.996 321.098 155.456 324.733 159.016 328.389 155.477 331.556 158.579 332.5 157.665 328.394 153.645 324.738 157.182 321.105 153.623 317.445 157.162 313.81 153.6 310.152 157.14 306.518 153.578 302.86 157.119 299.224 153.557 295.612 157.053z"/>
        <path id="ew44mtxt6k" d="M43.935 207.33L43 208.184 47.178 212.23 50.524 209.013 53.853 212.253 57.203 209.033 60.532 212.271 63.882 209.053 67.21 212.293 70.56 209.074 73.888 212.311 77.236 209.094 80.136 211.914 81 211.083 77.24 207.428 73.893 210.643 70.566 207.408 67.215 210.625 63.887 207.387 60.537 210.606 57.209 207.367 53.86 210.587 50.531 207.348 47.223 210.526z"/>
    </defs>
    <g fill="none" fill-rule="evenodd">
        <g>
            <g>
                <g transform="translate(-34 -174) translate(34 174)">
                    <use fill="url(#2xh9gkb6ra)" xlink:href="#e3kc9a8s9b"/>
                    <use fill="#000" filter="url(#izva82fqnc)" xlink:href="#e3kc9a8s9b"/>
                </g>
                <g transform="translate(-34 -174) translate(34 174) translate(0 17.306)">
                    <g>
                        <path fill="#F0B61C" d="M256.189 38.58s-6.421 3.097-8.93 13.817c-2.3 9.825-1.999 14.452-1.999 14.452s-3.062 16.041 2.551 31.764l3.233 9.053s22.622-6.035 26.704-7.306c-2.21-5.558-3.231-13.658-3.231-13.658 1.53 5.4 4.762 13.182 4.762 13.182 6.804-1.747 18.2-6.67 18.2-6.67-6.718-4.845-14.118-12.944-16.159-19.377-4.069-12.821-5.783-18.105-5.783-18.105s-5.57-19.217-19.348-17.152" transform="translate(.01 29.025)"/>
                        <path fill="#EDA220" d="M291.615 95.624c-2.603-2.03-13.042-10.79-15.568-22.58-2.04-.319-2.551.793-2.551.793l-8.675 5.718-2.211 18.105 1.609 6.462c3.423-.926 6.885-1.872 9.53-2.61-.693-1.3-1.627-3.66-2.294-7.663-1.191-7.147-1.02-11.594-1.02-11.594v-2.86s1.782 16.515 5.101 21.613c.958-.272 1.72-.495 2.212-.648-2.21-5.558-3.231-13.658-3.231-13.658 1.53 5.4 4.762 13.181 4.762 13.181.494-.126 1.014-.271 1.549-.428-1.87-3.231-6.287-11.632-6.822-19.741 3.395 8.717 8.904 16.22 10.664 18.502 2.382-.824 4.832-1.756 6.945-2.592" transform="translate(.01 29.025)"/>
                        <path fill="#F09E1F" d="M258.473 38.66s-12.356 4.294-10.92 27.1l7.472.536 7.47-24.147-4.022-3.488z" transform="translate(.01 29.025)"/>
                        <path fill="#E8B9A6" d="M254.786 42.391s-6.634 5.877-3.232 10.959c3.401 5.082 9.695 2.859 11.736 1.111 2.042-1.746 3.402-4.446 3.912-7.94.51-3.494-6.293-9.688-12.416-4.13" transform="translate(.01 29.025)"/>
                        <path fill="#E8B9A6" d="M255.806 53.985l-5.783 8.418-3.062.476s-2.04 4.923 2.381 7.306c4.423 2.382 12.247-2.224 14.969-7.147l-3.742-.159 1.7-9.052-6.463.158z" transform="translate(.01 29.025)"/>
                        <path fill="#DC9090" d="M252.574 61.847c1.701.794 6.124-.874 9.27-6.353-3.623 1.09-6.527.796-7.399.397l-2.52 3.744c-.213 1.014-.082 1.87.65 2.212" transform="translate(.01 29.025)"/>
                        <path fill="#E45C6E" d="M253.595 49.697l5.443 1.747s-2.552 2.383-4.422 1.588c-1.872-.794-1.021-3.335-1.021-3.335" transform="translate(.01 29.025)"/>
                        <path fill="#F0B61C" d="M256.189 38.699s2.679 7.345 7.952 10.045c-3.828 4.288-5.528 9.53-2.807 14.93 0 0 4.848-.795 14.543-6.354-1.7-9.37-9.355-22.79-19.688-18.621" transform="translate(.01 29.025)"/>
                        <path fill="#EDA220" d="M261.715 38.027c.17 1.475 1.037 5.767 5.487 8.494l1.191.794s-6.463 9.37-3.232 15.088c.208-.04.404-.084.607-.126 2.398-.934 5.765-2.466 10.11-4.957-1.376-7.577-6.562-17.798-14.163-19.293" transform="translate(.01 29.025)"/>
                        <g transform="translate(.01 29.025) translate(227.077 10.138)">
                            <mask id="2n9zmnrkae" fill="#fff">
                                <use xlink:href="#clfgxqeind"/>
                            </mask>
                            <path fill="#E8B9A6" d="M20.565 53.058L13.25 33.365 8.318 9.542l1.396-1.428 1.122-1.146c.168-.173.881-.711.77-.976-.236-.56-2.931.381-3.288.532-.043-1.379-.122-2.76-.29-4.13-.042-.33-.124-2.17-.52-2.276-.282-.075-.416 1.49-.456 1.746-.105.679-.19 1.36-.26 2.041-.075.713-.14 1.428-.175 2.143-.231-1.333-.491-2.668-.867-3.974-.143-.497-.29-1.048-.56-1.5-.404-.671-.541.243-.497.602.12.954.372 1.897.393 2.857.018.778.085 1.044.09 1.483 0 .126 0 .245.034.363-.065.028-.122.017-.19-.004-.1-.031-.132-.217-.171-.286-.153-.27-.261-.568-.395-.846-.215-.442-.44-.88-.682-1.309-.263-.465-.54-.925-.869-1.353-.109-.142-.522-.927-.75-.512-.21.383.072.878.199 1.237.303.857.617 1.686.91 2.543.136.398.22.977.463 1.334-.523-.767-1.087-1.518-1.733-2.2-.297-.313-.906-1.074-1.375-1.15-.09-.013-.192.013-.238.086-.113.18.345.919.44 1.087.273.494.543.99.81 1.487.442.827.875 1.66 1.298 2.497.287.567.57 1.136.846 1.708.053.112.322.486.293.614 0 0-2.212 9.689-3.062 25.729-.85 16.04 12.247 28.587 12.247 28.587L6.532 92.564l31.127 3.772 4.083-27.396s9.185-4.646 21.006-14.135c11.856-9.517 13.268-30.493 13.268-30.493l.774-.584 3.726-2.813 1.934-1.46c.253-.191.5-.393.76-.574.179-.124.832-.538.239-.648-.145-.027-.555.141-.712.178-.526.124-.695.15-1.629.42-.628.18-.862.3-1.652.468.754-.704.898-.776 1.329-1.072.682-.47.985-.596 1.365-.906.541-.443.752-.557 1.334-.954.251-.171 1.614-.97.649-1.04-.495-.036-1.088.269-1.54.432-.714.257-1.41.553-2.099.862-.823.371-1.64.761-2.437 1.18 1.474-1.082 2.945-2.166 4.406-3.265.217-.163 1.308-.8 1.007-1.063-.25-.217-1.08.243-1.297.342-1.059.482-2.128 1.062-3.078 1.719-.885.612-1.75 1.259-2.569 1.949 1.107-.934 2.166-1.927 3.164-2.963.273-.283 1.917-1.746 1.693-2.154-.05-.092-.176-.13-.286-.117-.347.042-.758.466-1.023.668-.33.251-.65.513-.966.78-.659.56-1.293 1.144-1.914 1.74-.693.666-1.376 1.345-2.029 2.046-.164-.382-.37-.753-.588-1.11-.294-.478-.922-1.624-1.534-1.789-.551-.148-.263.592-.232.892.047.464.071 1.073.108 1.537.066.842.11 1.685.144 2.528.036.901.061 1.804.061 2.706-9.865 12.865-15.819 20.806-15.819 20.806L34.683 54.01s-9.696 2.224-14.118-.953" mask="url(#2n9zmnrkae)"/>
                        </g>
                        <path fill="#DC9090" d="M303.688 31.354c.255-1.43-.85-3.097-.85-3.097 1.615.794 3.061 2.7 3.061 2.7-.34-1.589-2.636-3.495-2.636-3.495l.947-1.827c-1.13 1.09-1.968 1.987-1.968 1.987l-.03-.067-.566.622s-.197-1.467-.697-2.656c-.14-.169-.9-1.136-1.207-.734-.061.08.071.523.084.63.055.452.1.905.139 1.359.076.892.128 1.787.166 2.681.04.976.07 1.952.07 2.93-.952 1.24-1.867 2.435-2.745 3.583 1.584-.85 4.547-2.364 5.041-2.075-.935-1.43-.765-5.162-.765-5.162 1.786.953 1.956 2.62 1.956 2.62M232.248 19.68s1.106-1.032 2.381-1.747c0 0 0 .874-.425 1.589s-1.701 1.27-1.701 1.27l4.167 5.32.026-.145-1.301-6.286c-.003-.014.077-.08.086-.09.53-.54 1.06-1.082 1.588-1.623.33-.336.656-.674.986-1.008.138-.14.842-.669.626-.77-.35-.163-1.481.618-1.762.766-.507.268-1.085.536-1.524.898 0 0 .07-.273.082-1.224l-.082.033-.012-.301c-.478.083-2.721.514-4.836 1.571 0 0 2.211-.555 3.997-.873 0 0-1.53.794-2.296 2.62M235.326 69.187c1.667-.412 2.62-1.067 2.62-1.067l4.082-3.93 2.807-3.336 1.287-1.748-1.118-3.011c-1.635 1.947-6.384 7.404-11.076 10.962.468.756.937 1.465 1.398 2.13M271.575 59.395l-2.459 1.191 4.678 15.395s.209-.026.895-.288c1.464-.907 3.157-1.996 5.034-3.272-1.555-5.99-6.226-11.113-8.148-13.026M250.24 104.094l14.751 1.428 2.606-16.664-30.16-1.768-.14.572c5.993 1.304 17.212 3.893 19.19 5.393 2.721 2.064-6.247 11.039-6.247 11.039" transform="translate(.01 29.025)"/>
                        <path fill="#3879A6" d="M282.657 170.857c-6.468-12.272-14.86-25.948-14.86-25.948l-2.55-40.578s-7.825.873-16.67-.556c-8.845-1.43-14.798-3.812-14.798-3.812s-13.608 39.705-12.247 43.993c.813 2.562 10.43 16.916 18.476 28.463 2.12-.422 5.487-1.473 8.614-4.083-4.12-11.916-8.89-26.762-8.89-26.762l7.144-16.041s8.675 28.27 9.696 29.699c.758 1.063 8.285 10.198 18.593 21.6 1.817-.784 5.227-2.608 7.492-5.975" transform="translate(.01 29.025)"/>
                        <path fill="#2C6C93" d="M248.622 168.336c-4.12-11.916-8.89-26.762-8.89-26.762l6.993-15.702c-.852-3.75-4.952-12.727-4.952-12.727l.51 9.211s-2.21 9.053-4.932 13.659c-2.722 4.606-6.634 5.4-6.634 5.4 1.02.794 5.273 8.735 6.294 12.07.825 2.698 4.544 13.917 5.935 18.105 1.754-.643 3.76-1.655 5.676-3.254M282.657 170.857c-6.468-12.272-14.86-25.948-14.86-25.948l-2.55-40.578s-5.69.872-13.266-.072c1.384 1.348 6.554 6.703 7.142 12.063.68 6.193 2.892 25.887 2.892 27.793 0 1.905-.681 3.335-.681 3.335s3.232 2.54 8.505 10.64c4.323 6.64 8.185 13.916 9.439 16.325 1.192-.922 2.394-2.094 3.38-3.558" transform="translate(.01 29.025)"/>
                        <path fill="#F1764A" d="M249.597 186.043l4.933-3.177 3.402 2.065c1.36 7.464 2.212 14.836 2.212 18.264 0 3.017-5.273-2.224-6.975-6.829-1.7-4.606-3.572-10.323-3.572-10.323M285.147 188.266l4.253-5.24 1.36 2.699 3.403 3.335s1.87 12.706.34 16.835c-5.784-5.877-7.144-14.77-7.144-14.77l-2.212-2.859z" transform="translate(.01 29.025)"/>
                        <path fill="#EDCFBF" d="M289.4 185.566c-1.135-3.583-3.73-8.994-6.743-14.71-2.265 3.368-5.675 5.192-7.492 5.976 3.561 3.94 7.452 8.146 11.513 12.387 0 0 4.423 1.747 2.722-3.653" transform="translate(.01 29.025)"/>
                        <path fill="#DC9090" d="M289.4 185.566c-1.135-3.583-3.73-8.994-6.743-14.71-1.1 1.636-2.47 2.905-3.796 3.87 1.148.196 2.377.612 3.225 1.47 2.04 2.065 5.103 7.782 5.783 9.688.435 1.217.244 2.691.05 3.6 1.161.062 2.565-.475 1.48-3.918" transform="translate(.01 29.025)"/>
                        <path fill="#EDCFBF" d="M250.958 187.472c2.042 1.906 5.614-.476 3.062-4.923-.925-1.612-3.056-7.44-5.398-14.213-3.127 2.61-6.495 3.66-8.614 4.083 5.42 7.779 10.129 14.286 10.95 15.053" transform="translate(.01 29.025)"/>
                        <path fill="#DC9090" d="M254.02 182.549c-.925-1.612-3.056-7.44-5.398-14.213-2.007 1.675-4.112 2.706-5.923 3.342 1.126.835 2.566 2.142 3.837 4.041 2.363 3.531 4.578 9.373 5.162 12.235 2.03.857 4.586-1.46 2.322-5.405" transform="translate(.01 29.025)"/>
                        <path fill="#EE5CA0" d="M232.673 68.12s6.634-3.017 13.608-10.323c1.7 4.13 1.87 5.4 1.87 5.4s.511 2.62 2.807 5.32c3.402-1.27 7.23-3.573 9.526-5.558 2.976-1.192 9.78-3.733 9.78-3.733 4.423 3.653 6.464 15.842 5.953 17.113-5.358 2.62-7.016 3.216-7.016 3.216l-2.339 17.947s-23.303-.636-32.318-3.177c1.02-2.859 2.892-12.23 2.892-12.23-4.593-2.54-3.913-6.51-.51-8.575-2.552-3.335-4.253-5.4-4.253-5.4" transform="translate(.01 29.025)"/>
                        <path fill="#DA4B92" d="M259.718 74.155s-14.628 5.718-18.71 6.194c8.164 2.7 17.35-4.288 18.71-6.194M274.395 66.402c.082 1.805.676 4.527-.24 6.233-.182.337-.423.636-.74.879-.942.725-1.837 1.353-2.81.323-.667-.704-2.744-4.173-2.68-5.122-.157 2.347-.069 4.732-.226 7.078-1.114-.368-2.21-.779-3.288-1.232.339 1.24 2.428 1.707 2.374 2.985-.016.384-.243.729-.47 1.048-2.597 3.628-6.94 6.23-10.892 8.465-4.635 2.62-15.469 7.197-19.133 7.608 9.932 2.19 30.615 2.755 30.615 2.755l2.296-17.867s1.658-.596 7.016-3.216c.308-.766-.313-5.498-1.822-9.937M246.366 65.023c.85-.953 1.786-1.826 1.786-1.826l-.425-1.35s-8.93 7.94-15.054 6.273c2.977 3.653 4.253 5.4 4.253 5.4s8.59-7.544 9.44-8.497" transform="translate(.01 29.025)"/>
                        <path fill="#ECBDA5" d="M42.252 39.294c0 .715-2.807 15.724-2.807 15.724s5.358 4.288 9.95 2.62l4.593-1.668-5.868-16.914-5.868.238z" transform="translate(.01 29.025)"/>
                        <path fill="#E5A38A" d="M50.373 45.549l-1.528-4.403-6.72-.66s1.913 2.978 3.699 5.48c1.626 2.277 4.198 1.685 4.549-.417" transform="translate(.01 29.025)"/>
                        <path fill="#ECBDA5" d="M47.768 28.234c2.242 1.79 3.454 5.378 4.042 8.017 1.635 7.343-4.84 7.441-10.323 4.711-3.828-1.906-4.848-5.24-4.848-8.338 0-2.286 2.007-4.595 4.133-5.545 2.538-1.134 5-.44 6.996 1.155" transform="translate(.01 29.025)"/>
                        <path fill="#F1764A" d="M51.565 35.245s.765-4.408-1.659-7.385c0 0 1.659-2.025 3.317-1.549-1.276-2.62-7.91-.834-7.91-.834 1.659-2.74 4.976-3.454 4.976-3.454-3.572-1.906-10.589.596-11.354.834 1.276-3.097 2.169-3.455 2.169-3.455-4.72.953-10.206 5.837-8.42 9.768-3.062 2.263-3.317 4.05-3.317 4.05 1.531-.834 2.041-.834 2.041-.834-.678 0 .283 2.282.371 2.44.652 1.159 1.703 2.154 2.766 2.99 2.298 1.805 6.385 4.151 9.233 2.25-1.5.076-4.061-.424-3.74-2.319.251-1.484 1.558-1.35 2.469-.358l-3.062-3.336s5.613-1.667 7.272-2.977l-2.552-.358 4.21-1.906s2.68 2.978 3.19 6.433" transform="translate(.01 29.025)"/>
                        <path fill="#E45C6E" d="M47.482 37.984l3.572-1.548s.383 2.144-.765 2.501c-1.148.357-2.807-.953-2.807-.953" transform="translate(.01 29.025)"/>
                        <path fill="#F09E1F" d="M55.774 142.606l-5.783 2.065s-.85 7.464 2.381 14.134c2.722-7.147 5.103-13.34 5.103-13.34l-1.7-2.86zM40.367 161.457c-1.828 1.024-2.414 3.514-2.072 6.742.333 3.154.978 8.774 3.433 11.15.561-.116.729-.47.9-.978.635-1.885 5.665-15.968 2.94-16.866-2.312-.761-4.017-.712-5.201-.048" transform="translate(.01 29.025)"/>
                        <path fill="#ECBDA5" d="M40.523 160.86s-.757 2.128-.757 3.263c0 1.135 1.21 5.107 2.57 5.958 1.362.852 2.874-4.682 2.874-5.675 0-.993-.605-2.98-.605-2.98l-4.082-.567z" transform="translate(.01 29.025)"/>
                        <path fill="#231F20" d="M57.986 114.018s6.803 10.006 16.499 13.818c-12.417 9.37-19.73 16.358-19.73 16.358s-.171 3.176 3.911 2.859c4.082-.318 34.7-9.053 36.74-9.37 1.361-6.194-5.613-18.424-10.205-25.411C80.608 105.284 67 90.196 67 90.196l-12.077.953 3.062 22.87z" transform="translate(.01 29.025)"/>
                        <path fill="#383636" d="M67 90.196l-9 .71-.44.084c.082 3.741-.494 8.06.854 11.477.121.307.257.606.41.896.535.073.641-.681.558-1.18-.282-1.69.027-3.46.868-4.98.435 2.234 1.103 4.427 1.992 6.54 1.232-.567.112-2.714 1.218-3.474.31 1.87.782 3.718 1.412 5.518l1.377-1.38c.754 5.821 5.103 8.037 9.171 11.835 4.083 3.812 10.972 12.865 13.013 15.247 1.588 1.853-5.779 7.886-9.13 10.474 7.867-2.121 15.144-4.131 16.104-4.28 1.36-6.194-5.613-18.423-10.206-25.412-4.593-6.987-18.2-22.075-18.2-22.075" transform="translate(.01 29.025)"/>
                        <path fill="#231F20" d="M34.513 97.184s.17 15.723 11.226 35.099c-9.355 13.34-5.783 30.334-5.783 30.334s1.7 2.541 5.273.794c7.484-14.611 15.308-23.664 15.649-26.364.34-2.7-2.042-46.216-2.042-46.216l-24.323 6.353z" transform="translate(.01 29.025)"/>
                        <path fill="#383636" d="M58.836 90.831l-14.243 3.72c.448 2.248 4.132 20.716 5.568 27.646 1.531 7.386 2.041 11.912 3.317 13.58 1.276 1.667 5.613 4.208 7.4 1.27.34-2.7-2.042-46.216-2.042-46.216" transform="translate(.01 29.025)"/>
                        <path fill="#ECBDA5" d="M45.824 47.632S32.556 50.73 20.31 60.735C8.063 70.741 7.042 72.646 6.277 73.361c-.766.715-.51 26.443-.51 26.443s-4.338 1.43-2.042 5.48c-.644-.055-1.288-.117-1.93-.192-.292-.035-1.05-.32-1.276-.037-.34.427 1.059 1.083 1.346 1.229.571.29 1.673.812 2.37.667-1.223.254-2.334.513-3.593.369-.128-.015-.262-.032-.387-.001-.125.03-.243.123-.255.244-.031.338 2.914.828 3.391.902.529.08 1.073.154 1.61.154-.92.381-1.858.852-2.885.87-.16.003-.324-.006-.482.024-.157.03-.315.107-.394.238-.024.04-.04.084-.039.128.006.59 3.378.244 3.931.14.464-.087.998-.198 1.4-.447-.645.401-1.136.975-1.806 1.339-.678.367-1.383.775-1.942 1.292-.098.092-.2.208-.175.336.102.527 2.22-.506 2.513-.613.826-.301 1.652-.62 2.434-1.012.808-.405 1.487-.895 2.038-1.58.765-.954 1.53-7.624 1.53-7.624 3.317-11.197 6.89-21.679 6.89-21.679l16.073-10.005 2.297 24.776 33.168-4.05-1.276-13.818s10.206 11.674 18.881 10.959c3.572-12.864-5.103-29.064-5.103-29.064 4.082-3.097 2.807-5.956-.255-5.956l1.058-1.647c.299-.465.725-.816.987-1.307.02-.037.038-.077.033-.118-.016-.12-.2-.129-.324-.095-1.052.282-2.076 1.192-2.887 1.86-.27.222-.741.52-.908.831.203-.38 2.418-4.901 1.56-5.094-.494-.111-.884.746-1.09 1.036-.347.484-.679.978-1 1.478-.345.535-.684 1.076-1.001 1.627l.672-2.761c.13-.531.436-1.235.384-1.783-.011-.116-.084-.236-.203-.271-.17-.05-.334.082-.448.208-.928 1.026-1.315 2.343-1.615 3.628-.11.473-.32.97-.32 1.456 0-.963-.03-1.927-.116-2.886-.048-.543 0-1.546-.38-1.998-.082-.096-.228-.155-.347-.105-.509.215-.511 1.126-.58 1.553-.099.604-.2 1.208-.272 1.815-.08.676-.171 1.35-.26 2.026-.04.306-.146.665-.124.972.022.312.16.434.38.691l1.204 1.404c.052.06.409.582.494.577-.501.03-3.258-.05-3.371.32-.032.102.024.215.11.286.252.21.807.304 1.129.42.413.15.832.29 1.253.421.954.296 1.928.543 2.92.697.255 4.05-1.275 13.58-1.275 13.58s-7.4-13.103-8.675-15.485c-1.276-2.383-12.757-9.53-22.963-8.577" transform="translate(.01 29.025)"/>
                        <path fill="#E5A38A" d="M23.882 71.693c0 .596-8.675 5.837-8.675 5.837l-4.465-.12s2.04 3.574 1.276 6.552c-.766 2.978-3.317 16.08-3.317 16.08s-2.552 1.906-2.297 3.931c.256 2.025 1.659 3.693 1.659 3.693s-2.56 1.506-4.188 2.495c1.862-.1 2.657-.59 2.657-.59l-.322.245 1.47-.483-2.435 2.547c3.077-1.133 3.716-1.76 4.349-2.547.765-.953 1.53-7.623 1.53-7.623 3.317-11.197 6.89-21.679 6.89-21.679l13.501-8.405.148-.409-4.72-6.313-5.796-4.837c-.043.034-.086.07-.13.103.446 1.704 2.865 10.983 2.865 11.523M82.227 82.272l.047 1.221c-2.317-2.34-3.666-5.389-4.467-8.486-.121-.468-.228-.94-.328-1.41l.11 8.22s-5.996-6.908-5.996-8.575c0-1.352 1.258-6.854 1.734-8.888l-1.484-2.643c-.635.348-2.24 1.24-2.546 1.525-.383.358-6.251 5.003-6.251 5.003s2.041 6.313 2.424 7.028c.274.513 1.081 1.767 3.02 3.971l-.214-2.304s10.206 11.673 18.88 10.959c.012-.04.02-.08.03-.12-1.8-1.717-3.6-3.471-4.96-5.5" transform="translate(.01 29.025)"/>
                        <path fill="#E5A38A" d="M82.275 83.493l-.048-1.22-.851-21.645c-.034-.85-.194-1.88-1.036-2.202.457-.008.904-.228 1.172-.574l-7.91-1.223c1.147.46 3.139 1.175 5.135 1.485.255 4.05-1.275 13.58-1.275 13.58l-.481-.852c.143.922.304 1.841.498 2.754.1.472.207.943.328 1.41.8 3.098 2.15 6.148 4.468 8.487M77.139 55.78l3.821-.386c-.966-.19-1.944-.33-2.927-.422.985-.803 2.163-1.399 3.422-1.73-1.588.04-3.137.442-4.667.84l.67-.702-1.167.028c-.188-2.003-.534-4.189-.732-6.203-.034.057-.063.12-.088.186-.112.646-.215 1.235-.305 1.768-.06.38-.119.76-.164 1.14-.08.677-.172 1.352-.26 2.027-.04.306-.145.665-.124.973.022.311.16.433.38.69l1.204 1.404.12.162c.107.112.2.212.258.28.19.047.397.035.559-.055" transform="translate(.01 29.025)"/>
                        <path fill="#3879A6" d="M19.8 59.067l9.184 14.77 4.593-2.62-2.296 10.482 2.296 3.097-1.53 15.247s13.522-6.194 24.238-7.386c10.716-1.19 16.329-.238 16.329-.238l-3.317-15.246.51-3.097-2.551-4.05 6.634-7.623s-3.572-5.956-7.91-10.006c-4.337-4.05-13.522-5.241-13.522-5.241s-1.021 4.288-4.083 5.717C45.314 54.303 38.17 49.3 38.17 49.3s-8.42 3.335-18.37 9.767" transform="translate(.01 29.025)"/>
                        <path fill="#26678E" d="M61.744 88.351c-6.846-2.678-12.832-1.006-19.745.7-.392.097-.889.16-1.135-.14-.12-.147-.14-.34-.158-.523-.134-1.428-.266-2.889.123-4.275 1.135-4.055 7.413-5.112 11.033-6.464 2.893-1.084 5.959-1.1 8.852-2.26-3.805-.915-7.795-1.138-11.695-.689-4.229.487-11.691 5.132-11.653-2.087.018-3.382.244-6.829.052-10.206-.087-1.537-.913-3.942-.184-5.404l-3.402 6.829s-1.36.635-4.252 1.747c-2.247.864-4.795.195-5.823-.147l5.227 8.405 4.593-2.62-2.296 10.482 2.296 3.097-1.531 15.246s13.523-6.193 24.239-7.385c6.508-.723 11.13-.655 13.76-.49-2.7-1.398-5.466-2.707-8.3-3.816M69.552 64.467s-1.36-5.082-2.721-6.67-4.763-4.447-4.763-4.447l4.933 16.517.319.085 4.563-5.243-2.33-.242zM38.17 49.3s-.736.292-2.023.866c1.53 1.167 5.06 3.58 8.401 3.819 4.06.292 5.395-.893 6.377-3.423-.62.918-1.452 1.799-2.55 2.311C45.314 54.303 38.17 49.3 38.17 49.3" transform="translate(.01 29.025)"/>
                        <path fill="#EE5CA0" d="M120.58 163.411c.68.159 2.552 5.876 5.103 7.147 2.552 1.27 2.382-2.382 2.382-3.653 0-1.27-1.02-9.847-2.041-13.023-3.232 7.782-5.443 9.529-5.443 9.529M111.906 191.522s2.381 4.447 3.231 8.258c-1.19 6.67-1.36 10.959-3.231 12.388-1.871 1.43-4.763.16-5.103-3.176-.34-3.335.17-15.723.17-15.723l4.933-1.747z" transform="translate(.01 29.025)"/>
                        <path fill="#ECB5A0" d="M117.859 163.57s4.593 1.747 6.634-1.43c2.04-3.176 1.7-6.51.85-11.752-5.783 8.417-7.484 13.182-7.484 13.182" transform="translate(.01 29.025)"/>
                        <path fill="#EDCFBF" d="M108.844 126.248c.753 9.162.51 16.358 1.102 27.96.718 14.081 2.014 27.983 2.347 42.076.094 3.98-3.264 3.308-4.81.479-8.675-15.882-17.52-44.549-16.244-75.995 9.44-1.19 17.605 5.48 17.605 5.48" transform="translate(.01 29.025)"/>
                        <path fill="#EDCFBF" d="M128.065 117.513c-12.587 2.064-20.071 9.687-20.071 9.687s4.422 28.746 5.442 33.51c1.02 4.765 2.212 5.242 3.913 4.607 6.633-4.288 10.205-15.723 11.226-25.57 1.626-15.689-.68-21.6-.68-21.6" transform="translate(.01 29.025)"/>
                        <path fill="#EBB7AC" d="M128.128 118.915c-.138-.519-.233-.767-.233-.767l.059-.221c-5.33 1.645-16.266 6.93-18.645 8.092-.168.141-.318.27-.455.39.052.864.314 5.201.648 10.488 1.382 8.813 3.305 20.875 3.935 23.814 1.02 4.765 2.21 5.241 3.911 4.606 1.22-.788 2.334-1.82 3.35-3.035-1.234-.263-3.12-.905-3.945-2.444-1.275-2.382-2.04-11.435-2.296-17.153-.255-5.717-.255-11.196 3.317-15.246 2.465-2.796 7.482-6.498 10.354-8.524M109.264 133.178c-.246-2.868-.42-5.114-.42-5.74 0-2.1-11.744-5.112-12.224-5.234.404.106 6.321 1.9 5.335 15.478-1.006 13.86 0 22.632 1.02 30.017 1.021 7.385 5.104 22.87 6.124 26.205.544 1.776.58 3.614.495 4.95 1.394.621 2.76-.013 2.7-2.57-.334-14.094-1.63-27.995-2.348-42.075-.436-8.555-.42-14.714-.682-21.031M96.62 122.204l-.023-.006.023.006" transform="translate(.01 29.025)"/>
                        <path fill="#3879A6" d="M104.932 56.526s-5.443-.476-8.675-2.223c-3.232-1.747-1.7-8.577 1.02-11.435 2.722-2.86 9.696-6.512 11.227-8.577 1.53-2.064.68-2.064 0-4.446-.68-2.383 4.423-4.606 11.396-4.447 6.974.159 15.649-.953 17.01-4.447 1.36-3.494-.51-5.4-.68-5.876-.17-.477 7.484 1.27 11.056 8.258 3.572 6.988.34 12.07-3.232 14.294-3.572 2.223-7.314 3.018-5.443 8.1 1.871 5.082 2.721 9.37-4.083 11.117-6.803 1.747-11.566.317-14.457 1.112-2.892.794-6.634 3.811-6.634 3.811l-8.505-5.24z" transform="translate(.01 29.025)"/>
                        <path fill="#EDCFBF" d="M106.803 17.775l-6.804 47.963s3.912-3.812 9.355-3.812c5.444 0 10.036 2.541 10.036 2.541l9.355-45.422-1.607-2-1.284-1.599c-.214-.268-1.054-1.033-.885-1.364.18-.356 1.945.71 2.148.85.337.23.667.488.948.778.049-1.561.145-3.122.325-4.675.052-.45.096-2.685.727-2.732.398 1.92.34 3.884.572 5.815.017.138.138.507.077.64.686-1.465 1.446-2.905 2.34-4.268.279-.423.57-.84.882-1.242.107-.139.72-1.04.876-.595.04.11-.006.228-.051.335-.732 1.744-1.348 3.523-2.006 5.293.274-.332 4.513-4.81 5.01-3.953.162.277-.806 1.219-.973 1.43-.609.759-1.29 1.493-1.835 2.284-.418.606-.606.975-1.351 1.986.824-.725 1.713-1.39 2.674-1.951.228-.133 1.768-1.062 1.945-.85.057.067.06.16.046.245-.044.245-.22.451-.42.615-.781.642-1.454 1.28-2.124 2.037-.552.624-1.09 1.261-1.603 1.914-.315.4-.624.807-.915 1.224-.044.062-.3.338-.284.419 0 0 3.572 17.628 3.062 29.222-.51 11.594-7.314 25.57-9.015 28.587-2.041 3.653-3.743 5.4-3.743 5.4l-.34 16.835s-5.613 3.97-15.138 4.606c-9.526.635-11.567-2.859-11.567-2.859l.681-20.647s-5.784-7.305-6.634-22.87c-.85-15.563 9.866-32.557 13.608-38.592l-.248-.58c-.775-1.818-1.541-3.64-2.306-5.462l-.985-2.348c-.056-.134-.406-.733-.3-.861.137-.163.531.118.656.219.284.229.556.472.813.728.43.427.725.845 1.058 1.342.28.419.655.924.801 1.403-.406-1.328-.826-2.652-1.26-3.973-.11-.339-1.143-2.683-.74-2.86.274-.122 1.672 2.399 1.844 2.693.593 1.017 1.166 2.073 1.517 3.187-.157-.498-.022-1.24-.05-1.766-.031-.605-.076-1.21-.13-1.814-.049-.536-.078-.693-.222-1.666-.072-.487-.202-.805-.161-1.323.008-.092.021-.192.093-.257.307-.28.975 1.686 1.057 1.932.24.723.43 1.46.584 2.202.163.785.287 1.578.36 2.375.264-1.108.264-2.19.366-3.32.046-.504.081-1.01.109-1.515.01-.176.094-1.294.384-1.15.085.041.127.13.158.215.52 1.435.458 3.259.452 4.762 0 .202.104 2.36-.108 2.437 1.104-.4 2.41-.824 3.603-.835.55-.006 1.055.279.43.702-.961.653-1.844 1.376-2.618 2.23-.365.404-1.165 1.149-1.245 1.715" transform="translate(.01 29.025)"/>
                        <path fill="#EBB7AC" d="M95.151 36.912l7.57 1.033 1.258-.266 2.824-19.905c.061-.434.643-1.006.912-1.33.412-.497.87-.962 1.356-1.399.551-.495 1.21-.916 1.783-1.395.042-.034.085-.07.104-.12.034-.083-.014-.181-.092-.233-.078-.052-.178-.066-.274-.064-.287.006-.554.132-.81.255-.338.163-.642.366-.973.531-.5.248-1.321.732-1.921.58-.651-.167-.437-.524-.247-.727l.008-.094-.527.185s-2.04.238-3.997 1.509c0 0 2.381-.715 3.572-.397 0 0-1.275 1.111-2.04 2.382 0 0 2.72-2.144 2.72-1.667 0 .476-.51 1.588-.68 2.064-.17.476-.765.794-2.126 1.191l1.276.953s-2.466 12.23-4.508 13.897c-1.283 1.048-4.146 1.374-6.094 1.472-.154.354-.307.709-.456 1.068l1.362.477zM122.09 92.381c-.852-3.137-2.36-7.268-2.36-7.268l-3.402-1.588-12.077 1.43h-7.994s-.195 0-.477.027l-.543 16.49.005.01c.075-2.811.68-10.046 4.927-10.175 5.273-.158 15.309-1.905 16.67-1.588 1.137.266 3.937 7.741 4.826 10.188.182-.115.276-.182.276-.182l.149-7.344zM129.34 33.339c-1.19-2.303.936-13.261.936-13.261l1.02-.636s-1.53-.635-2.04-1.588c-.511-.953-.681-1.668-.681-1.668 1.53.715 2.551 1.51 2.551 1.51-.765-1.35-2.296-1.986-2.296-1.986 2.467.397 4.678 1.35 4.423 1.112-2.751-1.511-4.423-1.585-5.165-1.725-.008.202-.017.401-.023.613-.445-.46-1.002-.855-1.575-1.164-.233-.125-1.32-.727-1.545-.454-.158.192.254.545.371.685.187.224.366.455.548.682l1.27 1.58 1.61 2.006-3.572 17.35c1.59.275 3.658.597 3.658.597l3.317.158 2.126-.952s-3.742-.556-4.933-2.86" transform="translate(.01 29.025)"/>
                        <path fill="#EAA590" d="M107.26 57.255L104.803 64.5 114.431 65.561 113.073 55.976z" transform="translate(.01 29.025)"/>
                        <path fill="#F0B61C" d="M100.85 63.038s1.53-.477 3.402-1.27c2.553-1.085 6.803-1.43 14.288.317 2.721-11.117 6.293-27.476 6.293-27.476l9.865 1.271s2.042 11.435-1.36 25.252c-3.402 13.817-6.294 18.264-6.294 18.264s.85 17.947-4.082 22.87c-1.87-8.1-3.062-14.929-4.763-16.835-5.272 1.271-12.757 2.383-16.67 2.224-3.911-.16-5.612.159-5.952 3.017-.34 2.86-.34 9.688-.34 9.688s-1.872-5.558-3.403-8.893c-1.53-3.336-2.89-9.689-2.89-13.659 0 0 .85-2.54 2.55-4.606-2.55-8.893-5.953-17.47 2.382-37.798 7.824.794 10.716.794 10.716.794l-3.232 22.87-.51 3.97z" transform="translate(.01 29.025)"/>
                        <path fill="#EDA220" d="M101.247 62.908c-.253.085-.397.13-.397.13l.51-3.97 3.231-22.87s-1.657-.001-5.846-.344c-.296 2.091-1.55 11.004-2.148 15.749-.68 5.4-2.891 16.358-4.252 20.488 0 0 5.997-6.692 8.902-9.183M124.833 34.61s-3.572 16.357-6.293 27.475c-.081-.019-.156-.034-.237-.052 1.816.496 4.551 1.33 5 1.958.68.953 1.87 5.082 3.23 10.482.511-3.97-1.87-11.118-1.87-11.118s1.7-11.911 3.402-19.852c1.109-5.176 2.434-7.247 3.222-8.062l-6.454-.832zM121.941 84.637s1.19 4.447 1.02 8.418c-.85-4.13-4.251-7.147-4.251-7.147l.06.379c1.414 2.648 2.537 8.815 4.192 15.979 4.472-4.464 4.19-19.631 4.099-22.425-.253 3.246-.74 8.225-1.548 14.007 0 0-1.7-6.034-3.572-9.21M127.34 78.883c-.04-.403-.081-.814-.126-1.234-.027.467-.065 1.026-.112 1.653.05-.082.129-.218.238-.42M92.855 78.602c.34-1.906 1.361-4.13 3.062-5.241 1.7-1.112 8.845-2.382 14.798-3.176 5.954-.794 10.206-1.43 12.077 5.24-2.212-2.7-6.464-3.493-9.015-3.652-2.552-.16-14.799 3.176-14.799 3.176 8.505-.953 16.5.477 16.5.477-9.525-.477-15.309.794-17.69 1.429-2.382.635-4.082 3.494-3.912 4.606.17 1.111-1.021-2.859-1.021-2.859" transform="translate(.01 29.025)"/>
                        <path fill="#3879A6" d="M103.78 56.391l1.91-19.715c-2.735 1.93-6.56 4.245-8.413 6.192-2.72 2.858-4.252 9.688-1.02 11.435 2.31 1.248 5.75 1.848 7.524 2.088" transform="translate(.01 29.025)"/>
                        <path fill="#EDCFBF" d="M111.14 49.618c-3.287-.95-4.305-3.544-4.62-5.004-1.703 1.13-4.2 3.568-3.63 7.942.851 6.511 4.933 7.305 7.145 6.829 2.211-.477 5.273-3.177 5.273-8.894 0-.1-.01-.19-.012-.288-.98.054-2.332-.059-4.156-.585" transform="translate(.01 29.025)"/>
                        <path fill="#E45C6E" d="M105.655 54.66s1.148 2.978 3.572 2.978c2.424 0 3.061-3.812 3.061-3.812l-6.123.834h-.51z" transform="translate(.01 29.025)"/>
                        <path fill="#EE5CA0" d="M94.556 100.995s4.423 1.43 10.886 1.588c6.464.16 17.35-3.335 17.35-3.335s4.252 10.8 5.953 20.011c0 0-11.056.953-19.9 10.165.169.159-.341.317-.341.317-.85-4.129-9.185-7.94-17.52-6.987-1.19-.953 2.721-19.853 3.572-21.759" transform="translate(.01 29.025)"/>
                        <path fill="#C95091" d="M107.313 107.984c4.735.26 13.113-5.332 15.998-7.37-.323-.868-.52-1.365-.52-1.365s-10.885 3.494-17.349 3.335c-6.463-.16-10.886-1.589-10.886-1.589-.058.13-.13.342-.213.617 2.334 1.797 8.395 6.12 12.97 6.372M117.144 121.77c-1.927.59-3.845 1.918-5.89 2.05.826-1.649 3.73-2.532 5.457-3.002.949-.26 1.977-.432 2.712-1.047-2.343-.234-4.66.488-6.889 1.2 1.275-1.262 3-2.03 4.681-2.769l4.288-1.885c-1.63-.215-3.247.359-4.778.922-1.853.682-3.827 1.454-4.896 3.023-.222-4.14 3.551-6.742 6.03-9.738 0 0-6.464 6.512-9.015 7.941-2.552 1.43-2.381-.476-7.484-4.764 1.63 2.665 3.507 5.14 4.653 8.041-.857-.077-1.62-.51-2.409-.834-.788-.323-1.72-.536-2.49-.176l2.822 1.54c.353.193.713.39.979.68.272.298.392.64.283 1.009-1.993-.795-3.81-1.39-6.039-1.281-.269.013-.781.145-1.347.295 5.583.983 10.08 3.792 10.692 6.766 0 0 .51-.158.34-.317 4.142-4.313 8.769-6.816 12.518-8.258-1.117-.516-3.34.335-4.218.604" transform="translate(.01 29.025)"/>
                        <path fill="#E5A08B" d="M239.647 161.029s8.505 8.576 10.206 9.847c3.402-5.083 2.381-6.67 2.381-6.67l-7.824-7.624-4.763 4.447z" transform="translate(.01 29.025)"/>
                        <path fill="#D88068" d="M250.604 168.07c-3.334-2.84-5.574-6.773-6.244-10.939l-2.723 2.04-1.99 1.858s5.357 5.402 8.418 8.266c.785-.509 1.636-.93 2.539-1.225" transform="translate(.01 29.025)"/>
                        <path fill="#231F20" d="M246.79 168.334s2.382-1.588 2.382-6.987c5.783-4.448 12.588-7.624 12.588-7.624-4.763 12.07-9.866 19.694-9.866 19.694s-2.381-2.224-5.103-5.083" transform="translate(.01 29.025)"/>
                        <path fill="#E5A08B" d="M147.626 191.204l-3.062 12.388-6.123-2.223s1.7-11.435 2.72-13.659l6.465 3.494z" transform="translate(.01 29.025)"/>
                        <path fill="#D88068" d="M147.626 191.204l-2.869-1.55c-.91 3.9-1.936 7.777-3.078 11.624 1.086.288 2.155.63 3.206 1.014l2.74-11.088z" transform="translate(.01 29.025)"/>
                        <path fill="#231F20" d="M138.61 195.969s2.722 4.13 7.485 2.858c-1.02 6.036-1.701 7.624-1.701 7.624-15.65-5.4-22.793-8.577-22.793-8.577 11.567-3.176 17.01-1.905 17.01-1.905" transform="translate(.01 29.025)"/>
                        <path fill="#F09E1F" d="M158.682 93.69c0 .953-19.05 62.256-19.05 96.244l7.824 3.494c20.07-48.281 36.06-78.456 36.4-79.41 24.494 22.87 53.41 44.787 56.811 48.281 4.423-3.494 5.784-5.082 5.784-5.082-22.113-37.164-46.606-63.21-52.39-69.88-27.555 5.082-35.379 6.353-35.379 6.353" transform="translate(.01 29.025)"/>
                        <path fill="#F1764A" d="M219.49 135.38c-.85-1.589-1.7-5.083-1.7-5.083s-6.464-2.064-11.737-6.511c-5.272-4.447-15.819-14.294-15.819-14.294s2.042-2.382.17-7.305l-7.483 13.658.095.09c.349-.696.55-1.104.585-1.202.158.149.318.296.477.444l.197-.331c-.06.101-.113.225-.164.362 24.383 22.697 52.923 44.336 56.301 47.806 1.106-.873 2.02-1.627 2.769-2.267-4.142-4.32-22.934-23.955-23.69-25.367M160.532 147.472c-2.347 2.143-2.127 4.666-2.875 7.735-1.62 6.637-4.25 13.01-6.714 19.4-3.545 9.195-7.02 14.22-9.561 16.937l5.819 2.598c14.681-35.316 27.177-60.942 32.964-72.532-4.05 6.449-8.384 12.742-12.988 18.858-2 2.655-4.185 4.757-6.645 7.004M174.926 100.043c.255-1.668 1.276-4.289 1.276-4.289l11.991 4.289 3.827-7.386-10.997-2.262c-4.411.803-8.044 1.458-11.005 1.987l-4.787 1.943-3.636-.459c-2.264.391-3.168.539-3.168.539 0 .15-.476 1.807-1.276 4.621 3.514 2.943 11.79 9.724 14.968 11.022 1.786-5.24 2.807-10.005 2.807-10.005" transform="translate(.01 29.025)"/>
                        <path fill="#E5A08B" d="M217.726 29.765s.957-2.322.638-3.275c-.26-.776-.547-1.551-.867-2.308-.13-.307-.676-.942.054-.876 1.052.095 1.928 1.32 2.165 1.873.431-4.763.71-7.405 1.39-7.245.68.158.17 6.034.17 6.034l.028-.043 2.36-3.745c.214-.34.402-.7.618-1.035.191-.297.37-.339.468.04.14.538-.139 1.264-.27 1.79-.298 1.198-.781 2.355-1.332 3.47.878-1.202 1.767-2.402 2.732-3.544.186-.22.51-.764.68-.31.14.367-.15 1.04-.278 1.393-.216.595-.51 1.165-.834 1.714-.38.642-.802 1.274-1.28 1.859.845-.482 1.69-.965 2.533-1.45.29-.167.583-.332.872-.502.153-.09.62-.531.773-.499.94.204-1.611 2.629-1.862 2.842-.511.433-1.056.845-1.635 1.197 0 0-.85 3.97-3.572 5.082-2.041-.476-3.55-2.462-3.55-2.462" transform="translate(.01 29.025)"/>
                        <path fill="#D88068" d="M220.788 30.182c-.74.345-2.305-.002-2.824-.133.5.565 1.75 1.813 3.313 2.178 2.721-1.112 3.572-5.082 3.572-5.082s2.09-1.272 3.156-2.817c-1.173.891-3.449 2.409-4.156 2.46 0 0-.637-.417-2.87-1.31 0 0 1.786 1.846 1.467 3.096 0 0-.829-2.025-2.232-2.501 0 0 1.467 3.692.574 4.11" transform="translate(.01 29.025)"/>
                        <path fill="#E5A08B" d="M133.168 15.551l-3.784-3.901V6.29c0-.477.024-.952.068-1.426.034-.374.163-.815.034-1.183-.564-.052-1.175 1.33-1.39 1.728-.05.095-.558.92-.479 1.017-1.135-1.377-2.181-2.812-3.249-4.235-.363-.484-.726-.97-1.129-1.428-.12-.138-.878-1.052-1.05-.67-.107.24.252.816.34 1.04.164.416.33.831.499 1.246.259.638.523 1.274.795 1.908.227.532.457 1.064.702 1.59-.958-1.12-1.918-2.261-3.01-3.273-.239-.221-1.818-1.665-2.066-.897-.092.286.5.802.662 1.034l.858 1.227c.448.64.894 1.28 1.34 1.922.347.499.694.998 1.039 1.498-.16-.233-.512-.443-.731-.627-.495-.417-.998-.827-1.51-1.224-.831-.644-2.019-1.775-3.139-1.94-.13-.019-.295-.054-.407.036-.32.257.165.491.343.645.853.731 1.606 1.597 2.402 2.383.64.633 1.28 1.268 1.932 1.89l.08.075c-.279-.16-5.344-3.303-5.568-2.358-.081.344.969.981 1.216 1.19.483.405.967.809 1.455 1.21.797.655 1.601 1.304 2.412 1.945 1.016.804 2.056 1.584 3.063 2.399.225.182.45.365.66.563 1.03.962 3.189 5.47 3.189 5.47l4.423-3.494z" transform="translate(.01 29.025)"/>
                        <path fill="#D88068" d="M128.937 16.453l.066.132.095-3.286c.01-.373-.149-.895-.542-.828-.008.457-.748.618-1.128.328-.38-.29-.467-.792-.51-1.248-.113-1.214-.09-2.445.175-3.638-.676.766-1.111 1.713-1.242 2.697-.445.1-.61-.535-.51-.951.24-1.004.74-1.953 1.446-2.742-1.838.201-2.85 2.623-4.696 2.509-.549-.034-1.045-.303-1.519-.564l-2.716-1.498c4.486 3.776 6.765 5.337 7.7 6.21.673.628 1.822 2.761 2.542 4.17.119.026.24.024.364-.02.486-.168.524-.788.475-1.27" transform="translate(.01 29.025)"/>
                        <path fill="#E0AC98" d="M171.779 32.068l-5.273 12.706s7.485 8.735 13.778 1.906c-2.211-11.594-2.721-13.659-2.721-13.659l-5.784-.953z" transform="translate(.01 29.025)"/>
                        <path fill="#D88068" d="M178.167 35.857c-.462-2.258-.605-2.836-.605-2.836l-1.868-.308-1.023.03-2.914-.621-2.173 5.237c.638.951 1.546 1.768 2.79 1.816 1.885.074 4.25-1.837 5.793-3.318" transform="translate(.01 29.025)"/>
                        <path fill="#E5A08B" d="M168.717 25.24s-1.87-1.589-2.891.158c-1.02 1.747.68 4.923 2.721 4.13l.17-4.289zM181.645 26.192s1.7-1.112 2.551.476c.85 1.588-1.36 4.447-3.402 3.812l.85-4.288z" transform="translate(.01 29.025)"/>
                        <path fill="#E5A08B" d="M180.964 18.886s2.212 3.018 1.02 8.735c-1.19 5.718-4.082 7.465-7.654 7.147-3.572-.317-5.613-2.382-6.293-6.194-.68-3.812.51-8.576 4.082-10.8 3.572-2.223 7.314-1.111 8.845 1.112" transform="translate(.01 29.025)"/>
                        <path fill="#231F20" d="M180.964 18.886c-1.53-2.223-5.273-3.335-8.845-1.111-1.724 1.073-2.89 2.757-3.55 4.568-.611 1.68-1.299 4.137-.138 5.74-.247-1.928.965-4.242 1.758-5.984.095-.209 1.449-2.724 1.59-2.578 0 0 3.232 3.336 8.675 1.271 1.02 2.224.787 7.186.787 7.186s.493-1.075.964-1.696c.617-4.844-1.24-7.396-1.24-7.396" transform="translate(.01 29.025)"/>
                        <path fill="#E45C6E" d="M172.29 29.845l5.612.635s-.935 2.303-3.231 2.263c-2.296-.04-2.382-2.898-2.382-2.898" transform="translate(.01 29.025)"/>
                        <path fill="#6CB6C8" d="M181.645 42.55l19.56 5.4 16.5-18.423 4.252 2.86s-4.35 22.165-16.67 28.269c-8.334 4.13-17.179 2.382-17.179 2.382l11.397 20.805-5.954 11.753-12.757-4.289-4.422 12.865s-19.561-6.67-25.855-14.135c3.062-6.353 5.103-12.229 5.103-12.229-2.21-12.07-3.402-22.235-3.402-22.235-.11-1.039-16.727-9.12-24.664-38.275 3.232-2.859 4.253-3.97 4.253-3.97s18.37 16.517 22.793 20.487c4.422 3.97 13.306 7.978 15.138 9.688 7.23 6.75 11.907-.953 11.907-.953" transform="translate(.01 29.025)"/>
                        <path fill="#4DA3B1" d="M220.734 31.564c-1.534 3.06-9.8 19.515-10.726 20.595-1.02 1.19-6.634-.834-6.634-.834l2.68 4.764-2.808-1.905s.51 2.978-2.04 3.811c-2.552.834-18.116-3.93-18.116-3.93l5.076 8.984c.732.133 9.157 1.553 17.122-2.393 12.319-6.104 16.67-28.27 16.67-28.27l-1.224-.822zM180.794 91.307l12.707 4.272-13.472-9.95-5.358 14.175s-11.864-3.93-15.691-8.933c1.786-6.433 2.04-7.147 2.04-7.147l5.741 1.906-5.995-7.505-3.445-21.321s3.7-.834 5.486-4.645c-2.041.952-4.593 1.667-4.593 1.667 3.062-2.144 4.338-10.005 4.338-10.005-3.572 5.479-7.782 5.717-8.165 5.479-.383-.238-9.695-8.695-15.309-16.557-4.67-6.541-8.543-14.561-9.713-17.072-.508.465-1.104 1.002-1.81 1.627 7.994 29.7 24.663 38.275 24.663 38.275s1.19 10.165 3.402 22.235c0 0-2.04 5.876-5.103 12.229 6.294 7.464 25.855 14.135 25.855 14.135l4.422-12.865zM162.934 40.247l5.486 12.15 4.72-3.93 4.593 19.296-1.021-16.557 1.02-.715c1.021-.714 5.614-5.122 5.614-5.122l-3.287-.976c-1.949 1.753-5.588 3.53-10.321-.89-.1-.093-.224-.194-.363-.3l-.828-.097-5.613-2.859z" transform="translate(.01 29.025)"/>
                        <path fill="#8BC9CF" d="M165.826 36.674L173.82 46.362 169.398 50.015 162.594 39.691zM181.304 40.645L175.181 46.362 177.563 49.062 184.366 45.091z" transform="translate(.01 29.025)"/>
                        <path fill="#231F20" d="M180.794 91.546c-.13 0-.24-.092-.253-.215-1.513-14.125-6.245-44.471-6.293-44.776-.02-.13.076-.251.216-.27.135-.02.269.07.29.201.047.305 4.78 30.662 6.294 44.798.014.13-.088.247-.228.26l-.026.002" transform="translate(.01 29.025)"/>
                    </g>
                    <path fill="#C65447" d="M115.222 6.104h9.97c.81 0 1.464.573 1.464 1.28 0 .102-.014.205-.042.305l-4 14.215c-.27.96-1.258 1.631-2.388 1.623l-10.084-.075c-.808-.006-1.458-.584-1.451-1.29.001-.103.016-.206.045-.305L112.86 7.71c.275-.945 1.248-1.606 2.363-1.606z"/>
                    <path fill="#C4453B" d="M114.547 6.104h9.26c.81 0 1.467.573 1.467 1.28 0 .102-.014.205-.042.305l-4.008 14.215c-.271.96-1.263 1.632-2.396 1.623l-9.374-.074c-.81-.006-1.461-.584-1.454-1.29.001-.103.016-.205.045-.305l4.133-14.148c.276-.945 1.251-1.606 2.369-1.606z"/>
                    <circle cx="113.873" cy="22.325" r="1" fill="#D8D8D8"/>
                    <path fill="#A7F0F7" d="M115.302 7.906h7.13c.425 0 .77.283.77.632 0 .053-.009.106-.025.158l-3.58 11.478c-.177.565-.8.957-1.51.95l-7.256-.079c-.424-.004-.764-.291-.758-.64 0-.053.01-.105.026-.156l3.719-11.406c.18-.553.789-.937 1.484-.937z"/>
                    <path fill="#EEFEFF" d="M115.14 7.906h6.869c.277 0 .501.19.501.426 0 .101-.042.199-.12.276l-11.875 11.84c-.09.09-.248.1-.354.024-.074-.053-.105-.138-.08-.217l3.605-11.402c.177-.559.773-.947 1.454-.947z"/>
                    <path fill="#2E4F7E" d="M310.52 32.004h8.963c.726 0 1.315.544 1.315 1.215 0 .098-.013.196-.038.29l-3.595 13.503c-.242.911-1.131 1.55-2.147 1.541l-9.064-.071c-.727-.006-1.31-.554-1.304-1.226 0-.097.014-.194.04-.29l3.706-13.436c.247-.898 1.122-1.526 2.124-1.526z" transform="matrix(-1 0 0 1 625.448 0)"/>
                    <path fill="#17699E" d="M311.908 32.004h8.28c.725 0 1.312.544 1.312 1.215 0 .098-.013.196-.038.29l-3.584 13.503c-.242.911-1.129 1.55-2.142 1.541l-8.382-.07c-.725-.006-1.307-.555-1.3-1.226 0-.097.015-.194.04-.289l3.695-13.438c.247-.898 1.12-1.526 2.119-1.526z" transform="matrix(-1 0 0 1 627.554 0)"/>
                    <circle cx="315.883" cy="47.229" r="1" fill="#D8D8D8" transform="matrix(-1 0 0 1 631.766 0)"/>
                    <path fill="#A7F0F7" d="M312.212 33.99h6.483c.386 0 .699.27.699.602 0 .05-.008.1-.022.15l-3.256 10.921c-.16.538-.727.912-1.371.904l-6.597-.074c-.386-.005-.695-.278-.69-.61 0-.05.009-.1.024-.148l3.38-10.853c.165-.526.718-.892 1.35-.892z" transform="matrix(-1 0 0 1 626.852 0)"/>
                    <path fill="#EEFEFF" d="M312.737 33.99h6.203c.25 0 .454.18.454.402 0 .096-.039.188-.108.26l-10.727 11.183c-.08.084-.224.094-.319.022-.067-.05-.095-.13-.072-.205l3.256-10.768c.159-.527.698-.894 1.313-.894z" transform="matrix(-1 0 0 1 627.554 0)"/>
                    <g>
                        <use fill="#000" filter="url(#gy2fe5qutf)" xlink:href="#tu2mjv2brg"/>
                        <use fill="url(#rpbywtnnwh)" xlink:href="#tu2mjv2brg"/>
                        <use fill="#000" filter="url(#vun1nzxjhi)" xlink:href="#tu2mjv2brg"/>
                    </g>
                    <g>
                        <use fill="#000" filter="url(#fbu6w9ry5j)" xlink:href="#ew44mtxt6k"/>
                        <use fill="url(#489266gs2l)" xlink:href="#ew44mtxt6k"/>
                        <use fill="#000" filter="url(#0e5wsnc6xm)" xlink:href="#ew44mtxt6k"/>
                    </g>
                    <g>
                        <use fill="url(#2xh9gkb6ra)" xlink:href="#ohhffhbmen"/>
                        <use fill="#000" filter="url(#mt0c3r9voo)" xlink:href="#ohhffhbmen"/>
                    </g>
                    <ellipse cx="329.5" cy="204.84" stroke="url(#2kuoqyf1fp)" stroke-width="7" rx="17.5" ry="17.433"/>
                    <ellipse cx="186" cy="16.564" stroke="url(#9dn4j4cyhq)" stroke-width="7" rx="9.5" ry="9.464"/>
                    <g>
                        <use fill="#000" filter="url(#9gehzpimmr)" xlink:href="#fkpypizn8s"/>
                        <use fill="url(#2xh9gkb6ra)" xlink:href="#fkpypizn8s"/>
                        <use fill="#000" filter="url(#a2es88wyst)" xlink:href="#fkpypizn8s"/>
                    </g>
                    <g>
                        <use fill="url(#al71vqfe2u)" xlink:href="#xjokvpttjv"/>
                        <use fill="#000" filter="url(#dsh3gtyhlw)" xlink:href="#xjokvpttjv"/>
                    </g>
                    <g>
                        <use fill="url(#al71vqfe2u)" xlink:href="#tyapuiaosx"/>
                        <use fill="#000" filter="url(#da1hy5h66y)" xlink:href="#tyapuiaosx"/>
                    </g>
                </g>
            </g>
        </g>
    </g>
</svg>
