<svg xmlns="http://www.w3.org/2000/svg" xmlns:xlink="http://www.w3.org/1999/xlink" width="273" height="145" viewBox="0 0 273 145">
    <defs>
        <path id="wcginazyma" d="M0 0.393L145.613 0.393 145.613 141.661 0 141.661z"/>
    </defs>
    <g fill="none" fill-rule="evenodd">
        <g>
            <g>
                <path fill="#B3E7F2" d="M88 41.208c7.077-13.254 16.735-25.684 29.981-32.755 13.246-7.072 30.552-7.805 42.711 1.01 7.845 5.687 12.951 14.695 21.208 19.762 16.853 10.343 39.174.62 58.258 5.778 13.663 3.692 24.502 15.129 29.378 28.43 4.875 13.302 4.26 28.19.298 41.794-3.962 13.603-11.098 26.073-19.082 37.773" transform="translate(-71 -147) translate(71 147)"/>
                <g transform="translate(-71 -147) translate(71 147)">
                    <mask id="pvmkqm5nzb" fill="#fff">
                        <use xlink:href="#wcginazyma"/>
                    </mask>
                    <path fill="#B3E7F2" d="M19.766 141.661C10.044 128.98 1.58 114.558.172 98.671-1.236 82.784 6.036 65.29 20.63 58.683c7.772-3.52 17.359-4.055 23.11-10.335 5.446-5.943 5.448-14.87 8.036-22.487C56.77 11.155 72.229 1.491 87.804.494c15.574-.998 30.906 5.528 43.201 15.089 8.02 6.236 15.513 15.162 14.52 25.24" mask="url(#pvmkqm5nzb)"/>
                </g>
                <path fill="#B3E7F2" d="M253.982 143c.005-.478.018-.955.018-1.435C254 76.084 200.722 23 135 23 69.278 23 16 76.084 16 141.565c0 .48.013.957.018 1.435h237.964z" transform="translate(-71 -147) translate(71 147)"/>
                <path fill="#4DAEC4" d="M30.646 144c-1.026 0-1.937-.752-2.077-1.713l-4.551-31.459c-.068-.465.06-.911.358-1.255.315-.364.797-.573 1.322-.573h48.656c1.026 0 1.938.753 2.077 1.712l4.551 31.46c.068.465-.06.911-.358 1.255-.315.364-.797.573-1.322.573H30.646z" transform="translate(-71 -147) translate(71 147)"/>
                <path fill="#181E3D" d="M74.927 108H26.109c-.644 0-1.24.261-1.633.716-.378.436-.539 1-.454 1.586l4.567 31.628c.168 1.16 1.259 2.07 2.484 2.07h48.818c.644 0 1.24-.261 1.633-.716.378-.436.539-1 .454-1.586L77.41 110.07c-.167-1.161-1.258-2.07-2.484-2.07m0 .811c.82 0 1.573.616 1.682 1.375l4.567 31.628c.11.76-.466 1.375-1.285 1.375H31.073c-.82 0-1.572-.616-1.682-1.375l-4.567-31.628c-.11-.76.466-1.375 1.285-1.375h48.818" transform="translate(-71 -147) translate(71 147)"/>
                <g fill="#CECECE">
                    <path d="M.836 47.54c-.222 0-.402-.18-.402-.4V.806c0-.221.18-.4.402-.4h39.233c.221 0 .402.179.402.4v46.332c0 .222-.18.4-.402.4H.836z" transform="translate(-71 -147) translate(71 147) translate(32 92)"/>
                    <path d="M40.069.007H.836c-.444 0-.804.358-.804.8v46.332c0 .442.36.8.804.8h39.233c.443 0 .803-.358.803-.8V.807c0-.442-.36-.8-.803-.8zM.836 47.139h39.233V.807H.836v46.332z" transform="translate(-71 -147) translate(71 147) translate(32 92)"/>
                    <path d="M19.396 5.428H3.981c-.135 0-.245.11-.245.243 0 .134.11.244.245.244h15.415c.135 0 .244-.11.244-.244s-.11-.243-.244-.243M37.368 36.705H21.953c-.134 0-.244.11-.244.244s.11.244.244.244h15.415c.135 0 .245-.11.245-.244s-.11-.244-.245-.244M37.771 2.871H25.246c-.122 0-.222.1-.222.22v.047c0 .121.1.22.222.22H37.77c.121 0 .22-.099.22-.22v-.047c0-.12-.099-.22-.22-.22M37.644 9.251H3.877c-.152 0-.276-.123-.276-.274 0-.15.124-.273.276-.273h33.767c.151 0 .275.122.275.273 0 .151-.124.274-.275.274M37.644 11.169H3.877c-.152 0-.276-.123-.276-.274 0-.151.124-.274.276-.274h33.767c.151 0 .275.123.275.274 0 .15-.124.274-.275.274M37.644 13.27H3.877c-.152 0-.276-.124-.276-.275 0-.15.124-.274.276-.274h33.767c.151 0 .275.123.275.274 0 .15-.124.274-.275.274M37.644 15.095H3.877c-.152 0-.276-.123-.276-.274 0-.15.124-.274.276-.274h33.767c.151 0 .275.124.275.274 0 .15-.124.274-.275.274M37.644 17.104H3.877c-.152 0-.276-.123-.276-.274 0-.15.124-.274.276-.274h33.767c.151 0 .275.123.275.274 0 .15-.124.274-.275.274M37.644 23.313H3.877c-.152 0-.276-.123-.276-.274 0-.15.124-.274.276-.274h33.767c.151 0 .275.123.275.274 0 .15-.124.274-.275.274M37.644 25.23H3.877c-.152 0-.276-.123-.276-.274 0-.15.124-.273.276-.273h33.767c.151 0 .275.123.275.273 0 .151-.124.275-.275.275M37.644 27.33H3.877c-.152 0-.276-.123-.276-.273 0-.15.124-.274.276-.274h33.767c.151 0 .275.123.275.274 0 .15-.124.274-.275.274M37.644 29.157H3.877c-.152 0-.276-.123-.276-.274 0-.15.124-.274.276-.274h33.767c.151 0 .275.123.275.274 0 .15-.124.274-.275.274M37.644 31.166H3.877c-.152 0-.276-.124-.276-.274 0-.15.124-.274.276-.274h33.767c.151 0 .275.123.275.274 0 .15-.124.274-.275.274" transform="translate(-71 -147) translate(71 147) translate(32 92)"/>
                </g>
                <path fill="#EAE9F4" d="M32.402 139c-.222 0-.402-.178-.402-.399V92.4c0-.22.18-.399.402-.399h39.196c.222 0 .402.178.402.399V138.6c0 .22-.18.399-.402.399H32.402z" transform="translate(-71 -147) translate(71 147)"/>
                <path fill="#181E3D" d="M72.193 92H32.807c-.445 0-.807.359-.807.801V139.2c0 .442.362.801.807.801h39.386c.445 0 .807-.359.807-.801V92.8c0-.442-.362-.801-.807-.801zm-39.386 47.199h39.386V92.8H32.807V139.2z" transform="translate(-71 -147) translate(71 147)"/>
                <path fill="#181E3D" d="M51.754 96.755H36.246c-.136 0-.246.11-.246.245s.11.245.246.245h15.508c.135 0 .246-.11.246-.245s-.11-.245-.246-.245M69.754 128.755H54.246c-.135 0-.246.11-.246.245s.11.245.246.245h15.508c.135 0 .246-.11.246-.245s-.11-.245-.246-.245M69.779 94.755H57.22c-.121 0-.221.1-.221.221v.048c0 .121.1.221.221.221H69.78c.121 0 .221-.1.221-.221v-.048c0-.122-.1-.221-.221-.221M69.727 101H36.273c-.15 0-.273-.226-.273-.5 0-.275.123-.5.273-.5h33.454c.15 0 .273.225.273.5 0 .274-.123.5-.273.5M69.727 103H36.273c-.15 0-.273-.226-.273-.5 0-.275.123-.5.273-.5h33.454c.15 0 .273.225.273.5 0 .274-.123.5-.273.5M69.727 105H36.273c-.15 0-.273-.226-.273-.5 0-.275.123-.5.273-.5h33.454c.15 0 .273.225.273.5 0 .274-.123.5-.273.5M69.727 107H36.273c-.15 0-.273-.226-.273-.5 0-.276.123-.5.273-.5h33.454c.15 0 .273.224.273.5 0 .274-.123.5-.273.5M69.727 109H36.273c-.15 0-.273-.226-.273-.5 0-.275.123-.5.273-.5h33.454c.15 0 .273.225.273.5 0 .274-.123.5-.273.5M69.727 115H36.273c-.15 0-.273-.226-.273-.5 0-.275.123-.5.273-.5h33.454c.15 0 .273.225.273.5 0 .274-.123.5-.273.5M69.727 117H36.273c-.15 0-.273-.226-.273-.5 0-.275.123-.5.273-.5h33.454c.15 0 .273.225.273.5 0 .274-.123.5-.273.5M69.727 119H36.273c-.15 0-.273-.225-.273-.5 0-.276.123-.5.273-.5h33.454c.15 0 .273.224.273.5 0 .275-.123.5-.273.5M69.727 121H36.273c-.15 0-.273-.225-.273-.5 0-.276.123-.5.273-.5h33.454c.15 0 .273.224.273.5 0 .275-.123.5-.273.5M69.727 123H36.273c-.15 0-.273-.226-.273-.5 0-.275.123-.5.273-.5h33.454c.15 0 .273.225.273.5 0 .274-.123.5-.273.5" transform="translate(-71 -147) translate(71 147)"/>
                <g fill="#CECECE">
                    <path d="M.936 48.327c-.222 0-.402-.182-.402-.405V1.015C.534.79.714.61.936.61H40.17c.222 0 .402.18.402.405v46.907c0 .223-.18.405-.402.405H.936z" transform="translate(-71 -147) translate(71 147) translate(34 91)"/>
                    <path d="M40.17.205H.935c-.443 0-.804.363-.804.81v46.907c0 .447.36.81.804.81H40.17c.444 0 .804-.363.804-.81V1.015c0-.447-.36-.81-.804-.81zM.935 47.922H40.17V1.015H.936v46.907z" transform="translate(-71 -147) translate(71 147) translate(34 91)"/>
                    <path d="M19.497 5.693H4.082c-.135 0-.245.111-.245.247 0 .135.11.246.245.246h15.415c.134 0 .244-.111.244-.246 0-.136-.11-.247-.244-.247M37.47 37.359H22.053c-.135 0-.244.11-.244.246 0 .135.11.246.244.246h15.415c.135 0 .245-.11.245-.246s-.11-.246-.245-.246M37.872 3.105H25.346c-.121 0-.22.1-.22.223v.047c0 .123.099.223.22.223h12.526c.12 0 .22-.1.22-.223v-.047c0-.123-.1-.223-.22-.223M37.745 9.564H3.977c-.151 0-.275-.125-.275-.277 0-.153.124-.277.275-.277h33.768c.15 0 .275.124.275.277 0 .152-.124.277-.275.277M37.745 11.505H3.977c-.151 0-.275-.125-.275-.277 0-.153.124-.277.275-.277h33.768c.15 0 .275.124.275.277 0 .152-.124.277-.275.277M37.745 13.631H3.977c-.151 0-.275-.124-.275-.277 0-.153.124-.277.275-.277h33.768c.15 0 .275.124.275.277 0 .153-.124.277-.275.277M37.745 15.48H3.977c-.151 0-.275-.125-.275-.277 0-.153.124-.277.275-.277h33.768c.15 0 .275.124.275.277 0 .152-.124.277-.275.277M37.745 17.514H3.977c-.151 0-.275-.125-.275-.277 0-.153.124-.278.275-.278h33.768c.15 0 .275.125.275.278 0 .152-.124.277-.275.277M37.745 23.8H3.977c-.151 0-.275-.125-.275-.277 0-.153.124-.277.275-.277h33.768c.15 0 .275.124.275.277 0 .152-.124.277-.275.277M37.745 25.741H3.977c-.151 0-.275-.124-.275-.277 0-.153.124-.277.275-.277h33.768c.15 0 .275.124.275.277 0 .153-.124.277-.275.277M37.745 27.868H3.977c-.151 0-.275-.125-.275-.278 0-.152.124-.277.275-.277h33.768c.15 0 .275.125.275.277 0 .153-.124.278-.275.278M37.745 29.717H3.977c-.151 0-.275-.125-.275-.278 0-.152.124-.277.275-.277h33.768c.15 0 .275.125.275.277 0 .153-.124.278-.275.278M37.745 31.75H3.977c-.151 0-.275-.125-.275-.277 0-.153.124-.277.275-.277h33.768c.15 0 .275.124.275.277 0 .152-.124.277-.275.277" transform="translate(-71 -147) translate(71 147) translate(34 91)"/>
                </g>
                <path fill="#EAE9F4" d="M35.402 138c-.222 0-.402-.178-.402-.399V91.4c0-.22.18-.399.402-.399h39.196c.222 0 .402.178.402.399V137.6c0 .22-.18.399-.402.399H35.402z" transform="translate(-71 -147) translate(71 147)"/>
                <path fill="#181E3D" d="M74.193 91H34.807c-.445 0-.807.359-.807.801V138.2c0 .442.362.801.807.801h39.386c.446 0 .807-.359.807-.801V91.8c0-.442-.361-.801-.807-.801zm-39.386 47.199h39.386V91.8H34.807V138.2z" transform="translate(-71 -147) translate(71 147)"/>
                <path fill="#181E3D" d="M53.754 95.755H38.246c-.135 0-.246.11-.246.245s.11.245.246.245h15.508c.135 0 .246-.11.246-.245s-.11-.245-.246-.245M71.754 127.755H56.246c-.136 0-.246.11-.246.245s.11.245.246.245h15.508c.136 0 .246-.11.246-.245s-.11-.245-.246-.245M71.778 93.755H59.222c-.122 0-.222.1-.222.221v.048c0 .122.1.221.222.221h12.556c.122 0 .222-.1.222-.221v-.048c0-.122-.1-.221-.222-.221M71.727 100H38.272c-.15 0-.272-.225-.272-.5 0-.276.123-.5.272-.5h33.455c.15 0 .273.224.273.5 0 .275-.123.5-.273.5M71.727 102H38.272c-.15 0-.272-.225-.272-.5 0-.276.123-.5.272-.5h33.455c.15 0 .273.224.273.5 0 .275-.123.5-.273.5M71.727 104H38.272c-.15 0-.272-.226-.272-.5 0-.275.123-.5.272-.5h33.455c.15 0 .273.225.273.5 0 .274-.123.5-.273.5M71.727 106H38.272c-.15 0-.272-.226-.272-.5 0-.275.123-.5.272-.5h33.455c.15 0 .273.225.273.5 0 .274-.123.5-.273.5M71.727 108H38.272c-.15 0-.272-.225-.272-.5 0-.276.123-.5.272-.5h33.455c.15 0 .273.224.273.5 0 .275-.123.5-.273.5M71.727 114H38.272c-.15 0-.272-.226-.272-.5 0-.275.123-.5.272-.5h33.455c.15 0 .273.225.273.5 0 .274-.123.5-.273.5M71.727 116H38.272c-.15 0-.272-.226-.272-.5 0-.275.123-.5.272-.5h33.455c.15 0 .273.225.273.5 0 .274-.123.5-.273.5M71.727 118H38.272c-.15 0-.272-.226-.272-.5 0-.275.123-.5.272-.5h33.455c.15 0 .273.225.273.5 0 .274-.123.5-.273.5M71.727 120H38.272c-.15 0-.272-.226-.272-.5 0-.275.123-.5.272-.5h33.455c.15 0 .273.225.273.5 0 .274-.123.5-.273.5M71.727 122H38.272c-.15 0-.272-.226-.272-.5 0-.275.123-.5.272-.5h33.455c.15 0 .273.225.273.5 0 .274-.123.5-.273.5" transform="translate(-71 -147) translate(71 147)"/>
                <g fill="#CECECE">
                    <path d="M1.203 48.49c-.225 0-.408-.182-.408-.405V1.178c0-.224.183-.405.408-.405h39.8c.224 0 .407.18.407.405v46.907c0 .223-.183.404-.408.404h-39.8z" transform="translate(-71 -147) translate(71 147) translate(36 90)"/>
                    <path d="M41.002.368h-39.8c-.45 0-.815.363-.815.81v46.906c0 .448.365.81.815.81h39.8c.45 0 .816-.362.816-.81V1.178c0-.447-.365-.81-.816-.81zm-39.8 47.716h39.8V1.178h-39.8v46.906z" transform="translate(-71 -147) translate(71 147) translate(36 90)"/>
                    <path d="M20.031 5.856H4.394c-.137 0-.249.111-.249.246 0 .136.112.247.249.247H20.03c.137 0 .248-.111.248-.247 0-.135-.111-.246-.248-.246M38.263 37.521H22.625c-.136 0-.247.111-.247.247 0 .135.11.246.247.246h15.638c.136 0 .248-.111.248-.246 0-.136-.112-.247-.248-.247M38.671 3.268H25.965c-.123 0-.224.1-.224.223v.047c0 .123.1.223.224.223h12.706c.124 0 .225-.1.225-.223v-.047c0-.123-.101-.223-.225-.223M38.542 9.727H4.288c-.154 0-.28-.125-.28-.277 0-.153.126-.278.28-.278h34.254c.154 0 .28.125.28.278 0 .152-.126.277-.28.277M38.542 11.668H4.288c-.154 0-.28-.125-.28-.278 0-.152.126-.277.28-.277h34.254c.154 0 .28.125.28.277 0 .153-.126.278-.28.278M38.542 13.794H4.288c-.154 0-.28-.125-.28-.277 0-.153.126-.277.28-.277h34.254c.154 0 .28.124.28.277 0 .152-.126.277-.28.277M38.542 15.643H4.288c-.154 0-.28-.125-.28-.277 0-.153.126-.277.28-.277h34.254c.154 0 .28.124.28.277 0 .152-.126.277-.28.277M38.542 17.677H4.288c-.154 0-.28-.125-.28-.278 0-.152.126-.277.28-.277h34.254c.154 0 .28.125.28.277 0 .153-.126.278-.28.278M38.542 23.963H4.288c-.154 0-.28-.125-.28-.277 0-.153.126-.277.28-.277h34.254c.154 0 .28.124.28.277 0 .152-.126.277-.28.277M38.542 25.904H4.288c-.154 0-.28-.125-.28-.277 0-.153.126-.277.28-.277h34.254c.154 0 .28.124.28.277 0 .152-.126.277-.28.277M38.542 28.03H4.288c-.154 0-.28-.124-.28-.277 0-.153.126-.277.28-.277h34.254c.154 0 .28.124.28.277 0 .153-.126.277-.28.277M38.542 29.88H4.288c-.154 0-.28-.126-.28-.278 0-.153.126-.277.28-.277h34.254c.154 0 .28.124.28.277 0 .152-.126.277-.28.277M38.542 31.913H4.288c-.154 0-.28-.125-.28-.277 0-.153.126-.277.28-.277h34.254c.154 0 .28.124.28.277 0 .152-.126.277-.28.277" transform="translate(-71 -147) translate(71 147) translate(36 90)"/>
                </g>
                <path fill="#EAE9F4" d="M37.402 138c-.222 0-.402-.178-.402-.399V91.4c0-.22.18-.399.402-.399h39.196c.222 0 .402.178.402.399V137.6c0 .22-.18.399-.402.399H37.402z" transform="translate(-71 -147) translate(71 147)"/>
                <path fill="#181E3D" d="M77.193 90H37.807c-.445 0-.807.359-.807.801V137.2c0 .442.362.801.807.801h39.386c.445 0 .807-.359.807-.801V90.8c0-.442-.362-.801-.807-.801zm-39.386 47.199h39.386V90.8H37.807V137.2z" transform="translate(-71 -147) translate(71 147)"/>
                <path fill="#181E3D" d="M55.754 95.755H40.246c-.135 0-.246.11-.246.245s.11.245.246.245h15.508c.135 0 .246-.11.246-.245s-.11-.245-.246-.245M73.754 126.755H58.246c-.136 0-.246.11-.246.245s.11.245.246.245h15.508c.135 0 .246-.11.246-.245s-.11-.245-.246-.245M74.778 92.755H62.222c-.122 0-.222.1-.222.221v.048c0 .122.1.221.222.221h12.556c.122 0 .222-.1.222-.221v-.048c0-.121-.1-.221-.222-.221M74.727 99H41.272c-.15 0-.272-.225-.272-.5 0-.276.123-.5.272-.5h33.455c.15 0 .273.224.273.5 0 .275-.123.5-.273.5M74.727 101H41.272c-.15 0-.272-.226-.272-.5 0-.275.123-.5.272-.5h33.455c.15 0 .273.225.273.5 0 .274-.123.5-.273.5M74.727 104H41.272c-.15 0-.272-.225-.272-.5 0-.276.123-.5.272-.5h33.455c.15 0 .273.224.273.5 0 .275-.123.5-.273.5M74.727 105H41.272c-.15 0-.272-.225-.272-.5 0-.276.123-.5.272-.5h33.455c.15 0 .273.224.273.5 0 .275-.123.5-.273.5M74.727 107H41.272c-.15 0-.272-.225-.272-.5 0-.276.123-.5.272-.5h33.455c.15 0 .273.224.273.5 0 .275-.123.5-.273.5M74.727 114H41.272c-.15 0-.272-.225-.272-.5 0-.276.123-.5.272-.5h33.455c.15 0 .273.224.273.5 0 .275-.123.5-.273.5M74.727 116H41.272c-.15 0-.272-.225-.272-.5 0-.276.123-.5.272-.5h33.455c.15 0 .273.224.273.5 0 .275-.123.5-.273.5M74.727 118H41.272c-.15 0-.272-.226-.272-.5 0-.275.123-.5.272-.5h33.455c.15 0 .273.225.273.5 0 .274-.123.5-.273.5M74.727 120H41.272c-.15 0-.272-.226-.272-.5 0-.275.123-.5.272-.5h33.455c.15 0 .273.225.273.5 0 .274-.123.5-.273.5M74.727 122H41.272c-.15 0-.272-.225-.272-.5 0-.276.123-.5.272-.5h33.455c.15 0 .273.224.273.5 0 .275-.123.5-.273.5" transform="translate(-71 -147) translate(71 147)"/>
                <g fill="#CECECE">
                    <path d="M11.298 11.829C8.116 14.183 4.438 16.2.278 17.82c-.109.042-.173.153-.141.245.032.093.148.134.257.091 4.169-1.622 7.855-3.642 11.045-5.998.083-.062.12-.187.08-.278-.038-.09-.137-.113-.22-.051M37.279 24.135c-2.475 3.277-5.466 6.304-8.967 9.019-.091.07-.09.212.003.313s.245.126.337.054c3.509-2.72 6.506-5.753 8.988-9.035.065-.087.036-.236-.063-.333-.1-.096-.233-.104-.298-.018M19.72.403c-1.584 2.486-3.501 4.798-5.748 6.904-.065.06-.092.176-.059.256l.013.031c.033.08.114.096.18.034 2.253-2.106 4.175-4.42 5.766-6.907.046-.072.053-.196.015-.275l-.015-.031c-.038-.08-.106-.084-.152-.012" transform="translate(-71 -147) translate(71 147) translate(172 54)"/>
                    <path d="M21.9 4.707C17.4 11.45 10.46 16.938 1.189 20.522c-.125.048-.263 0-.305-.106-.042-.106.026-.232.15-.28 9.252-3.577 16.173-9.06 20.656-15.797.06-.09.156-.082.215.019.058.101.057.258-.003.35" transform="translate(-71 -147) translate(71 147) translate(172 54)"/>
                    <path d="M22.673 6.002C18.107 12.762 11.1 18.275 1.758 21.885c-.126.05-.267 0-.314-.107-.045-.108.02-.235.146-.284 9.323-3.603 16.31-9.108 20.857-15.863.061-.091.162-.082.224.02.061.102.063.26.002.35" transform="translate(-71 -147) translate(71 147) translate(172 54)"/>
                    <path d="M23.572 7.43c-4.635 6.785-11.714 12.324-21.135 15.967-.127.049-.272 0-.323-.11-.05-.109.014-.237.14-.286 9.4-3.634 16.461-9.166 21.078-15.944.062-.091.166-.082.232.02.066.103.07.263.008.354" transform="translate(-71 -147) translate(71 147) translate(172 54)"/>
                    <path d="M24.4 8.682c-4.695 6.806-11.837 12.371-21.326 16.044-.127.05-.277-.001-.33-.111-.054-.11.007-.24.135-.29 9.468-3.663 16.591-9.22 21.268-16.019.063-.091.17-.082.24.022.07.103.076.263.013.354" transform="translate(-71 -147) translate(71 147) translate(172 54)"/>
                    <path d="M25.36 10.069C20.599 16.9 13.388 22.496 3.825 26.202c-.128.05-.282 0-.34-.112-.057-.11.002-.242.13-.292 9.542-3.697 16.734-9.284 21.478-16.108.064-.092.175-.082.249.022.073.104.082.265.018.357M28.651 14.406C23.69 21.332 16.268 27.035 6.478 30.862c-.132.05-.297 0-.367-.116-.07-.115-.019-.25.113-.301 9.77-3.815 17.173-9.508 22.117-16.424.067-.093.19-.083.276.023.085.106.101.269.034.362" transform="translate(-71 -147) translate(71 147) translate(172 54)"/>
                    <path d="M29.767 15.76c-5.024 6.959-12.51 12.699-22.369 16.567-.132.051-.302 0-.375-.116-.074-.116-.025-.252.107-.304 9.84-3.856 17.307-9.585 22.313-16.535.068-.093.195-.083.284.024.089.106.108.27.04.364" transform="translate(-71 -147) translate(71 147) translate(172 54)"/>
                    <path d="M31.042 17.249c-5.09 6.998-12.646 12.78-22.58 16.696-.134.052-.308 0-.386-.117-.077-.116-.031-.254.102-.307 9.916-3.902 17.453-9.674 22.526-16.661.068-.094.2-.084.293.023.092.107.114.272.045.366" transform="translate(-71 -147) translate(71 147) translate(172 54)"/>
                    <path d="M32.196 18.549c-5.147 7.033-12.764 12.855-22.764 16.813-.135.053-.312 0-.393-.117-.081-.117-.037-.256.097-.309 9.98-3.945 17.58-9.755 22.71-16.778.068-.094.203-.084.3.023.096.107.12.273.05.368" transform="translate(-71 -147) translate(71 147) translate(172 54)"/>
                    <path d="M33.514 19.983c-5.21 7.075-12.893 12.942-22.965 16.95-.135.053-.316 0-.401-.118-.086-.118-.044-.258.092-.312 10.052-3.994 17.717-9.849 22.91-16.912.07-.095.208-.085.308.023.1.108.126.274.056.369" transform="translate(-71 -147) translate(71 147) translate(172 54)"/>
                </g>
                <path fill="#EAE9F4" d="M194.24 104c-.044 0-.088-.007-.13-.021-2.183-.74-4.398-1.596-6.77-2.619-.058-.024-.108-.061-.148-.108-9.53-11.11-15.816-22.079-18.18-31.72-.05-.205.064-.414.263-.48 10.425-3.51 18.356-9.68 22.935-17.845.071-.129.206-.207.352-.207h.019c.152.008.287.1.35.24 4.626 10.377 13.935 21.512 26.922 32.2.162.134.195.37.075.542-5.906 8.524-14.495 15.248-25.529 19.985-.05.022-.105.033-.16.033" transform="translate(-71 -147) translate(71 147)"/>
                <path fill="#181E3D" d="M192.054 50c-.293 0-.563.158-.707.414-4.545 8.105-12.427 14.234-22.794 17.723-.4.134-.63.553-.53.962 2.388 9.739 8.727 20.805 18.334 32.002.08.094.181.168.295.217 2.391 1.031 4.624 1.894 6.826 2.639.085.029.172.043.26.043.11 0 .218-.022.32-.066 11.146-4.784 19.825-11.58 25.797-20.197.241-.347.175-.82-.151-1.09-12.986-10.685-22.29-21.808-26.909-32.166-.125-.28-.397-.466-.703-.48l-.038-.001m0 .811c4.477 10.042 13.591 21.318 27.134 32.463-5.67 8.185-14.188 15.08-25.45 19.915-2.285-.774-4.532-1.654-6.765-2.616-9.804-11.428-15.868-22.314-18.162-31.667 10.926-3.677 18.734-10.053 23.243-18.095" transform="translate(-71 -147) translate(71 147)"/>
                <path fill="#181E3D" d="M183.771 65.032c-3.069 2.215-6.615 4.113-10.628 5.636-.104.04-.166.143-.135.23.03.087.142.126.248.086 4.02-1.526 7.574-3.426 10.651-5.642.08-.058.115-.176.078-.26-.038-.086-.133-.107-.214-.05M209.623 77.062c-2.362 3.455-5.216 6.646-8.558 9.507-.087.075-.087.223.002.33.09.107.235.133.322.058 3.349-2.868 6.21-6.064 8.578-9.525.062-.09.034-.248-.06-.35-.095-.101-.223-.11-.284-.02M191.81 54.049c-1.582 2.38-3.495 4.592-5.737 6.607-.065.059-.092.169-.06.246l.014.03c.033.076.114.09.18.032 2.248-2.016 4.166-4.23 5.754-6.61.046-.07.052-.189.014-.264l-.015-.03c-.037-.075-.105-.08-.15-.011M193.954 58.424c-4.485 6.632-11.4 12.032-20.638 15.558-.125.047-.262 0-.303-.105-.043-.105.025-.228.15-.276 9.218-3.518 16.113-8.912 20.58-15.54.06-.088.156-.08.214.02.058.099.058.253-.003.343" transform="translate(-71 -147) translate(71 147)"/>
                <path fill="#181E3D" d="M194.955 59.425c-4.503 6.621-11.414 12.02-20.632 15.557-.124.047-.263 0-.309-.106-.045-.106.02-.23.144-.278 9.197-3.529 16.09-8.92 20.575-15.537.06-.089.159-.08.22.02s.063.255.002.344" transform="translate(-71 -147) translate(71 147)"/>
                <path fill="#181E3D" d="M195.957 61.425c-4.523 6.61-11.432 12.007-20.625 15.557-.124.047-.266 0-.315-.107-.05-.106.013-.232.136-.28 9.174-3.54 16.064-8.93 20.57-15.534.06-.089.161-.08.226.02s.068.255.008.344" transform="translate(-71 -147) translate(71 147)"/>
                <path fill="#181E3D" d="M196.955 61.453c-4.755 7.01-11.99 12.744-21.6 16.527-.13.051-.281 0-.335-.114-.055-.114.007-.247.136-.298 9.59-3.774 16.806-9.5 21.544-16.503.063-.095.172-.085.243.022.07.107.077.271.012.366" transform="translate(-71 -147) translate(71 147)"/>
                <path fill="#181E3D" d="M197.957 63.453c-4.774 6.998-12.005 12.73-21.595 16.528-.128.05-.283-.002-.34-.115-.058-.115.002-.249.13-.3 9.569-3.787 16.78-9.51 21.537-16.502.064-.094.176-.084.25.023.073.107.082.271.018.366M200.958 67.451c-5.047 6.957-12.596 12.685-22.553 16.53-.134.05-.302-.002-.373-.117-.071-.115-.019-.25.115-.302 9.937-3.833 17.466-9.55 22.495-16.498.068-.094.194-.083.28.023.088.106.104.27.036.364" transform="translate(-71 -147) translate(71 147)"/>
                <path fill="#181E3D" d="M201.959 69.45c-5.063 6.944-12.608 12.67-22.546 16.53-.134.052-.304 0-.379-.116-.074-.115-.024-.251.11-.303 9.917-3.847 17.443-9.563 22.489-16.497.068-.093.196-.083.286.023.09.106.108.27.04.363" transform="translate(-71 -147) translate(71 147)"/>
                <path fill="#181E3D" d="M203.96 70.449c-5.08 6.929-12.622 12.654-22.538 16.53-.133.053-.307 0-.384-.115-.078-.115-.031-.251.101-.304 9.897-3.863 17.42-9.578 22.483-16.496.068-.093.2-.083.292.023.093.105.114.269.046.362" transform="translate(-71 -147) translate(71 147)"/>
                <path fill="#181E3D" d="M204.96 72.448c-5.094 6.915-12.633 12.64-22.53 16.532-.134.052-.31 0-.39-.115-.08-.116-.036-.253.096-.305 9.879-3.879 17.4-9.591 22.478-16.496.068-.093.201-.083.296.022.096.106.12.269.05.362" transform="translate(-71 -147) translate(71 147)"/>
                <path fill="#181E3D" d="M205.961 73.446c-5.11 6.9-12.645 12.624-22.523 16.533-.134.053-.311.001-.395-.114-.083-.115-.042-.252.09-.304 9.86-3.896 17.378-9.608 22.47-16.498.07-.092.205-.082.303.023.098.105.124.267.055.36" transform="translate(-71 -147) translate(71 147)"/>
                <path fill="#CFCFE8" d="M194.572 104c-.057 0-.115-.011-.17-.035-2.493-1.071-4.82-1.968-7.11-2.741-.17-.057-.284-.211-.292-.388-.007-.177.096-.34.26-.41 1.298-.556 2.397-1 3.46-1.399.049-.018.1-.027.15-.027.118 0 .232.048.315.137 1.26 1.361 2.509 2.76 3.712 4.158.13.15.138.371.02.531-.083.112-.212.174-.345.174" transform="translate(-71 -147) translate(71 147)"/>
                <path fill="#181E3D" d="M190.882 98c-.09 0-.183.018-.272.056-.962.41-1.96.868-3.141 1.442-.295.143-.481.476-.468.839.012.362.22.678.525.794 2.06.79 4.152 1.705 6.394 2.798.099.048.203.071.306.071.24 0 .474-.127.623-.357.214-.328.2-.78-.036-1.089-1.094-1.443-2.226-2.88-3.362-4.272-.15-.183-.357-.282-.569-.282m0 .876c1.163 1.423 2.276 2.839 3.344 4.248-2.13-1.038-4.273-1.987-6.452-2.822 1.015-.493 2.046-.974 3.109-1.426" transform="translate(-71 -147) translate(71 147)"/>
                <path fill="#EAE9F4" d="M150.04 85c-.075 0-.15-.021-.215-.062-7.85-4.953-16.925-9.19-28.559-13.332-.156-.056-.261-.2-.266-.365-.005-.164.093-.314.245-.378 11.16-4.69 20.915-17.003 28.21-35.609.046-.117.144-.205.266-.24.036-.01.072-.014.109-.014.087 0 .173.028.244.082 7.561 5.728 13.739 13.674 18.886 24.291.042.087.051.186.026.28-3.718 13.453-10.044 21.973-18.801 25.32-.047.018-.096.027-.144.027" transform="translate(-71 -147) translate(71 147)"/>
                <path fill="#181E3D" d="M150.35 34c-.074 0-.147.01-.22.03-.244.068-.441.246-.533.48-9.202 23.469-20.362 32.273-28.104 35.526-.307.13-.502.431-.493.761.01.33.222.621.535.732 11.652 4.15 20.738 8.39 28.592 13.346.132.083.282.125.434.125.098 0 .196-.018.29-.054 8.919-3.409 15.352-12.052 19.12-25.69.052-.186.034-.385-.051-.56-5.196-10.717-11.438-18.742-19.081-24.532-.143-.107-.315-.164-.49-.164m0 .802c7.288 5.52 13.543 13.31 18.843 24.242-3.983 14.414-10.65 22.103-18.631 25.154-8.889-5.608-18.594-9.806-28.754-13.423 10.292-4.325 20.551-15.592 28.542-35.973" transform="translate(-71 -147) translate(71 147)"/>
                <path fill="#181E3D" d="M157.94 49.456c-2.713-2.846-5.584-5.309-8.613-7.439-.08-.055-.204.028-.276.185-.073.156-.067.329.013.384 3.046 2.114 5.933 4.557 8.662 7.38.071.075.178.021.236-.119.058-.14.048-.317-.023-.391M153.92 80.762c-3.379-2.502-6.9-4.727-10.551-6.727-.096-.052-.239-.045-.318.015-.079.06-.065.15.031.203 3.663 1.99 7.199 4.201 10.592 6.688.089.065.217.079.285.03.067-.049.05-.143-.038-.209M166.949 59.46c-1.805-3.454-3.709-6.583-5.714-9.418-.059-.083-.144-.039-.189.097l-.018.053c-.045.135-.035.312.024.394 2.02 2.813 3.937 5.919 5.755 9.347.053.1.125.087.16-.03l.014-.046c.035-.117.02-.296-.032-.397M164.757 64.926c-5.175-7.967-11.07-13.885-17.686-18.306-.089-.059-.095-.242-.014-.408.08-.165.22-.253.308-.193 6.578 4.458 12.434 10.428 17.57 18.463.07.109.086.297.037.42-.05.12-.146.131-.215.024" transform="translate(-71 -147) translate(71 147)"/>
                <path fill="#181E3D" d="M164.74 65.926c-5.48-7.972-11.705-13.887-18.665-18.313-.094-.06-.1-.24-.015-.404.085-.164.231-.25.324-.19 6.922 4.462 13.108 10.43 18.548 18.468.073.109.09.296.038.416-.053.12-.156.13-.23.023M163.737 67.929c-5.498-7.555-11.727-13.156-18.662-17.356-.094-.057-.1-.227-.015-.38.084-.152.23-.231.322-.174 6.9 4.233 13.09 9.883 18.55 17.501.073.103.09.28.037.391-.054.112-.158.119-.232.018" transform="translate(-71 -147) translate(71 147)"/>
                <path fill="#181E3D" d="M163.721 68.932c-5.806-7.135-12.365-12.422-19.643-16.399-.097-.053-.105-.212-.016-.354.09-.142.242-.215.34-.161 7.24 4.007 13.76 9.34 19.527 16.534.077.097.094.263.038.366-.057.104-.168.11-.246.014" transform="translate(-71 -147) translate(71 147)"/>
                <path fill="#181E3D" d="M162.719 70.93c-5.825-7.133-12.389-12.417-19.64-16.406-.098-.054-.106-.21-.017-.35.088-.139.24-.21.337-.156 7.218 4.018 13.743 9.347 19.53 16.54.077.098.094.261.037.363-.057.102-.169.105-.247.01M159.698 73.935c-6.18-6.276-13.081-10.933-20.616-14.503-.101-.048-.11-.18-.019-.294.091-.114.248-.169.349-.12 7.504 3.592 14.369 8.286 20.513 14.614.083.085.1.224.038.307-.062.083-.181.081-.265-.004" transform="translate(-71 -147) translate(71 147)"/>
                <path fill="#181E3D" d="M159.682 74.934c-6.496-6.266-13.728-10.922-21.596-14.513-.106-.048-.115-.177-.02-.288.094-.111.258-.164.363-.115 7.837 3.612 15.034 8.305 21.493 14.622.086.085.104.221.039.302-.066.08-.191.076-.279-.008M157.68 76.933c-6.52-6.252-13.754-10.908-21.594-14.525-.106-.049-.115-.175-.021-.282.094-.107.256-.156.361-.107 7.811 3.637 15.012 8.327 21.496 14.63.086.085.104.219.038.296-.066.078-.191.072-.28-.012" transform="translate(-71 -147) translate(71 147)"/>
                <path fill="#181E3D" d="M156.679 76.936c-6.54-5.822-13.777-10.166-21.593-13.567-.105-.045-.115-.16-.022-.257s.255-.14.36-.093c7.788 3.417 14.992 7.793 21.497 13.66.088.08.105.203.039.273-.067.07-.193.062-.281-.016" transform="translate(-71 -147) translate(71 147)"/>
                <path fill="#181E3D" d="M156.663 77.935c-6.861-5.804-14.43-10.149-22.573-13.58-.11-.045-.12-.158-.024-.25.097-.093.265-.132.375-.085 8.115 3.445 15.651 7.82 22.476 13.67.092.078.11.198.04.265s-.202.058-.294-.02" transform="translate(-71 -147) translate(71 147)"/>
                <g fill="#CECECE">
                    <path d="M25.174 5.549c-3.63-1.601-7.17-3.412-10.61-5.413-.09-.053-.221-.029-.292.054-.071.082-.056.192.035.245 3.44 2.012 6.983 3.833 10.616 5.445.094.041.23.002.298-.09.07-.09.048-.2-.047-.241M21.365 32.284c-3.997-1.797-7.891-3.825-11.669-6.066-.099-.058-.244-.043-.323.034-.079.077-.063.189.036.248 3.779 2.252 7.674 4.291 11.673 6.1.105.047.254.015.332-.072.078-.087.056-.197-.05-.244M39.76 8.413c-3.09-.832-6.132-1.816-9.122-2.942-.087-.033-.208.01-.269.097l-.024.033c-.06.086-.04.183.048.216 2.992 1.135 6.038 2.127 9.13 2.967.09.025.211-.031.27-.123l.023-.036c.059-.093.033-.188-.057-.212M36.505 13.193c-8.43-2.55-16.495-6.202-24.052-10.774-.102-.062-.118-.186-.037-.277.08-.09.23-.114.332-.053C20.3 6.635 28.36 10.261 36.78 12.785c.113.034.144.154.068.266-.076.112-.23.176-.344.142M35.53 14.614c-8.458-2.642-16.544-6.385-24.113-11.05-.102-.062-.119-.187-.037-.276.082-.09.232-.112.334-.05 7.566 4.639 15.646 8.355 24.096 10.97.114.036.144.156.067.267-.076.112-.232.174-.346.139M34.451 16.156c-8.49-2.742-16.597-6.586-24.179-11.352-.102-.064-.118-.189-.035-.277.082-.088.233-.108.335-.045 7.579 4.74 15.68 8.557 24.162 11.273.114.036.144.156.067.267-.078.11-.235.171-.35.134" transform="translate(-71 -147) translate(71 147) translate(80 56)"/>
                    <path d="M33.503 17.486C24.986 14.656 16.86 10.723 9.269 5.87c-.102-.066-.117-.19-.034-.278.083-.087.234-.106.336-.04 7.589 4.828 15.709 8.733 24.217 11.537.115.038.144.158.066.268-.079.11-.237.168-.351.13M32.448 18.937c-8.544-2.928-16.688-6.958-24.29-11.911-.102-.067-.117-.192-.034-.279.084-.086.236-.102.338-.036 7.6 4.927 15.738 8.93 24.275 11.832.115.039.144.16.065.268-.08.108-.24.165-.354.126M29.116 23.338c-8.625-3.235-16.82-7.573-24.444-12.834-.103-.071-.117-.197-.031-.279.085-.083.239-.093.342-.022 7.623 5.234 15.814 9.545 24.432 12.752.116.043.143.165.061.27-.082.105-.244.157-.36.113" transform="translate(-71 -147) translate(71 147) translate(80 56)"/>
                    <path d="M28.066 24.671c-8.647-3.33-16.856-7.765-24.486-13.124-.103-.072-.116-.197-.03-.278.085-.082.24-.09.342-.018 7.629 5.33 15.834 9.737 24.475 13.04.116.045.144.166.06.271-.082.105-.245.154-.361.109M26.904 26.117C18.233 22.68 10.01 18.139 2.376 12.674c-.103-.073-.116-.2-.03-.28.087-.08.242-.085.344-.012 7.634 5.437 15.853 9.95 24.518 13.359.117.046.144.168.06.271-.083.104-.247.15-.364.105" transform="translate(-71 -147) translate(71 147) translate(80 56)"/>
                    <path d="M25.884 27.361c-8.69-3.53-16.925-8.163-24.562-13.722-.103-.074-.115-.2-.028-.279.087-.08.242-.083.345-.009 7.636 5.531 15.867 10.136 24.552 13.638.117.047.144.17.06.272-.085.103-.25.148-.367.1M24.753 28.717C16.04 25.085 7.796 20.348.157 14.686c-.103-.076-.116-.202-.028-.28.088-.078.243-.08.346-.003 7.64 5.633 15.881 10.341 24.587 13.945.117.049.144.171.059.273-.085.102-.251.145-.368.096" transform="translate(-71 -147) translate(71 147) translate(80 56)"/>
                </g>
                <path fill="#EAE9F4" d="M97.292 96c-.046 0-.093-.008-.138-.024C84.786 91.483 75.28 85.084 68.092 76.41c-.073-.088-.105-.203-.087-.316.017-.113.082-.214.179-.276 12.638-8.148 17.565-12.756 26.36-24.655.078-.106.2-.163.324-.163.07 0 .14.018.204.056 8.808 5.167 18.1 8.947 27.62 11.231.125.03.228.118.277.236.05.118.04.253-.027.362-7.395 12.128-15.927 23.228-25.36 32.992-.077.08-.182.123-.29.123" transform="translate(-71 -147) translate(71 147)"/>
                <path fill="#181E3D" d="M95.366 51c-.25 0-.494.115-.651.328C85.925 63.23 81 67.84 68.369 75.991c-.194.125-.324.326-.36.553-.035.227.029.458.176.635 7.26 8.768 16.856 15.235 29.336 19.772.09.033.184.049.277.049.216 0 .428-.086.583-.247 9.486-9.828 18.066-21 25.502-33.205.134-.22.154-.49.055-.727-.1-.237-.306-.413-.557-.473-9.513-2.286-18.8-6.066-27.605-11.237-.128-.075-.27-.111-.41-.111m0 .805c8.692 5.104 18.044 8.975 27.826 11.325-7.414 12.171-15.988 23.321-25.393 33.065-12.142-4.414-21.802-10.847-28.99-19.529C81.362 68.565 86.358 64 95.365 51.805" transform="translate(-71 -147) translate(71 147)"/>
                <path fill="#181E3D" d="M105.912 60.64c-3.618-1.66-7.147-3.536-10.576-5.611-.09-.055-.22-.03-.292.056-.07.085-.055.199.035.254 3.43 2.086 6.962 3.973 10.582 5.644.095.043.23.002.299-.092.069-.095.047-.208-.048-.25M101.905 88.632c-3.951-1.954-7.801-4.158-11.536-6.593-.098-.064-.242-.047-.32.036-.077.084-.062.205.036.27 3.736 2.447 7.588 4.664 11.54 6.631.105.052.252.017.33-.079.076-.094.054-.213-.05-.265M120.907 63.66c-3.238-.75-6.429-1.635-9.564-2.65-.091-.03-.218.01-.282.087l-.025.03c-.064.077-.04.165.05.195 3.137 1.022 6.331 1.916 9.573 2.673.094.022.222-.028.284-.112l.024-.032c.061-.083.035-.169-.06-.19M117.606 68.99c-8.592-2.516-16.813-6.12-24.515-10.631-.104-.06-.121-.184-.039-.273.083-.09.235-.113.339-.053 7.699 4.487 15.914 8.064 24.497 10.555.116.034.147.152.07.263-.078.11-.236.174-.352.14" transform="translate(-71 -147) translate(71 147)"/>
                <path fill="#181E3D" d="M116.605 69.99c-8.6-2.776-16.82-6.709-24.515-11.61-.104-.066-.12-.197-.037-.291.083-.094.236-.117.34-.052 7.69 4.874 15.905 8.78 24.496 11.527.115.037.146.164.068.28-.078.118-.236.183-.352.146M114.602 71.989c-8.607-2.807-16.826-6.742-24.512-11.621-.104-.066-.12-.194-.037-.285.084-.09.236-.11.34-.045 7.683 4.852 15.897 8.76 24.496 11.54.116.038.146.16.067.274-.079.113-.238.175-.354.137" transform="translate(-71 -147) translate(71 147)"/>
                <path fill="#181E3D" d="M113.6 72.988c-8.614-2.833-16.832-6.77-24.51-11.63-.104-.066-.12-.191-.036-.279.084-.087.237-.105.34-.04 7.676 4.834 15.89 8.744 24.495 11.55.116.039.146.16.067.27-.08.109-.24.168-.356.13" transform="translate(-71 -147) translate(71 147)"/>
                <path fill="#181E3D" d="M112.598 73.988c-8.621-2.862-16.84-6.8-24.51-11.641-.103-.065-.118-.187-.034-.272.085-.084.238-.1.342-.035 7.667 4.814 15.88 8.727 24.493 11.562.116.038.146.157.066.263-.08.106-.24.161-.357.123M109.592 78.985c-8.646-3.186-16.861-7.46-24.505-12.642-.103-.07-.117-.194-.03-.275.085-.081.239-.091.342-.022 7.642 5.156 15.853 9.402 24.492 12.561.116.043.144.162.062.267-.082.103-.245.153-.361.11M108.59 80.983c-8.653-3.458-16.868-8.061-24.503-13.624-.103-.075-.116-.205-.03-.29.086-.084.24-.093.343-.018 7.634 5.534 15.845 10.109 24.491 13.538.116.046.144.172.061.28-.082.11-.246.16-.362.114" transform="translate(-71 -147) translate(71 147)"/>
                <path fill="#181E3D" d="M107.588 81.982c-8.662-3.486-16.876-8.09-24.502-13.634-.102-.074-.115-.202-.029-.283.087-.081.24-.087.344-.013 7.625 5.515 15.835 10.091 24.49 13.549.117.046.144.17.06.275-.083.105-.247.153-.363.106" transform="translate(-71 -147) translate(71 147)"/>
                <path fill="#181E3D" d="M106.586 82.981c-8.67-3.509-16.882-8.115-24.5-13.641-.102-.075-.115-.2-.028-.278.087-.08.241-.083.344-.009 7.617 5.498 15.827 10.077 24.49 13.558.116.047.143.169.059.27-.084.103-.249.147-.365.1M104.584 84.979c-8.678-3.786-16.89-8.723-24.498-14.625-.103-.08-.115-.211-.028-.292.087-.081.242-.083.345-.004 7.608 5.873 15.817 10.78 24.489 14.537.117.05.143.178.058.284-.084.106-.25.15-.366.1" transform="translate(-71 -147) translate(71 147)"/>
                <path fill="#5AC2E0" d="M30.702 144c-.51 0-.968-.2-1.287-.562-.324-.366-.465-.853-.4-1.368l4.434-34.049c.137-1.026 1.05-1.834 2.076-1.84L84.293 106c.515 0 .975.202 1.296.568.323.368.462.853.394 1.365l-4.433 34.05c-.132 1.024-1.044 1.83-2.076 1.835L30.702 144" transform="translate(-71 -147) translate(71 147)"/>
                <path fill="#181E3D" d="M83.883 105h-.003l-23.15.086-25.778.097c-1.23.006-2.32.972-2.484 2.198l-4.449 34.22c-.081.637.096 1.239.498 1.696.4.454.966.703 1.596.703l33.706-.126 15.229-.057c1.236-.006 2.326-.972 2.484-2.198l4.448-34.22c.083-.62-.096-1.237-.492-1.69-.395-.45-.98-.709-1.605-.709m0 .812c.82 0 1.4.662 1.291 1.482l-4.448 34.221c-.105.82-.857 1.486-1.681 1.49l-15.23.057-33.694.126h-.008c-.82 0-1.393-.66-1.288-1.482l4.448-34.217c.11-.82.861-1.49 1.682-1.494l25.778-.097 23.15-.086" transform="translate(-71 -147) translate(71 147)"/>
                <path fill="#E59D1F" d="M192.645 144c-1.025 0-1.937-.752-2.076-1.713l-4.551-31.459c-.068-.465.06-.911.358-1.255.315-.364.797-.573 1.322-.573h48.657c1.024 0 1.937.753 2.076 1.712l4.551 31.46c.068.465-.06.911-.357 1.255-.316.364-.798.573-1.323.573h-48.657z" transform="translate(-71 -147) translate(71 147)"/>
                <path fill="#181E3D" d="M236.927 108H188.11c-.645 0-1.24.261-1.634.716-.377.436-.539 1-.454 1.586l4.567 31.628c.168 1.16 1.259 2.07 2.484 2.07h48.818c.644 0 1.24-.261 1.633-.716.378-.436.539-1 .454-1.586l-4.567-31.628c-.167-1.161-1.259-2.07-2.484-2.07m0 .811c.82 0 1.572.616 1.682 1.375l4.567 31.628c.11.76-.466 1.375-1.285 1.375h-48.818c-.82 0-1.572-.616-1.682-1.375l-4.566-31.628c-.11-.76.465-1.375 1.285-1.375h48.817" transform="translate(-71 -147) translate(71 147)"/>
                <path fill="#FFB522" d="M192.698 144c-.51 0-.968-.202-1.287-.57-.323-.37-.463-.86-.394-1.377l4.552-34.214c.137-1.031 1.05-1.839 2.077-1.839h48.656c.51 0 .968.202 1.287.57.323.37.463.86.394 1.376l-4.552 34.215c-.137 1.032-1.05 1.839-2.077 1.839h-48.656z" transform="translate(-71 -147) translate(71 147)"/>
                <path fill="#181E3D" d="M245.891 106h-48.818c-1.23 0-2.322.943-2.486 2.146l-4.567 33.497c-.084.613.096 1.22.492 1.664.393.44.975.693 1.597.693h48.818c1.23 0 2.321-.943 2.486-2.146l4.567-33.497c.083-.613-.096-1.22-.492-1.664-.393-.44-.975-.693-1.597-.693m0 .795c.82 0 1.395.652 1.286 1.456l-4.568 33.498c-.11.804-.863 1.456-1.682 1.456H192.11c-.82 0-1.395-.652-1.285-1.456l4.566-33.498c.11-.804.863-1.456 1.683-1.456h48.818" transform="translate(-71 -147) translate(71 147)"/>
                <path fill="#FCC953" d="M19 108.5c0 1.933-1.567 3.5-3.5 3.5s-3.5-1.567-3.5-3.5 1.567-3.5 3.5-3.5 3.5 1.567 3.5 3.5M260.996 111.326c.096 1.93-1.391 3.573-3.322 3.67-1.93.096-3.573-1.391-3.67-3.322-.096-1.93 1.391-3.573 3.322-3.67 1.93-.096 3.573 1.391 3.67 3.322" transform="translate(-71 -147) translate(71 147)"/>
                <path fill="#5AC2E0" d="M10 100.5c0 1.38-1.12 2.5-2.5 2.5S5 101.88 5 100.5 6.12 98 7.5 98s2.5 1.12 2.5 2.5M267.997 100.375c.069 1.38-.993 2.553-2.372 2.622-1.38.068-2.553-.994-2.622-2.373-.069-1.379.994-2.552 2.372-2.62 1.38-.07 2.553.992 2.622 2.371" transform="translate(-71 -147) translate(71 147)"/>
                <path fill="#FCC953" d="M24 91.5c-4.772.938-5.546 3.812-6.5 8.5-.954-4.688-1.728-7.562-6.5-8.5 4.772-.937 5.546-3.812 6.5-8.5.954 4.688 1.728 7.563 6.5 8.5M259 95c-4.038.772-4.693 3.14-5.5 7-.807-3.86-1.462-6.228-5.5-7 4.038-.772 4.693-3.14 5.5-7 .807 3.86 1.462 6.228 5.5 7M226 40c-4.038.772-4.693 3.14-5.5 7-.807-3.86-1.462-6.228-5.5-7 4.038-.772 4.693-3.14 5.5-7 .807 3.86 1.462 6.228 5.5 7M48 51c-4.038.772-4.692 3.14-5.5 7-.807-3.86-1.462-6.228-5.5-7 4.038-.772 4.693-3.14 5.5-7 .808 3.86 1.462 6.228 5.5 7" transform="translate(-71 -147) translate(71 147)"/>
                <path fill="#E2E2E2" d="M89.987 107.472l-4.365 33.991c-.104.815-.841 1.477-1.65 1.48L69.025 143c14.02-15.221 3.15-30.39-3.026-36.915L88.72 106c.805 0 1.375.657 1.267 1.472M246.987 107.472l-4.365 33.991c-.104.815-.842 1.477-1.65 1.48l-14.946.057c14.02-15.221 3.149-30.39-3.026-36.915l22.719-.085c.806 0 1.376.657 1.268 1.472" transform="translate(-71 -147) translate(71 147)"/>
                <path fill="#181E3D" d="M254.397 145H14.603c-.882 0-1.603-.675-1.603-1.5s.721-1.5 1.603-1.5h239.794c.881 0 1.603.675 1.603 1.5s-.722 1.5-1.603 1.5" transform="translate(-71 -147) translate(71 147)"/>
                <path stroke="#181E3D" stroke-dasharray="5" d="M91 124c8.35-17.724 26.446-30 47.424-30 21.238 0 36.585 14.213 45.576 30" transform="translate(-71 -147) translate(71 147)"/>
                <path stroke="#181E3D" d="M95 113.445L99 112 98.778 116M118 95L122 96.171 119.446 99M160.356 96L162 100 158 99.981M183.845 119L184 123 180 121.644" transform="translate(-71 -147) translate(71 147)"/>
                <path fill="#5AC2E0" d="M32 56c0 2.21-1.79 4-4 4s-4-1.79-4-4 1.79-4 4-4 4 1.79 4 4M212 33.5c0 2.485-2.015 4.5-4.5 4.5s-4.5-2.015-4.5-4.5 2.015-4.5 4.5-4.5 4.5 2.015 4.5 4.5M39 64c0 1.105-.895 2-2 2s-2-.895-2-2 .895-2 2-2 2 .895 2 2M215 44c0 1.105-.895 2-2 2s-2-.895-2-2 .895-2 2-2 2 .895 2 2M252 77c0 2.761-2.239 5-5 5s-5-2.239-5-5c0-2.762 2.239-5 5-5s5 2.238 5 5" transform="translate(-71 -147) translate(71 147)"/>
                <path fill="#181E3D" d="M56.5 135c.275 0 .5-.318.5-.707v-11.586c0-.389-.225-.707-.5-.707s-.5.318-.5.707v11.586c0 .389.225.707.5.707" transform="translate(-71 -147) translate(71 147)"/>
                <path fill="#181E3D" d="M53.32 127.646l3.18-5.593 3.18 5.593c.124.219.36.354.615.354.537 0 .876-.563.615-1.022l-3.768-6.628c-.133-.233-.386-.359-.642-.35-.256-.009-.51.117-.642.35l-3.768 6.628c-.261.46.078 1.022.615 1.022.256 0 .491-.135.615-.354M221.5 120c-.275 0-.5.318-.5.707v11.586c0 .389.225.707.5.707s.5-.318.5-.707v-11.586c0-.389-.225-.707-.5-.707" transform="translate(-71 -147) translate(71 147)"/>
                <path fill="#181E3D" d="M224.68 127.354l-3.18 5.592-3.18-5.592c-.124-.219-.36-.354-.615-.354-.537 0-.876.563-.615 1.022l3.768 6.628c.132.233.386.358.642.35.257.008.51-.117.642-.35l3.768-6.628c.261-.459-.078-1.022-.615-1.022-.256 0-.491.135-.615.354" transform="translate(-71 -147) translate(71 147)"/>
            </g>
        </g>
    </g>
</svg>
