<svg xmlns="http://www.w3.org/2000/svg" xmlns:xlink="http://www.w3.org/1999/xlink" width="32" height="32" viewBox="0 0 32 32">
    <defs>
        <path id="22r98lmopa" d="M24 2.667c1.473 0 2.667 1.194 2.667 2.666v21.334c0 1.472-1.194 2.666-2.667 2.666H8c-1.473 0-2.667-1.194-2.667-2.666V10.538c0-.088.035-.173.098-.236l7.538-7.538c.063-.062.147-.097.236-.097H24z"/>
    </defs>
    <g fill="none" fill-rule="evenodd">
        <g>
            <g>
                <g>
                    <g transform="translate(-20 -1275) translate(20 1275)">
                        <path d="M0 0H32V32H0z"/>
                        <mask id="wfjx90l9qb" fill="#fff">
                            <use xlink:href="#22r98lmopa"/>
                        </mask>
                        <use fill="#5EC9EA" xlink:href="#22r98lmopa"/>
                        <path fill="#1BA0CD" d="M12 2c.736 0 1.333.597 1.333 1.333V10c0 .736-.597 1.333-1.333 1.333H5.333C4.597 11.333 4 10.736 4 10V3.333C4 2.597 4.597 2 5.333 2H12z" mask="url(#wfjx90l9qb)"/>
                        <path fill="#A6DCF4" d="M12 1.333c.736 0 1.333.597 1.333 1.334v6.666c0 .737-.597 1.334-1.333 1.334H5.333C4.597 10.667 4 10.07 4 9.333V2.667c0-.737.597-1.334 1.333-1.334H12z" mask="url(#wfjx90l9qb)"/>
                        <path fill="#FFF" d="M16.172 25.04c0 .218-.037.425-.112.62-.075.197-.182.37-.322.519-.14.149-.31.267-.509.354-.199.087-.426.131-.681.131-.305 0-.558-.067-.76-.2-.203-.134-.363-.267-.481-.397l.746-.598c.069.069.148.126.238.173.09.047.185.07.285.07.056 0 .121-.01.196-.033.075-.021.145-.062.21-.121.065-.06.121-.14.168-.243.047-.102.07-.238.07-.406v-4.946h.952v5.077zm.896-5.077h1.428c.261 0 .492.034.69.102.2.069.38.19.542.364.162.175.274.378.336.612.062.233.093.549.093.947 0 .292-.017.543-.051.751-.034.209-.107.403-.22.584-.13.217-.304.387-.522.508-.218.122-.504.182-.859.182h-.485v2.595h-.952v-6.645zm.952 3.154h.457c.193 0 .343-.028.448-.084.106-.056.184-.132.234-.228.05-.097.079-.213.088-.35.01-.137.014-.29.014-.458 0-.155-.004-.303-.014-.443-.009-.14-.037-.261-.084-.364-.046-.103-.12-.184-.219-.243-.1-.059-.243-.088-.43-.088h-.494v2.258zm2.79-1.586c0-.268.047-.504.14-.71.094-.205.217-.375.37-.508.152-.134.323-.235.513-.304.19-.068.38-.102.574-.102.193 0 .384.034.574.102.19.069.36.17.513.304.152.133.275.303.369.508.093.206.14.442.14.71v.336h-.952v-.336c0-.23-.064-.4-.192-.509-.127-.109-.278-.163-.452-.163-.175 0-.325.054-.453.163-.128.109-.191.278-.191.509v3.509c0 .23.063.4.191.509.128.109.278.163.453.163.174 0 .325-.054.452-.163.128-.11.192-.279.192-.509v-1.25h-.756v-.84h1.708v2.09c0 .274-.047.512-.14.714-.094.202-.217.37-.369.504s-.324.235-.513.303c-.19.069-.381.103-.574.103-.193 0-.385-.034-.574-.103-.19-.068-.361-.17-.514-.303-.152-.134-.275-.302-.368-.504-.094-.202-.14-.44-.14-.714v-3.51z" mask="url(#wfjx90l9qb)"/>
                    </g>
                </g>
            </g>
        </g>
    </g>
</svg>
