<svg xmlns="http://www.w3.org/2000/svg" xmlns:xlink="http://www.w3.org/1999/xlink" width="24" height="24" viewBox="0 0 24 24">
    <defs>
        <path id="q2bef26o9a" d="M7.615 5.574L6.287 6.902c-.541.54-1.418.54-1.958 0-.541-.54-.541-1.417 0-1.958L8.02 1.252c.54-.541 1.417-.541 1.958 0l3.692 3.692c.541.54.541 1.417 0 1.958-.54.54-1.417.54-1.958 0l-1.328-1.328v8.657c0 .764-.62 1.384-1.385 1.384s-1.385-.62-1.385-1.384V5.574zM.231 10.538c0-.764.62-1.384 1.384-1.384.765 0 1.385.62 1.385 1.384v7.385c0 .255.207.462.462.462h11.076c.255 0 .462-.207.462-.462v-7.385c0-.764.62-1.384 1.385-1.384.764 0 1.384.62 1.384 1.384v7.385c0 1.784-1.446 3.23-3.23 3.23H3.461c-1.785 0-3.231-1.446-3.231-3.23v-7.385z"/>
        <path id="rx1ykqd2xc" d="M5.128 0h13.744c1.783 0 2.43.186 3.082.534.652.349 1.163.86 1.512 1.512.348.652.534 1.299.534 3.082v13.744c0 1.783-.186 2.43-.534 3.082-.349.652-.86 1.163-1.512 1.512-.652.348-1.299.534-3.082.534H5.128c-1.783 0-2.43-.186-3.082-.534-.652-.349-1.163-.86-1.512-1.512C.186 21.302 0 20.655 0 18.872V5.128c0-1.783.186-2.43.534-3.082.349-.652.86-1.163 1.512-1.512C2.698.186 3.345 0 5.128 0z"/>
    </defs>
    <g fill="none" fill-rule="evenodd">
        <g>
            <g>
                <g>
                    <g transform="translate(-91 -744) translate(8 703) translate(83 41)">
                        <mask id="7bd28llk6b" fill="#fff">
                            <use xlink:href="#q2bef26o9a"/>
                        </mask>
                        <g mask="url(#7bd28llk6b)">
                            <g transform="translate(-3 -1)">
                                <mask id="l5nr7vi22d" fill="#fff">
                                    <use xlink:href="#rx1ykqd2xc"/>
                                </mask>
                                <use fill="#FFF" fill-opacity="0" xlink:href="#rx1ykqd2xc"/>
                                <g mask="url(#l5nr7vi22d)">
                                    <path fill="#46B34B" d="M0 0L24 0 24 24 0 24z"/>
                                </g>
                            </g>
                        </g>
                    </g>
                </g>
            </g>
        </g>
    </g>
</svg>
