<svg xmlns="http://www.w3.org/2000/svg" xmlns:xlink="http://www.w3.org/1999/xlink" width="286" height="197" viewBox="0 0 286 197">
    <defs>
        <path id="fs2fulvgha" d="M0 187.817L283.973 187.817 283.973 0.231 0 0.231z"/>
        <path id="g9pmxdwe4c" d="M0.327 0.184L21.599 0.184 21.599 99.198 0.327 99.198z"/>
        <path id="qdno3hbrbe" d="M0.105 0.184L0.588 0.184 0.588 21.252 0.105 21.252z"/>
        <path id="hxhorn3w7g" d="M0.068 0.184L19.237 0.184 19.237 15.385 0.068 15.385z"/>
        <path id="3b6u7ubmmi" d="M0.225 0.184L0.708 0.184 0.708 97.293 0.225 97.293z"/>
        <path id="fqm2pyyixk" d="M0.069 0.184L20.913 0.184 20.913 15.385 0.069 15.385z"/>
        <path id="ildbita6ym" d="M0.309 104.741L105.091 104.741 105.091 0.184 0.309 0.184z"/>
        <path id="s4m3ipag6o" d="M0.044 0.303L2.124 0.303 2.124 2.933 0.044 2.933z"/>
    </defs>
    <g fill="none" fill-rule="evenodd">
        <g>
            <g>
                <path stroke="#82BEF4" stroke-linejoin="round" d="M182.716 44.95L194.751 44.95M198.416 44.95L203.787 44.95M98.139 10.304L98.139 12.531M99.255 11.417L97.023 11.417M148.901 21.085L148.901 23.312M150.017 22.199L147.785 22.199M248.673 76.666L248.673 78.893M249.789 77.78L247.557 77.78M223.058 47.075L223.058 49.302M224.174 48.188L221.942 48.188M56.362 41.26L56.362 43.487M57.478 42.373L55.246 42.373M35.405 87.793L35.405 90.02M36.521 88.906L34.289 88.906" transform="translate(-60 -244) translate(60 244)"/>
                <g transform="translate(-60 -244) translate(60 244) translate(0 .25)">
                    <path stroke="#82BEF4" stroke-linejoin="round" d="M111.302 1.535c0 .587-.477 1.063-1.065 1.063-.589 0-1.066-.476-1.066-1.063 0-.588.477-1.063 1.066-1.063.588 0 1.065.475 1.065 1.063zM177.249 10.103c0 .587-.477 1.064-1.066 1.064-.589 0-1.066-.477-1.066-1.064 0-.587.477-1.063 1.066-1.063.589 0 1.066.476 1.066 1.063zM253.953 54.895c0 .587-.477 1.063-1.066 1.063-.588 0-1.065-.476-1.065-1.063s.477-1.063 1.065-1.063c.589 0 1.066.476 1.066 1.063zM44.361 59.132c0 .587-.476 1.063-1.065 1.063-.588 0-1.066-.476-1.066-1.063 0-.588.478-1.064 1.066-1.064.589 0 1.065.476 1.065 1.064zM168.028 14.919L157.924 14.919M156.189 14.919L152.749 14.919M220.424 33.059L229.221 33.059M116.148 13.384L124.945 13.384M44.295 24.52L53.092 24.52M259.516 108.206L268.314 108.206M18.959 104.085L27.756 104.085"/>
                    <mask id="w1ucobyahb" fill="#fff">
                        <use xlink:href="#fs2fulvgha"/>
                    </mask>
                    <path fill="#D9ECF9" d="M246.856 103.51L264.542 103.51 264.542 101.901 246.856 101.901zM2.57 65.908L20.256 65.908 20.256 64.299 2.57 64.299zM52.679 32.767L70.365 32.767 70.365 31.158 52.679 31.158zM124.57 9.04L142.256 9.04 142.256 7.431 124.57 7.431zM228.008 38.542L245.694 38.542 245.694 36.934 228.008 36.934z" mask="url(#w1ucobyahb)"/>
                    <path fill="#FFF" d="M196.691 32.4L213.402 32.4 213.402 20.391 196.691 20.391z" mask="url(#w1ucobyahb)"/>
                    <path stroke="#82BEF4" stroke-linejoin="round" d="M196.691 32.4L213.402 32.4 213.402 20.391 196.691 20.391z" mask="url(#w1ucobyahb)"/>
                    <path fill="#FFF" d="M211.951 30.441L203.294 30.441 207.623 25.726z" mask="url(#w1ucobyahb)"/>
                    <path stroke="#82BEF4" stroke-linejoin="round" d="M211.951 30.441L203.294 30.441 207.623 25.726z" mask="url(#w1ucobyahb)"/>
                    <path fill="#FFF" d="M209.164 30.441L198.142 30.441 203.653 24.438z" mask="url(#w1ucobyahb)"/>
                    <path stroke="#82BEF4" stroke-linejoin="round" d="M209.164 30.441L198.142 30.441 203.653 24.438z" mask="url(#w1ucobyahb)"/>
                    <path fill="#FFF" d="M210.618 23.082c0 .627-.509 1.135-1.136 1.135-.628 0-1.138-.508-1.138-1.135 0-.626.51-1.134 1.138-1.134.627 0 1.136.508 1.136 1.134" mask="url(#w1ucobyahb)"/>
                    <path stroke="#82BEF4" stroke-linejoin="round" d="M210.618 23.082c0 .627-.509 1.135-1.136 1.135-.628 0-1.138-.508-1.138-1.135 0-.626.51-1.134 1.138-1.134.627 0 1.136.508 1.136 1.134z" mask="url(#w1ucobyahb)"/>
                    <path fill="#FFF" d="M10.035 83.213L26.745 83.213 26.745 71.204 10.035 71.204z" mask="url(#w1ucobyahb)"/>
                    <path stroke="#82BEF4" stroke-linejoin="round" d="M10.035 83.213L26.745 83.213 26.745 71.204 10.035 71.204z" mask="url(#w1ucobyahb)"/>
                    <path fill="#FFF" d="M25.295 81.253L16.637 81.253 20.966 76.538z" mask="url(#w1ucobyahb)"/>
                    <path stroke="#82BEF4" stroke-linejoin="round" d="M25.295 81.253L16.637 81.253 20.966 76.538z" mask="url(#w1ucobyahb)"/>
                    <path fill="#FFF" d="M22.508 81.253L11.485 81.253 16.997 75.251z" mask="url(#w1ucobyahb)"/>
                    <path stroke="#82BEF4" stroke-linejoin="round" d="M22.508 81.253L11.485 81.253 16.997 75.251z" mask="url(#w1ucobyahb)"/>
                    <path fill="#FFF" d="M23.962 73.894c0 .627-.51 1.135-1.137 1.135-.628 0-1.137-.508-1.137-1.135 0-.626.509-1.134 1.137-1.134s1.137.508 1.137 1.134" mask="url(#w1ucobyahb)"/>
                    <path stroke="#82BEF4" stroke-linejoin="round" d="M23.962 73.894c0 .627-.51 1.135-1.137 1.135-.628 0-1.137-.508-1.137-1.135 0-.626.509-1.134 1.137-1.134s1.137.508 1.137 1.134z" mask="url(#w1ucobyahb)"/>
                    <path fill="#FFF" d="M62.904 20.923L84.55 20.923 84.55 5.367 62.904 5.367z" mask="url(#w1ucobyahb)"/>
                    <path stroke="#82BEF4" stroke-linejoin="round" d="M62.904 20.923L84.55 20.923 84.55 5.367 62.904 5.367z" mask="url(#w1ucobyahb)"/>
                    <path fill="#FFF" d="M82.672 18.385L71.457 18.385 77.064 12.278z" mask="url(#w1ucobyahb)"/>
                    <path stroke="#82BEF4" stroke-linejoin="round" d="M82.672 18.385L71.457 18.385 77.064 12.278z" mask="url(#w1ucobyahb)"/>
                    <path fill="#FFF" d="M79.061 18.385L64.783 18.385 71.922 10.609z" mask="url(#w1ucobyahb)"/>
                    <path stroke="#82BEF4" stroke-linejoin="round" d="M79.061 18.385L64.783 18.385 71.922 10.609z" mask="url(#w1ucobyahb)"/>
                    <path fill="#FFF" d="M80.945 8.853c0 .812-.66 1.47-1.473 1.47-.813 0-1.473-.658-1.473-1.47 0-.812.66-1.47 1.473-1.47.814 0 1.473.658 1.473 1.47" mask="url(#w1ucobyahb)"/>
                    <path stroke="#82BEF4" stroke-linejoin="round" d="M80.945 8.853c0 .812-.66 1.47-1.473 1.47-.813 0-1.473-.658-1.473-1.47 0-.812.66-1.47 1.473-1.47.814 0 1.473.658 1.473 1.47z" mask="url(#w1ucobyahb)"/>
                    <path fill="#A7EAA7" d="M218.462 177.285c12.157-19.644 24.03-22.904 42.84-32.738 4.077-2.132 7.363-5.875 9.099-10.13 1.43-3.501 1.23-8.257-1.511-11.11-7.748-8.063-21.927 4.347-27.947 9.372-12.476 10.415-22.795 26.67-27.14 42.384" mask="url(#w1ucobyahb)"/>
                    <path fill="#A7EAA7" d="M215.777 165.989c5.326-11.17 10.36-23.013 18.194-32.6 6.216-7.606 13.459-14.96 18.33-23.713 3.235-5.812 7.474-18.893-2.283-21.48-3.347-.887-6.797.925-9.572 2.992-3.727 2.778-7.001 6.13-9.915 9.75-7.59 9.43-12.736 20.638-16.24 32.218-3.505 11.579-5.427 23.572-7.08 35.554" mask="url(#w1ucobyahb)"/>
                    <path fill="#4CAF50" d="M248.734 93.594c-6.792 8.134-12.559 17.095-17.665 26.362-5.366 9.737-10.023 19.87-13.936 30.274-2.13 5.662-3.994 11.41-5.57 17.25-.046.166.21.236.257.07 5.917-20.856 14.965-41.105 26.655-59.379 3.198-5 6.63-9.856 10.357-14.478.056-.069-.04-.168-.098-.099" mask="url(#w1ucobyahb)"/>
                    <path fill="#A7EAA7" d="M48.054 169.155c-7.962-19.497-18.147-24.217-33.577-35.895-5.803-4.392-10.567-18.65-.853-21.512 3.267-.962 6.864.116 9.664 2.052 4.352 3.009 7.87 7.862 11.294 11.853 9.646 11.245 16.467 27.418 17.998 42.205" mask="url(#w1ucobyahb)"/>
                    <path fill="#4CAF50" d="M12.338 119.901c7.22 3.512 13.632 8.731 19.132 14.53 5.173 5.455 9.821 11.79 13.1 18.568 1.864 3.852 3.14 7.943 3.983 12.132.037.184.312.104.28-.077-1.334-7.474-4.428-14.184-8.713-20.421-4.612-6.716-10.023-12.742-16.426-17.81-3.484-2.758-7.21-5.224-11.228-7.14-.146-.07-.275.147-.128.218" mask="url(#w1ucobyahb)"/>
                    <path fill="#A7EAA7" d="M77.53 173.532c2.121-25.886 12.351-35.206 26.163-54.652 2.995-4.216 4.371-9.642 3.932-14.79-.361-4.24-2.996-8.904-7.204-10.365-11.894-4.13-19.747 15.537-23.207 23.643-7.17 16.798-9.185 38.35-5.492 56.313M32.257 175.6c-3.57-12.359-9.452-15.884-18.066-23.973-1.867-1.754-4.249-4.254-4.541-6.796-.24-2.093.813-4.685 2.752-5.736 5.163-2.797 12.02 5.613 14.495 9.21 5.13 7.453 8.224 17.718 8.194 26.8" mask="url(#w1ucobyahb)"/>
                    <path fill="#4CAF50" d="M13.741 143.42c5.235 3.312 9.666 8.152 12.941 13.375 3.174 5.06 5.473 10.4 6.082 16.378.019.182.303.188.29 0-.398-6.073-2.815-11.478-6.024-16.58-3.313-5.27-7.836-10.115-13.162-13.39-.139-.086-.264.13-.127.217" mask="url(#w1ucobyahb)"/>
                    <path fill="#A7EAA7" d="M54.955 168.274c-2.636-10.594-4.926-21.727-9.877-31.352-3.93-7.637-8.744-15.22-11.384-23.637-1.754-5.589-3.195-17.67 5.252-18.33 2.898-.228 5.456 1.913 7.419 4.166 2.635 3.026 4.807 6.479 6.64 10.106 4.776 9.449 7.257 20.048 8.328 30.702 1.071 10.653.773 21.409.255 32.112" mask="url(#w1ucobyahb)"/>
                    <path fill="#4CAF50" d="M38.426 100.049c8.93 16.735 14.205 35.258 17.13 53.93.843 5.375 1.51 10.785 2 16.203.015.169.28.172.267 0-1.453-19.158-5.36-38.379-12.599-56.225-1.942-4.79-4.154-9.465-6.677-13.979-.044-.079-.163-.008-.121.07" mask="url(#w1ucobyahb)"/>
                    <path fill="#4CAF50" d="M85.54 179.158c-.618-2.943-2.123-5.675-3.666-8.287-3.455-5.847-7.323-10.639-13.837-13.062-5.696-2.12-12.359-1.75-17.658 1.288-6.407 3.673-10.776 10.724-17.847 12.862-4.814 1.453-9.863-.235-14.7-1.613C11.775 168.62 4.729 168.62 0 179.158h85.54zM162.783 179.158c.672-6.551 2.306-12.632 3.982-18.444 3.753-13.013 7.954-23.677 15.03-29.07 6.188-4.718 13.425-3.894 19.182 2.866 6.959 8.174 11.704 23.868 19.385 28.624 5.23 3.237 10.714-.523 15.967-3.59 6.58-3.84 14.235-3.84 19.37 19.614h-92.916z" mask="url(#w1ucobyahb)"/>
                    <path fill="#6FC66F" d="M80.254 154.054c-2.058 0-4.082.56-5.77 1.784-2.922 2.116-4.734 5.459-6.905 8.38-1.848 2.486-4.742 3.266-7.83 3.266-3.467 0-7.18-.984-9.932-1.642-3.477-.83-8.398-2.57-12.737-2.57-3.43 0-6.495 1.087-8.195 4.571-.983 2.014-1.442 4.623-3.113 6.203-2.847 2.693-12.342-1.236-14.25 5.112h89.68L94.4 167.33c-1.226-4.412-3.598-8.651-7.326-11.169-2.002-1.352-4.434-2.106-6.82-2.106m0 .481c2.29 0 4.617.719 6.55 2.024 3.256 2.2 5.789 6.07 7.13 10.9l.017.057.03.053 6.388 11.108H12.212c1.284-2.905 4.693-2.962 7.997-3.017 2.387-.04 4.64-.078 5.895-1.265 1.22-1.154 1.82-2.77 2.398-4.332.264-.715.514-1.39.817-2.01 1.413-2.893 3.95-4.3 7.761-4.3 3.21 0 6.723.966 9.823 1.819.998.274 1.941.534 2.802.739l.786.19c2.697.652 6.054 1.465 9.258 1.465 3.798 0 6.486-1.132 8.218-3.462.547-.736 1.078-1.508 1.592-2.255 1.515-2.204 3.083-4.483 5.208-6.022 1.528-1.107 3.426-1.692 5.487-1.692" mask="url(#w1ucobyahb)"/>
                    <path fill="#A7EAA7" d="M181.46 154.885c-4.513 0-9.031 1.447-12.706 4.18l-5.401 20.093h109.952c1.974 0 .656-2.646-.54-3.615-1.166-.946-2.954-1.119-4.385-1.299-2.367-.296-4.787-.4-7.083-1.094-2.422-.733-4.537-2.337-5.921-4.447-1.143-1.743-1.58-3.81-2.55-5.64-2.18-4.111-6.907-6.057-11.474-6.057-.554 0-1.104.029-1.649.085-5.033.525-9.662 2.972-14.255 5.176-4.226 2.027-8.712 3.916-13.331 3.916-.402 0-.805-.014-1.208-.045-8.711-.641-15.538-8.176-23.976-10.516-1.785-.494-3.629-.737-5.474-.737m0 0v.482c1.826 0 3.624.242 5.344.719 3.603 1 6.983 3.007 10.252 4.949 4.315 2.563 8.777 5.213 13.817 5.584.41.03.828.045 1.245.045 4.87 0 9.543-2.045 13.54-3.963.442-.212.885-.427 1.328-.642 4.082-1.978 8.304-4.023 12.768-4.489.527-.055 1.064-.083 1.599-.083 3.854 0 8.78 1.524 11.047 5.801.403.76.72 1.588 1.028 2.389.425 1.107.864 2.251 1.545 3.29 1.464 2.23 3.66 3.88 6.185 4.644 1.772.535 3.62.729 5.408.916.577.06 1.173.123 1.754.195l.247.031c1.36.168 2.902.358 3.895 1.164.802.65 1.531 2.036 1.346 2.557-.017.05-.072.202-.502.202H163.982l5.195-19.325c3.518-2.57 7.873-3.984 12.282-3.984v-.482" mask="url(#w1ucobyahb)"/>
                    <path fill="#FFF" d="M78.078 179.158L188.517 179.158 188.517 26.988 78.078 26.988z" mask="url(#w1ucobyahb)"/>
                    <path stroke="#82BEF4" stroke-linejoin="round" d="M78.078 179.158L188.517 179.158 188.517 26.988 78.078 26.988z" mask="url(#w1ucobyahb)"/>
                    <path fill="#D9ECF9" d="M111.592 41.457H95.914c-.266 0-.483-.216-.483-.481v-2.382c0-.266.217-.481.483-.481h15.678c.266 0 .482.215.482.481v2.382c0 .265-.216.481-.482.481" mask="url(#w1ucobyahb)"/>
                    <path fill="#BBDEFB" d="M80.906 151.937L185.689 151.937 185.689 47.38 80.906 47.38z" mask="url(#w1ucobyahb)"/>
                </g>
                <g transform="translate(-60 -244) translate(60 244) translate(80.597 47.446)">
                    <path stroke="#82BEF4" stroke-linejoin="round" d="M29.996 29.625L39.115 36.627 39.115 81.817"/>
                    <path fill="#82BEF4" d="M79.013 65.916V54.5c0-7.584 4.43-14.473 11.338-17.634l5.622-2.571v45.987"/>
                    <g transform="translate(83.493)">
                        <mask id="22wutqc2hd" fill="#fff">
                            <use xlink:href="#g9pmxdwe4c"/>
                        </mask>
                        <path fill="#BBDEFB" d="M0.327 97.293L0.327 -6.447 26.678 -6.447 26.678 99.198" mask="url(#22wutqc2hd)"/>
                        <path stroke="#82BEF4" stroke-linejoin="round" d="M0.327 97.293L0.327 -6.447 26.678 -6.447 26.678 99.198" mask="url(#22wutqc2hd)"/>
                    </g>
                    <g transform="translate(78.667)">
                        <mask id="wp6167ol0f" fill="#fff">
                            <use xlink:href="#qdno3hbrbe"/>
                        </mask>
                        <path stroke="#82BEF4" stroke-linejoin="round" d="M0.346 21.252L0.346 -2.61" mask="url(#wp6167ol0f)"/>
                    </g>
                    <g transform="translate(76.736)">
                        <mask id="kdgx51lc1h" fill="#fff">
                            <use xlink:href="#hxhorn3w7g"/>
                        </mask>
                        <path fill="#BBDEFB" d="M4.921 13.902L19.237 -1.671 12.081 -0.942 0.068 13.387 0.068 15.385" mask="url(#kdgx51lc1h)"/>
                        <path stroke="#82BEF4" stroke-linejoin="round" d="M4.921 13.902L19.237 -1.671 12.081 -0.942 0.068 13.387 0.068 15.385" mask="url(#kdgx51lc1h)"/>
                    </g>
                    <path stroke="#82BEF4" stroke-linejoin="round" d="M29.822 21.57L29.822 94.036"/>
                    <path fill="#82BEF4" d="M21.18 13.78L29.822 22.636 33.235 22.636 21.212 9.295"/>
                    <path stroke="#82BEF4" stroke-linejoin="round" d="M33.235 22.636L33.235 20.976 21.219 7.735"/>
                    <g transform="translate(20.753)">
                        <mask id="3awuj37urj" fill="#fff">
                            <use xlink:href="#3b6u7ubmmi"/>
                        </mask>
                        <path stroke="#82BEF4" stroke-linejoin="round" d="M0.467 -0.588L0.467 97.293" mask="url(#3awuj37urj)"/>
                    </g>
                    <g transform="translate(76.736)">
                        <mask id="ixzraclgvl" fill="#fff">
                            <use xlink:href="#fqm2pyyixk"/>
                        </mask>
                        <path fill="#82BEF4" d="M20.913 -0.588L7.083 15.385 0.069 15.385 13.898 -0.588" mask="url(#ixzraclgvl)"/>
                    </g>
                    <path stroke="#82BEF4" stroke-linejoin="round" d="M16.504 47.079L2.735 50.212 2.735 5.252 16.504 7.864z"/>
                    <mask id="j5pbv8j83n" fill="#fff">
                        <use xlink:href="#ildbita6ym"/>
                    </mask>
                    <path fill="#82BEF4" d="M12.421 47.079L16.504 47.079 16.504 7.864 12.421 7.864z" mask="url(#j5pbv8j83n)"/>
                    <path stroke="#82BEF4" stroke-linejoin="round" d="M14.172 46.677L2.735 48.352M15.129 8.257L2.735 6.639" mask="url(#j5pbv8j83n)"/>
                    <path fill="#82BEF4" d="M25.521 35.108L21.219 35.59 21.219 27.171 25.521 28.616zM25.521 45.335L21.219 47.262 21.219 38.843 25.521 38.32z" mask="url(#j5pbv8j83n)"/>
                    <path stroke="#82BEF4" stroke-linejoin="round" d="M72.105-3.356L72.105 72.462M72.105 23.433L83.819 19.734M72.105 25.449L83.819 23.677M71.988 7.917H53.701s2.017-3.553 4.852-3.553c2.835 0 4.101 1.737 5.874.858 2.556-1.267 1.753-5.23 7.561-5.23M25.988 12.99H39.95s-1.728-2.152-5.168-2.546c-2.894-.33-4.053 1.3-4.96.394-.908-.905-1.354-6.693-8.603-5.854" mask="url(#j5pbv8j83n)"/>
                    <path fill="#F886BC" d="M.31 90.615L5.148 96.448 12.907 82.564 35.604 86.735 24.747 109.137.31 109.137zM101.247 97.33L94.808 82.565 68.94 86.736 82.206 109.137 105.092 109.137 105.092 92.182z" mask="url(#j5pbv8j83n)"/>
                    <path stroke="#D34F9B" stroke-linejoin="round" stroke-width="1.5" d="M5.148 96.448s10.632 8.14 10.632 10.415M101.247 97.33s-6.318 5.057-6.318 7.947" mask="url(#j5pbv8j83n)"/>
                    <path fill="#0074E7" d="M88.629 73.577C77.992 61.431 60.478 61.694 60.478 61.694l-1.407-.024H47.226l-1.407.024s-16.347-1.233-26.983 10.913C11.734 80.718 6.208 93.122 6.208 93.122l19.367 7.098-2.072 8.917H84.37l-3.252-9.591 19.424-7.517s-4.811-10.34-11.913-18.452" mask="url(#j5pbv8j83n)"/>
                    <path stroke="#4091F2" stroke-linecap="round" stroke-width="1.5" d="M13.606 86.222L15.315 89.353M25.738 84.227L28.125 81.573M41.835 87.108L45.374 86.616M49.858 79.214L52.004 76.363M57.549 99.981L59.695 97.13M65.841 105.831L66.038 102.271M71.204 94.893L74.452 96.38M83.898 95.414L86.765 93.287M36.255 74.995L38.945 77.342M76.686 76.264L78.539 79.313M87.598 82.172L90.861 83.627M69.899 67.698L72.51 65.263M66.3 83.408L69.873 83.339M31.422 66.48L34.957 65.962M59.695 71.787L63.003 73.137M80.158 87.926L81.208 84.517M44.368 101.999L47.544 100.365M34.573 93.05L37.6 94.945M55.085 87.428L57.399 90.145M20.831 74.548L22.324 77.788" mask="url(#j5pbv8j83n)"/>
                    <path fill="#4091F2" d="M19.28 86.22c0 .354-.289.642-.645.642-.355 0-.643-.288-.643-.642 0-.355.288-.643.643-.643.356 0 .645.288.645.643M30.64 71.14c0 .355-.288.643-.644.643-.355 0-.644-.288-.644-.643 0-.355.289-.643.644-.643.356 0 .645.288.645.643M23.529 94.994c0 .354-.288.642-.644.642-.356 0-.644-.288-.644-.642 0-.355.288-.643.644-.643.356 0 .644.288.644.643M36.73 86.616c0 .355-.288.643-.643.643-.356 0-.645-.288-.645-.643 0-.354.289-.642.645-.642.355 0 .644.288.644.642M74.117 101.182c0 .355-.289.643-.644.643-.356 0-.644-.288-.644-.643 0-.355.288-.643.644-.643.355 0 .644.288.644.643M31.786 101.825c0 .355-.289.642-.644.642-.356 0-.644-.287-.644-.642 0-.355.288-.643.644-.643.355 0 .644.288.644.643M59.266 77.788c0 .355-.288.643-.644.643-.356 0-.644-.288-.644-.643 0-.354.288-.642.644-.642.356 0 .644.288.644.642M70.543 74.846c0 .354-.288.642-.644.642-.356 0-.644-.288-.644-.642 0-.355.288-.643.644-.643.356 0 .644.288.644.643M46.019 72.076c0 .355-.289.643-.645.643-.355 0-.644-.288-.644-.643 0-.355.289-.642.644-.642.356 0 .645.287.645.642M80.436 72.692c0 .355-.289.642-.644.642-.356 0-.645-.287-.645-.642 0-.355.289-.643.645-.643.355 0 .644.288.644.643M49.477 94.35c0 .356-.289.644-.645.644-.355 0-.643-.288-.643-.643 0-.355.288-.643.643-.643.356 0 .645.288.645.643M65.94 91.17c0 .354-.289.642-.644.642-.356 0-.644-.288-.644-.642 0-.355.288-.643.644-.643.355 0 .644.288.644.643M60.462 102.88c0 .354-.288.642-.643.642-.356 0-.645-.288-.645-.643 0-.354.289-.642.645-.642.355 0 .643.288.643.642M88.79 88.144c0 .355-.289.643-.644.643-.356 0-.644-.288-.644-.643 0-.355.288-.643.644-.643.355 0 .644.288.644.643" mask="url(#j5pbv8j83n)"/>
                    <path fill="#00276F" d="M41.31 24.08c2.229-2.214 5.138-3.721 8.35-4.252 5.655-.934 12.32.58 15.743 5.507 2.253 3.242 2.724 7.768 5.701 10.312 1 .854 2.25 1.444 2.99 2.545 1.234 1.834.62 4.342-.196 6.41-.815 2.067-1.807 4.304-1.182 6.441.44 1.507 1.665 2.852 1.443 4.409-.3 2.104-2.867 2.808-4.922 2.959-1.673.123-3.354.196-5.027.076-3.986-.287-7.549-.408-11.464.016-4.189.453-8.433.605-12.645.618-2.257.006-4.65-.083-6.536-1.319-1.048-.685-1.907-1.796-1.93-3.046-.02-1.124.614-2.137 1.106-3.15 1.28-2.635-.033-3.627-.953-5.928-1.36-3.402 2.53-4.922 3.894-7.388 1.433-2.592 1.09-5.86 2.08-8.631.767-2.143 1.992-4.033 3.547-5.578" mask="url(#j5pbv8j83n)"/>
                    <path fill="#F886BC" d="M63.273 31.781c3.167 12.748-2.589 22.269-7.522 23.01-7.059 1.058-11.002-2.405-13.081-8.685-.92-2.775-2.279-13.279.655-16.362 4.872-5.122 17.251-8.818 19.948 2.037" mask="url(#j5pbv8j83n)"/>
                    <path fill="#F886BC" d="M46.63 48.85l-.812 12.844s-1.55 5.171 8.11 5.171 7.577-5.15 7.577-5.15l-1.824-14.13M62.858 41.406c.594-.661 1.891-.779 2.644-.24.656.468.823 1.248.865 1.964.041.688.004 1.392-.274 2.04-.278.65-.823 1.244-1.581 1.527-.759.283-1.735.198-2.315-.295" mask="url(#j5pbv8j83n)"/>
                    <path fill="#00276F" d="M39.347 38.546c6.013-1.196 11.523-4.478 15.22-9.066 3.179 3.632 7.367 6.489 12.04 8.211.38-2.94.732-6.066-.631-8.74-.944-1.852-2.613-3.28-4.264-4.631-1.414-1.158-2.884-2.32-4.644-2.94-3.38-1.19-7.268-.146-10.244 1.763-4.204 2.697-7.083 7.124-7.709 11.85" mask="url(#j5pbv8j83n)"/>
                    <path fill="#00276F" d="M53.895 21.79c-.326.192-.711-.116-.96-.4-.97-1.107-1.984-2.52-1.532-3.92.207-.639.7-1.15 1.252-1.536 1.308-.913 3.081-1.204 4.547-.573 1.465.631 2.5 2.243 2.28 3.82-.218 1.578-1.803 2.892-3.381 2.655" mask="url(#j5pbv8j83n)"/>
                    <path stroke="#D34F9B" stroke-linejoin="round" stroke-width="1.5" d="M46.987 53.203s2.035 2.856 5.723 3.114c4.747.332 6.802-4.02 6.802-4.02" mask="url(#j5pbv8j83n)"/>
                    <path fill="#F886BC" d="M43.155 41.406c-.594-.661-1.891-.779-2.645-.24-.655.468-.821 1.248-.864 1.964-.041.688-.004 1.392.274 2.04.279.65.823 1.244 1.581 1.527.759.283 1.735.198 2.315-.295" mask="url(#j5pbv8j83n)"/>
                    <path stroke="#D34F9B" stroke-linejoin="round" stroke-width="1.5" d="M53.914 47.175s-2.107.422-2.107-.797c0-1.22.656-6.62.656-6.62" mask="url(#j5pbv8j83n)"/>
                    <path fill="#00276F" d="M58.055 41.02c-.015.406-.004.818.054 1.22.04.277.377.446.626.409.266-.04.512-.272.496-.56-.023-.4-.104-.812-.199-1.201-.135-.559-.957-.416-.977.132" mask="url(#j5pbv8j83n)"/>
                    <path stroke="#00276F" stroke-linecap="round" stroke-linejoin="round" stroke-width="2" d="M56.75 38.217s1.653-1.236 4.295.33" mask="url(#j5pbv8j83n)"/>
                    <path fill="#00276F" d="M46.853 40.888c-.094.39-.176.8-.198 1.201-.016.28.229.528.495.56.252.03.586-.125.627-.409.058-.402.07-.814.053-1.22-.02-.542-.84-.695-.977-.132" mask="url(#j5pbv8j83n)"/>
                    <path stroke="#00276F" stroke-linecap="round" stroke-linejoin="round" stroke-width="2" d="M49.134 38.217s-1.651-1.236-4.293.33" mask="url(#j5pbv8j83n)"/>
                    <path fill="#FFF" d="M49.815 49.506h6.936s-.975 3.57-3.502 3.57c-2.526 0-3.434-3.57-3.434-3.57" mask="url(#j5pbv8j83n)"/>
                    <path stroke="#00276F" d="M25.575 100.22L30.295 80.564M81.117 99.546L74.173 81.352M43.223 61.683s-.237 7.47 10.691 7.47c9.794 0 10.266-7.24 10.266-7.24" mask="url(#j5pbv8j83n)"/>
                </g>
                <g>
                    <path fill="#D9ECF9" d="M10.446 7.94c0 2.876-2.337 5.208-5.22 5.208-2.883 0-5.22-2.332-5.22-5.208 0-2.877 2.337-5.209 5.22-5.209 2.883 0 5.22 2.332 5.22 5.209" transform="translate(-60 -244) translate(60 244) translate(82.527 29.627)"/>
                    <path fill="#BBDEFB" d="M9.077 7.94c0 2.122-1.724 3.842-3.85 3.842-2.128 0-3.852-1.72-3.852-3.842 0-2.123 1.724-3.843 3.851-3.843s3.851 1.72 3.851 3.843" transform="translate(-60 -244) translate(60 244) translate(82.527 29.627)"/>
                    <path fill="#1272DB" d="M6.234 8.117c.415-.308.687-.797.687-1.353 0-.934-.758-1.692-1.695-1.692-.936 0-1.695.758-1.695 1.692 0 .556.273 1.045.688 1.353-.997.34-1.762 1.163-2.023 2.19.706.897 1.8 1.476 3.03 1.476 1.231 0 2.325-.579 3.03-1.476-.26-1.027-1.025-1.85-2.022-2.19" transform="translate(-60 -244) translate(60 244) translate(82.527 29.627)"/>
                    <path stroke="#82BEF4" stroke-linejoin="round" d="M95.394 11.888h-18.28c-2.18 0-3.948-1.763-3.948-3.939 0-2.175 1.768-3.938 3.948-3.938h18.28c2.18 0 3.947 1.763 3.947 3.938 0 2.176-1.767 3.939-3.947 3.939z" transform="translate(-60 -244) translate(60 244) translate(82.527 29.627)"/>
                    <path stroke="#104FB5" stroke-linecap="round" stroke-linejoin="round" d="M76.338 8.296L96.169 8.296M15.612 10.14L27.433 10.14" transform="translate(-60 -244) translate(60 244) translate(82.527 29.627)"/>
                    <path stroke="#011E3B" stroke-linecap="round" stroke-linejoin="round" d="M32.851 5.939L38.019 5.939" transform="translate(-60 -244) translate(60 244) translate(82.527 29.627)"/>
                    <path fill="#D9ECF9" d="M41.325 7.398H13.542c-.353 0-.638-.284-.638-.636V4.69c0-.351.285-.636.638-.636h27.783c.352 0 .637.285.637.636v2.072c0 .352-.285.636-.637.636" transform="translate(-60 -244) translate(60 244) translate(82.527 29.627)"/>
                    <path stroke="#104FB5" stroke-linecap="round" stroke-linejoin="round" d="M15.612 5.939L30.55 5.939" transform="translate(-60 -244) translate(60 244) translate(82.527 29.627)"/>
                    <path fill="#D9ECF9" d="M24.431 138.19H.63c-.315 0-.57-.255-.57-.57v-2.637c0-.314.255-.569.57-.569H24.43c.315 0 .57.255.57.57v2.637c0 .314-.255.569-.57.569M77.96 138.19H28.34c-.315 0-.57-.255-.57-.57v-2.637c0-.314.255-.569.57-.569H77.96c.314 0 .57.255.57.57v2.637c0 .314-.256.569-.57.569" transform="translate(-60 -244) translate(60 244) translate(82.527 29.627)"/>
                    <path stroke="#104FB5" stroke-linecap="round" stroke-linejoin="round" d="M2.383 136.456L8.92 136.456M10.896 136.456L21.616 136.456" transform="translate(-60 -244) translate(60 244) translate(82.527 29.627)"/>
                    <path stroke="#82BEF4" stroke-linejoin="round" d="M30.893 136.456L70.058 136.456" transform="translate(-60 -244) translate(60 244) translate(82.527 29.627)"/>
                    <path fill="#D9ECF9" d="M50.25 143.866H.63c-.315 0-.57-.255-.57-.569v-2.638c0-.314.255-.568.57-.568H50.25c.314 0 .57.254.57.568v2.638c0 .314-.256.57-.57.57" transform="translate(-60 -244) translate(60 244) translate(82.527 29.627)"/>
                    <path stroke="#82BEF4" stroke-linejoin="round" d="M3.183 142.132L42.348 142.132M5.849 127.766c-.09-.576-.557-1.048-1.132-1.146-.658-.111-1.243.238-1.499.774-.256-.536-.841-.885-1.499-.774-.575.098-1.042.57-1.132 1.146-.074.471.09.908.39 1.208l1.986 1.98c.14.141.37.141.51 0l1.985-1.98c.301-.3.465-.737.39-1.208zM23.74 129.801c.256-.32.412-.71.412-1.137 0-1.064-.939-1.927-2.097-1.927-1.159 0-2.097.863-2.097 1.927s.938 1.926 2.097 1.926c.326 0 .63-.074.906-.196l1.191.529-.412-1.122zM27.792 126.903L29.6 128.352 29.989 130.757 32.919 126.903zM29.6 128.352L32.919 126.903M103.161 131.302L101.149 130.324 99.137 131.302 99.137 126.489 103.161 126.489z" transform="translate(-60 -244) translate(60 244) translate(82.527 29.627)"/>
                    <path fill="#1272DB" d="M103.161.755c0 .245-.2.443-.445.443s-.444-.198-.444-.443.199-.444.444-.444c.246 0 .445.199.445.444M103.161 2.393c0 .245-.2.443-.445.443s-.444-.198-.444-.443.199-.444.444-.444c.246 0 .445.199.445.444M103.161 4.031c0 .245-.2.444-.445.444s-.444-.199-.444-.444.199-.443.444-.443c.246 0 .445.198.445.443" transform="translate(-60 -244) translate(60 244) translate(82.527 29.627)"/>
                </g>
                <text fill="#82BEF4" font-family="Montserrat-Regular, Montserrat" font-size="11" transform="translate(-60 -244) translate(60 244)">
                    <tspan x="90.473" y="165.23">1</tspan> <tspan x="90.473" y="179.23">3</tspan> <tspan x="90.473" y="193.23">k</tspan>
                </text>
                <g>
                    <path fill="#FFCDC2" d="M17.737 40.265s-.99-2.312-.705-2.396c.286-.083.904.54 1.9 1.921.997 1.38 2.823 4.481 2.823 4.481l5.1 3.438s-4.72 5.185-4.948 4.978c-.229-.207-5.598-6.873-5.598-6.873l.257-4.864" transform="translate(-60 -244) translate(60 244) translate(25.579 36.37)"/>
                    <path fill="#00316E" d="M27.04 151.248v-1.17H11.765c-.742 0-1.428-.388-1.808-1.023l-.13-.024v1.882c0 .07.026.137.074.188l.045.048c.306.326.735.51 1.182.51h15.5c.227 0 .412-.184.412-.411" transform="translate(-60 -244) translate(60 244) translate(25.579 36.37)"/>
                    <path fill="#FFCDC2" d="M31.722 129.838l-5.237 14.738-.5 5.093H11.29c-.488 0-.884-.396-.884-.882 0-.366.226-.693.567-.824l8.258-3.173 3.128-16.523" transform="translate(-60 -244) translate(60 244) translate(25.579 36.37)"/>
                    <path fill="#FF7137" d="M19.578 143.96l-9.126 3.978c-.377.165-.626.575-.626 1.033 0 .611.63 1.107 1.17 1.107H27.04l-.536-5.699s-2.809 1.891-6.926-.42" transform="translate(-60 -244) translate(60 244) translate(25.579 36.37)"/>
                    <path stroke="#00316E" stroke-linecap="round" d="M17.633 144.363c.515.664.953 1.389 1.3 2.154M16.485 145.056c.534.731.749 1.153 1.07 1.832M15.514 145.563c.363.481.688 1.148.97 1.68" transform="translate(-60 -244) translate(60 244) translate(25.579 36.37)"/>
                    <path fill="#00224C" d="M57.146 67.337s-1.131 4.748-5.106 13.253c-1.578 3.376-8.865 17.084-11.138 28.07-1.076 5.201-7.136 30.82-7.136 30.82l-14.257-2.856s3.436-25.688 4.982-34.828c1.547-9.14 10.518-33.193 10.518-33.193s2.482-4.57 4.502-8.589" transform="translate(-60 -244) translate(60 244) translate(25.579 36.37)"/>
                    <path stroke="#006BE1" stroke-width=".75" d="M31.424 138.968L39.43 103.378 50.953 73.425" transform="translate(-60 -244) translate(60 244) translate(25.579 36.37)"/>
                    <path fill="#00316E" d="M61.812 142.493l-.589-1.011-13.214 7.648c-.64.37-1.43.378-2.077.02l-.125.045.945 1.627c.036.06.093.106.16.126l.063.019c.428.128.892.074 1.28-.15l13.406-7.76c.198-.114.265-.367.15-.564" transform="translate(-60 -244) translate(60 244) translate(25.579 36.37)"/>
                    <path fill="#FFCDC2" d="M51.414 119.253l6.562 17.748 2.128 4.656-12.71 7.356c-.423.245-.964.101-1.21-.32-.182-.316-.152-.712.077-.996l5.548-6.88-8.248-15.412" transform="translate(-60 -244) translate(60 244) translate(25.579 36.37)"/>
                    <path fill="#FF7137" d="M51.691 139.925l-5.892 8.01c-.244.332-.253.812-.023 1.208.307.528 1.102.642 1.57.37l13.877-8.031-3.329-4.661s-1.48 3.042-6.203 3.104" transform="translate(-60 -244) translate(60 244) translate(25.579 36.37)"/>
                    <path stroke="#00316E" stroke-linecap="round" d="M50.212 141.249c.78.315 1.523.723 2.208 1.211M49.567 142.422c.83.365 1.228.623 1.847 1.05M48.983 143.347c.556.235 1.172.649 1.684.968" transform="translate(-60 -244) translate(60 244) translate(25.579 36.37)"/>
                    <path fill="#00316E" d="M39.624 63.453s-1.131 5.904-1.628 7.228c-4.478 11.928-8.961 28.921-8.961 33.126 0 6.764 16.776 34.12 16.776 34.12l11.373-4.88L46.22 103.44l8.149-19.434s5.807-5.988 2.777-16.67" transform="translate(-60 -244) translate(60 244) translate(25.579 36.37)"/>
                    <path stroke="#006BE1" stroke-width=".75" d="M56.041 129.959L44.075 135.043M55.157 133.917l-11.314-30.402L52.42 82.82s3.447-4.747 3.447-9.981M53.837 80.42s-6.77-2.572-6.77-6.405M34.46 136.539L19.923 133.546" transform="translate(-60 -244) translate(60 244) translate(25.579 36.37)"/>
                    <path fill="#FF7137" d="M44.075 27.386s-8.148-.562-12.29 20.895c0 0-5.884-4.022-8.308-3.681-1.228.172-4.705 4.822-4.705 6.534 0 1.463 8.313 9.708 13.671 9.854 8.068.22 11.571-12.09 11.571-12.09M61.034 71.59s-.391 4.094-.93 4.126c-8.506.505-26.47-2.167-27.097-2.792-.118-1.352 1.456-6.338 1.456-6.338" transform="translate(-60 -244) translate(60 244) translate(25.579 36.37)"/>
                    <path fill="#FF7137" d="M37.406 38.794c2.313-9.11 6.123-10.328 6.123-10.328l7.632-2.186 6.177 7.656c6.454 16.517 7.02 35.459 4.198 38.275-2.822 2.816-24.965.17-27.44-2.248-2.09-2.04 1.361-23.493 3.31-31.169" transform="translate(-60 -244) translate(60 244) translate(25.579 36.37)"/>
                    <path stroke="#9E381D" stroke-width=".75" d="M60.357 72.834s-13.119.261-26.58-3.365M33.777 60.988s1.23-19.15 5.306-25.843" transform="translate(-60 -244) translate(60 244) translate(25.579 36.37)"/>
                    <path fill="#33002C" d="M35.322 75.992L35.943 75.567 1.152 9.927 0.489 10.271z" transform="translate(-60 -244) translate(60 244) translate(25.579 36.37)"/>
                    <path fill="#33002C" d="M1.027 10.281l1.692.442c.086.022.17-.019.187-.092L5.14.804c.017-.073-.04-.15-.127-.173L3.321.19c-.086-.023-.17.018-.187.09L.9 10.109c-.017.073.04.15.127.173" transform="translate(-60 -244) translate(60 244) translate(25.579 36.37)"/>
                    <path fill="#64648E" d="M3.973.583l.856.223c.039.01.065.045.057.078l-2.172 9.551c-.007.033-.045.051-.084.041l-.856-.223c-.039-.01-.064-.045-.057-.078L3.89.624c.007-.033.045-.051.084-.041" transform="translate(-60 -244) translate(60 244) translate(25.579 36.37)"/>
                    <path fill="#33002C" d="M.412 8.58l1.137.22c.027.005.046.028.043.051l-.185 1.4.873.17c.027.005.047.028.043.051l-.127.965c-.003.023-.028.038-.055.032l-2.06-.397c-.027-.005-.047-.028-.044-.051l.32-2.408c.004-.023.028-.037.055-.032" transform="translate(-60 -244) translate(60 244) translate(25.579 36.37)"/>
                    <path fill="#FFCDC2" d="M66.687 58.801c-4.048 6.709-26.04 12.17-26.04 12.17l-5.429-3.931s15.55-8.28 20.265-11.908" transform="translate(-60 -244) translate(60 244) translate(25.579 36.37)"/>
                    <path fill="#FFCDC2" d="M36.474 66.586s-1.38-.719-2.834-.303c-1.453.415-2.094.989-2.094.989l.474.893c.11.162.115.345-.037.468-.17.138-.423.101-.547-.08l-.433-.71s-1.293 1.078-.732 1.894c.4.581.874.265.874.265s-.608.455-.171 1.18c.252.421 1.024.168 1.024.168s-.557.766-.182 1.14c.375.375.958.348.958.348s-.627.675 0 1.036c1.707.983 8.982-3.485 8.982-3.485" transform="translate(-60 -244) translate(60 244) translate(25.579 36.37)"/>
                    <path fill="#FF7137" d="M51.125 26.28s8.715 1.602 12.151 7.74c4.162 7.436 6.27 22.816 4.377 25.994-3.316 5.57-21.328 11.352-22.672 10.01-1.865-1.86-3.646-6.28-3.503-6.973.696-3.355 14.423-9.827 14.423-9.827L53.023 39.65" transform="translate(-60 -244) translate(60 244) translate(25.579 36.37)"/>
                    <path stroke="#9E381D" stroke-width=".75" d="M53.364 41.03l2.574 12.194s-14.364 7.524-14.46 9.826c-.071 1.716 2.385 6.346 3.54 6.974 4.009 2.184 17.957-6.14 17.957-6.14" transform="translate(-60 -244) translate(60 244) translate(25.579 36.37)"/>
                    <path fill="#FF7137" d="M52.798 24.432c3.135.568 6.4 3.565 7.667 6.481-.222-.51-2.44-.613-2.92-.64-1.152-.065-2.309.053-3.447.23-2.251.35-4.432.933-6.681 1.288-.969.152-2 .188-2.89-.224-1.228-.568-1.976-2.007-1.757-3.34.618-3.75 7.18-4.312 10.028-3.795" transform="translate(-60 -244) translate(60 244) translate(25.579 36.37)"/>
                    <path stroke="#9E381D" stroke-width=".75" d="M60.465 30.913c-.222-.51-2.44-.613-2.92-.64-1.152-.065-2.308.053-3.446.23-2.252.35-4.433.933-6.682 1.288-.969.152-2 .188-2.89-.224-1.227-.568-1.976-2.007-1.757-3.34" transform="translate(-60 -244) translate(60 244) translate(25.579 36.37)"/>
                    <path fill="#9E381D" d="M49.134 30.345c-.334 1.761-.467 3.564-.57 5.351-.103 1.76-.268 3.625-.028 5.377.01.069.107.044.114-.015.18-1.767.062-3.584.153-5.362.091-1.784.3-3.557.418-5.339.002-.049-.078-.06-.087-.012M43.562 29.855c-.533 2.52-.768 5.232-.729 7.805.001.075.109.072.116 0 .248-2.593.509-5.195.724-7.79.005-.063-.098-.077-.111-.015" transform="translate(-60 -244) translate(60 244) translate(25.579 36.37)"/>
                    <path fill="#FFCDC2" d="M12.866 39.766c0-.701.554-1.266 1.094-1.715.326-.27.663-.532 1.042-.721.297-.149.637-.251.962-.182.326.07.622.354.611.686-.002.084-.023.162-.056.235.315.079.594.355.584.678-.003.083-.024.161-.056.234.314.08.594.356.584.678-.003.084-.024.162-.057.235.315.08.595.355.584.678-.01.34-.308.59-.58.795l-.67.5c.123.196.232.397.319.61.214.28.394.586.527.912.555.729.867 1.645.812 2.56l-.34 1.726c-.456-.35-5.36-4.805-5.36-7.909" transform="translate(-60 -244) translate(60 244) translate(25.579 36.37)"/>
                    <path fill="#EA967D" d="M18.343 41.136c.156-.465-.051-1.065-.583-1.12-.762-.079-1.762.59-2.3 1.055-.067.058.018.142.087.113.456-.196.851-.505 1.299-.719.235-.112.612-.289.887-.255.439.054.6.527.508.898-.017.066.08.092.102.028" transform="translate(-60 -244) translate(60 244) translate(25.579 36.37)"/>
                    <path fill="#EA967D" d="M17.732 40.188c.157-.465-.05-1.065-.583-1.12-.761-.08-1.761.59-2.3 1.055-.066.058.02.142.087.113.457-.196.852-.505 1.3-.719.234-.112.612-.289.887-.255.439.054.6.527.508.898-.017.066.08.092.101.028" transform="translate(-60 -244) translate(60 244) translate(25.579 36.37)"/>
                    <path fill="#EA967D" d="M17.122 39.24c.157-.465-.05-1.065-.583-1.12-.761-.079-1.761.59-2.3 1.056-.067.057.019.141.087.112.456-.196.852-.505 1.3-.719.234-.111.612-.289.887-.254.438.053.6.526.507.897-.016.066.08.092.102.028M18.292 41.084c-.604.012-1.424.423-1.816.856-.03.033-.043.088-.017.128.288.431.699.728.957 1.213.343.645.58 1.305.746 2.016.018.077.146.062.14-.02-.052-.88-.455-1.822-.938-2.554-.18-.273-.585-.497-.473-.819.098-.283 1.18-.69 1.41-.746.042-.01.033-.074-.01-.074" transform="translate(-60 -244) translate(60 244) translate(25.579 36.37)"/>
                    <path fill="#33002C" d="M3.368 16.061L4.291 15.571 3.235 13.592 2.312 14.082z" transform="translate(-60 -244) translate(60 244) translate(25.579 36.37)"/>
                    <path fill="#FFCDC2" d="M42.759 22.157l4.115-7.123 3.23 5.686-.215 1.306 1.273 4.722 1.686.637c-1.781 1.778-5.638 3.156-7.83 2.677-.74-.161-1.26-1.178-1.489-1.596l-.77-6.31" transform="translate(-60 -244) translate(60 244) translate(25.579 36.37)"/>
                    <path fill="#FFCDC2" d="M44.776 10.894c-1.821 1.89-6.642 9.078-5.3 10.86 1.34 1.78 5.363 3.017 7.163 2.254 1.56-.662 5.906-6.444 5.115-8.879-.79-2.434-4.424-6.884-6.978-4.235" transform="translate(-60 -244) translate(60 244) translate(25.579 36.37)"/>
                    <path fill="#33002C" d="M47.99 15.117v-.561c-2.418-.59-4.764-1.795-7.247-1.95.587-5.985 7.228-4.848 8.56-4.24 1.33.61 2.423 1.662 3.26 2.861.288.415.557.876.566 1.38 1.261.553 2.015 1.959 2.028 3.332.013 1.374-.618 2.693-1.5 3.748-.675.81-1.493 1.484-2.339 2.11-.19.14-1.134 1.216-1.134 1.216s-.971-.646-1.262-1.121c-.393-.64-.518-1.52-.643-2.25-.256-1.493-.286-3.012-.29-4.525" transform="translate(-60 -244) translate(60 244) translate(25.579 36.37)"/>
                    <path fill="#FFCDC2" d="M48.239 18.972c.435-.274.967-.56 1.402-.37.226.1.373.315.446.548.375 1.2-.375 2.695-1.636 2.995-.527.125-1.095.002-1.174-.62l.742-2.313c.02-.106.125-.18.22-.24" transform="translate(-60 -244) translate(60 244) translate(25.579 36.37)"/>
                    <path stroke="#EA967D" stroke-width=".75" d="M43.212 23.93s2.324.768 3.61-.016" transform="translate(-60 -244) translate(60 244) translate(25.579 36.37)"/>
                    <path fill="#FFCDC2" d="M42.246 14.875s-3.08 1.5-3.023 2.248c.058.747 1.2.95 1.2.95" transform="translate(-60 -244) translate(60 244) translate(25.579 36.37)"/>
                    <path fill="#33002C" d="M43.758 15.47c-.127.113-.22.31-.292.42-.127.196.033.428.252.47.407.08.797-.77.342-.957-.118-.048-.217-.01-.302.066" transform="translate(-60 -244) translate(60 244) translate(25.579 36.37)"/>
                    <path fill="#FFF" d="M40.835 19.052l3.43.798s-1.135 2.316-3.111 1.659c-1.202-.4-.319-2.457-.319-2.457" transform="translate(-60 -244) translate(60 244) translate(25.579 36.37)"/>
                    <path fill="#33002C" d="M43.852 14.312c.563.321 1.102.79 1.483 1.283.074.001.372-.188.375-.393.002-.162-.717-.964-1.533-1.392 0 0-.397.368-.325.502" transform="translate(-60 -244) translate(60 244) translate(25.579 36.37)"/>
                    <path stroke="#EA967D" stroke-width=".75" d="M49.056 21.89s-1.069.547-1.718-.131" transform="translate(-60 -244) translate(60 244) translate(25.579 36.37)"/>
                    <path stroke="#9E381D" stroke-width=".75" d="M43.53 28.466s.313 3.602 6.654.664c2.336-1.081 2.16-1.745 4.973-1.745" transform="translate(-60 -244) translate(60 244) translate(25.579 36.37)"/>
                    <path fill="#FFDACF" d="M197.617 45.728l3.334 9.571s-.101 10.96-5.01 10.552c-4.909-.407-9.921-17.047-9.921-17.047" transform="translate(-60 -244) translate(60 244) translate(25.579 36.37)"/>
                    <path fill="#FFC107" d="M180.18 30.276s12.683 1.974 16.645 11.573c3.961 9.599 3.89 10.477 3.89 10.477l-13.568 4.625-2.496-9.226" transform="translate(-60 -244) translate(60 244) translate(25.579 36.37)"/>
                    <path fill="#FFDACF" d="M206.216 39.567l-10.965 16.096s-5.122 6.889-.032 10.128c8.401 5.348 15.074-23.563 15.074-23.563" transform="translate(-60 -244) translate(60 244) translate(25.579 36.37)"/>
                    <path stroke="#F7A794" stroke-linejoin="round" stroke-width=".75" d="M193.588 58.752s1.51-3.776 2.97-5.01" transform="translate(-60 -244) translate(60 244) translate(25.579 36.37)"/>
                    <path fill="#FFDACF" d="M205.53 41.41c-.246-2.477-.544-8.053 3.395-7.535.53.07 1.755.655 1.829 1.278.128 1.08-1.947.467-2.445.435.26.626.524 1.273.522 1.95-.001.678-.335 1.402-.963 1.656" transform="translate(-60 -244) translate(60 244) translate(25.579 36.37)"/>
                    <path fill="#FFDACF" d="M206.172 41.463c.044-1.896 1.54-12.572 2.675-12.478 1.135.094.206 3.675.46 5.401.539-1.767 1.842-5.616 2.38-4.984.536.633-.25 3.539-.884 5.187.276-.389.927-.367 1.25-.017.322.351.332.914.112 1.337.25-.48 1-.337 1.297.017.412.492.106 1.524-.13 2.066-.262.598-.783 1.12-1.43 1.213.381.983-.068 2.089-.71 2.866-.59.715-1.496 1.183-2.422 1.16" transform="translate(-60 -244) translate(60 244) translate(25.579 36.37)"/>
                    <path fill="#F7A794" d="M207.448 34.014c.283-.03.566-.04.85-.043.285-.002.57-.002.855.023.285.023.572.055.859.123.143.033.287.073.431.13.144.058.292.13.427.269.144.127.217.409.14.601-.026.092-.085.185-.12.239-.06.083-.119.147-.18.203-.256.22-.542.34-.824.438-.284.097-.571.158-.859.201-.289.044-.572.074-.87.084l.175-.367c.413.589.764 1.204 1.01 1.881.114.339.21.693.203 1.06-.001.183-.028.368-.097.538-.067.17-.19.315-.334.413.058-.066.11-.135.15-.21.037-.076.067-.154.086-.235.039-.162.036-.33.012-.494-.054-.329-.172-.647-.317-.952-.292-.608-.671-1.19-1.08-1.724-.076-.1-.057-.244.044-.32.037-.03.081-.045.125-.048h.007c.537-.033 1.091-.125 1.597-.278.25-.08.493-.186.667-.334.046-.035.082-.076.11-.104.043-.061.061-.088.078-.13.023-.075.023-.107-.034-.18-.125-.142-.391-.257-.642-.336-.258-.08-.528-.144-.8-.197-.548-.11-1.106-.183-1.669-.251" transform="translate(-60 -244) translate(60 244) translate(25.579 36.37)"/>
                    <path fill="#F7A794" d="M210.277 35.605c-.23.806-.372 1.613-.662 2.405-.152.415-.192.677.31.762.472.082.987-.068 1.295-.44.442-.535.794-1.465.923-2.136.015-.082-.082-.119-.131-.055-.339.441-.532.962-.764 1.463-.124.265-.237.548-.503.712-.194.119-.642.26-.815.056-.157-.187.274-1.085.34-1.37.105-.451.191-.913.158-1.377-.005-.084-.126-.108-.151-.02" transform="translate(-60 -244) translate(60 244) translate(25.579 36.37)"/>
                    <path fill="#C96E4B" d="M211.692 39.033c-.252-.019-.374-.28-.4-.496-.014-.122.007-.19-.085-.276-.025-.023-.068-.027-.091 0-.144.16-.034.486.068.65.12.193.302.268.52.214.054-.013.038-.088-.012-.092" transform="translate(-60 -244) translate(60 244) translate(25.579 36.37)"/>
                    <path fill="#051123" d="M139.265 151.21v-1.054h14.719c.667 0 1.286-.35 1.628-.923l.118-.02v1.695c0 .063-.024.124-.067.17l-.04.043c-.277.294-.663.46-1.066.46h-14.92c-.205 0-.372-.166-.372-.371" transform="translate(-60 -244) translate(60 244) translate(25.579 36.37)"/>
                    <path fill="#FFDACF" d="M145.029 131.916l-4.311 13.281-.5 4.59h14.192c.441 0 .798-.356.798-.795 0-.33-.204-.625-.511-.743l-7.525-3.607 6.294-14.142" transform="translate(-60 -244) translate(60 244) translate(25.579 36.37)"/>
                    <path fill="#FFC107" d="M147.172 144.642l7.993 3.585c.341.149.565.518.565.932 0 .55-.568.997-1.055.997h-15.41l1.435-5.136s2.761 1.704 6.472-.378" transform="translate(-60 -244) translate(60 244) translate(25.579 36.37)"/>
                    <path stroke="#00276F" stroke-linecap="round" stroke-linejoin="round" d="M148.695 145.006c-.465.598-.859 1.25-1.172 1.94M149.73 145.63c-.483.659-.675 1.04-.964 1.65M150.604 146.087c-.327.433-.62 1.034-.874 1.515" transform="translate(-60 -244) translate(60 244) translate(25.579 36.37)"/>
                    <path fill="#051123" d="M171.235 151.21v-1.054h14.719c.668 0 1.286-.35 1.628-.923l.118-.02v1.695c0 .063-.024.124-.067.17l-.04.043c-.277.294-.663.46-1.066.46h-14.92c-.205 0-.372-.166-.372-.371" transform="translate(-60 -244) translate(60 244) translate(25.579 36.37)"/>
                    <path fill="#FFDACF" d="M174.235 131.916l-1.547 13.281-.5 4.59h14.193c.44 0 .796-.356.796-.795 0-.33-.203-.625-.51-.743l-7.525-3.607 3.53-14.142" transform="translate(-60 -244) translate(60 244) translate(25.579 36.37)"/>
                    <path fill="#FFC107" d="M179.142 144.642l7.994 3.585c.34.149.564.518.564.932 0 .55-.568.997-1.054.997h-15.41l1.435-5.136s2.761 1.704 6.47-.378" transform="translate(-60 -244) translate(60 244) translate(25.579 36.37)"/>
                    <path stroke="#00276F" stroke-linecap="round" stroke-linejoin="round" d="M180.665 145.006c-.465.598-.859 1.25-1.172 1.94M181.7 145.63c-.482.659-.675 1.04-.964 1.65M182.574 146.087c-.327.433-.62 1.034-.874 1.515" transform="translate(-60 -244) translate(60 244) translate(25.579 36.37)"/>
                    <path fill="#00224C" d="M177.386 74.15s8.703 24.532 8.97 34.803c.253 9.755 2.2 35.209 2.2 35.209H171.81s-2.16-28.59-2.376-36.921c-.078-3.004-12.602-39.275-12.602-39.275" transform="translate(-60 -244) translate(60 244) translate(25.579 36.37)"/>
                    <path stroke="#006BE1" stroke-width=".75" d="M174.867 144.162s-2.939-35.075-3.825-38.075c-1.5-5.076-7.392-27.998-7.392-27.998" transform="translate(-60 -244) translate(60 244) translate(25.579 36.37)"/>
                    <path fill="#00316E" d="M165.213 70.539s1.53 32.228.416 38.82c-1.114 6.594-11.115 36.197-11.115 36.197l-16.07-4.97c8.581-24.712 9.557-30.169 10.71-34.837.778-3.155-9.276-31.374.074-40.343" transform="translate(-60 -244) translate(60 244) translate(25.579 36.37)"/>
                    <path stroke="#006BE1" stroke-width=".75" d="M140.585 141.248S152.1 109.44 152.1 106.314c0-3.126-6.522-29.235-1.843-37.55M155.586 74.138s-1.548 3.28-7.034 3.951" transform="translate(-60 -244) translate(60 244) translate(25.579 36.37)"/>
                    <path fill="#FFC107" d="M190.072 44.103L179.8 79.045c-3.786.257-17.737 1.652-34.526-9.598L162.47 34.35l6.073-5.04s8.597.497 13.298 2.465c4.701 1.967 8.231 12.328 8.231 12.328" transform="translate(-60 -244) translate(60 244) translate(25.579 36.37)"/>
                    <path stroke="#D36A13" stroke-width=".75" d="M186.661 55.156L190.072 44.103" transform="translate(-60 -244) translate(60 244) translate(25.579 36.37)"/>
                    <path fill="#FFDACF" d="M154.852 36.91s-9.026 8.313-10.249 13.867c-1.879 8.535 6.21 23.612 6.21 23.612s-1.25 1.86-.748 3.246c3.22-.742 4.457-2.427 4.457-2.427l-.36-2.224s.1-16.168.69-18.28c.752-2.692 10.532-11.924 10.532-11.924" transform="translate(-60 -244) translate(60 244) translate(25.579 36.37)"/>
                    <path fill="#FFC107" d="M176.41 29.296s-7.245-2.157-14.037.413c-5.234 1.982-13.096 12.164-13.096 12.164l11.68 8.904 8.608-10.803" transform="translate(-60 -244) translate(60 244) translate(25.579 36.37)"/>
                    <path stroke="#D36A13" stroke-width=".75" d="M149.277 41.873L160.957 50.777 169.565 39.974" transform="translate(-60 -244) translate(60 244) translate(25.579 36.37)"/>
                    <path fill="#FFDACF" d="M184.901 28.163l-.392 4.45s-.646 2.592-4.2 1.708c-5.242-1.302-5.193-4.307-5.193-4.307l3.73-7.639" transform="translate(-60 -244) translate(60 244) translate(25.579 36.37)"/>
                    <path fill="#FFDACF" d="M189.91 19.905s-.97 7.55-2.523 8.553c-2.326 1.503-5.903.248-6.992-1.317-.913-1.312-.17-6.073.286-7.203 1.241-3.065 8.265-2.299 9.229-.033" transform="translate(-60 -244) translate(60 244) translate(25.579 36.37)"/>
                    <path fill="#011E3B" d="M180.511 16.575c1.237-.457 2.624-.501 3.954-.4 2.78.21 5.483.99 8.16 1.766.38.11.85.355.78.743-.037.196-.208.335-.376.443-1.525.988-3.5.844-5.297.57-1.666-.252-3.32-.585-4.953-.996-.184 1.767-1.165 3.408-2.56 4.496-.459.357-1.605 1.247-2.237 1.06-.867-.258-.484-1.501-.417-2.14.107-1.03.495-2.594.891-3.588.36-.9.411-1.112 1.254-1.586.258-.145.526-.267.801-.368" transform="translate(-60 -244) translate(60 244) translate(25.579 36.37)"/>
                    <path stroke="#F7A794" stroke-linejoin="round" stroke-width=".75" d="M184.608 29.275s-2.544-.486-3.815-2.01c-1.002-1.2-.82-2.974-.82-2.974" transform="translate(-60 -244) translate(60 244) translate(25.579 36.37)"/>
                    <path fill="#FFDACF" d="M181.675 22.382c-.047-.311-.413-.84-.699-.92-.285-.081-.602-.018-.88.12-1.307.646-1.109 2.965.354 3.307.537.126.67-.597.67-.597" transform="translate(-60 -244) translate(60 244) translate(25.579 36.37)"/>
                    <path stroke="#F7A794" stroke-linejoin="round" stroke-width=".75" d="M186.893 22.73s.383 1.969.23 2.356c-.153.387-1.255.176-1.255.176" transform="translate(-60 -244) translate(60 244) translate(25.579 36.37)"/>
                    <path fill="#011E3B" d="M184.852 22.574c-.032.19-.174.325-.318.3-.144-.024-.235-.197-.203-.387.032-.19.174-.324.318-.3.144.024.235.197.203.387M188.896 23.218c-.03.19-.173.324-.317.3-.144-.024-.235-.197-.203-.387.031-.19.173-.324.317-.3.145.024.235.197.203.387" transform="translate(-60 -244) translate(60 244) translate(25.579 36.37)"/>
                    <path fill="#FFF" d="M184.051 26.126l2.392.65s-.619 1.61-1.71 1.347c-1.34-.324-.682-1.997-.682-1.997" transform="translate(-60 -244) translate(60 244) translate(25.579 36.37)"/>
                    <path fill="#011E3B" d="M183.732 20.675c.072-.073.146-.145.22-.215.029-.026.058-.052.095-.063.043-.013.09-.003.135.009.352.09.696.22 1.02.387.147.076.325.154.45.263.167.144.138.134-.013.301-.015.017-.03.034-.052.041-.036.012-.073-.008-.105-.027-.523-.305-1.108-.504-1.708-.58-.032-.004-.07-.013-.077-.044-.007-.025.013-.05.035-.072M189.53 21.96c-.025-.095-.05-.19-.08-.281-.01-.035-.022-.07-.045-.095-.026-.028-.065-.036-.1-.042-.29-.051-.586-.062-.882-.032-.134.013-.292.018-.423.07-.174.068-.15.071-.102.282.005.021.01.043.023.057.021.025.055.02.086.016.49-.083.988-.043 1.45.115.024.008.055.014.072-.01.014-.022.01-.052 0-.08" transform="translate(-60 -244) translate(60 244) translate(25.579 36.37)"/>
                    <path fill="#0074E7" d="M190.752 17.407l-12.388 1.37s-.181-4.702 4.086-5.697c7.014-1.636 8.302 4.327 8.302 4.327" transform="translate(-60 -244) translate(60 244) translate(25.579 36.37)"/>
                    <path fill="#0074E7" d="M182.83 13.763c.023.001.047 0 .07-.005.13-.027.211-.154.184-.283l-.315-1.468c-.028-.129-.155-.21-.284-.183-.13.027-.211.154-.184.283l.315 1.468c.023.105.112.179.214.188" transform="translate(-60 -244) translate(60 244) translate(25.579 36.37)"/>
                    <path stroke="#0E3DA8" stroke-linejoin="round" stroke-width=".5" d="M187.753 17.738c-.493-4.541-5.012-4.72-5.012-4.72l.61 5.207" transform="translate(-60 -244) translate(60 244) translate(25.579 36.37)"/>
                    <path stroke="#0E3DA8" stroke-width=".5" d="M179.591 18.64s-.386-4.627 3.15-5.622" transform="translate(-60 -244) translate(60 244) translate(25.579 36.37)"/>
                    <path stroke="#D36A13" stroke-width=".75" d="M185.766 32.426s.084 4.48-6.542 2.92c-6.626-1.56-5.465-6.212-5.465-6.212" transform="translate(-60 -244) translate(60 244) translate(25.579 36.37)"/>
                    <path fill="#FFDACF" d="M235.362 93.31l-2.447-3.99-13.3 10.627-9.196-7.008-4.015 11.457s8.617 5.759 12.43 5.97c5.94.33 16.528-17.056 16.528-17.056" transform="translate(-60 -244) translate(60 244) translate(25.579 36.37)"/>
                    <path fill="#FFDACF" d="M232.305 90.272c.363-.87 2.057-4.124 2.69-4.857.151-.175.308-.355.513-.463.218-.114.471-.137.718-.146.789-.029 1.576.06 2.36.15 1.06.12 2.862-.045 2.936 1.46.021.436-.311.894-.748.911.304.203.493.568.483.933-.014.513-.85.527-1.2.57.367.186.791.462.767.872-.016.277-.251.502-.514.594-.262.091-.548.077-.825.062.133.125.272.257.33.43.108.323-.118.684-.423.834-.307.149-1.01-.004-1.23-.043-.498.495-1.193 1.098-1.77 1.366-.331.154-.668.31-1.03.366-.708.106-1.464-.219-1.872-.805" transform="translate(-60 -244) translate(60 244) translate(25.579 36.37)"/>
                    <path fill="#33002C" d="M238.442 87.04L237.877 86.655 257.379 51.132 257.983 51.446z" transform="translate(-60 -244) translate(60 244) translate(25.579 36.37)"/>
                    <path fill="#33002C" d="M257.494 51.454l-1.54.402c-.079.02-.155-.017-.17-.083l-2.033-8.941c-.015-.067.037-.137.115-.158l1.54-.401c.079-.021.155.016.17.082l2.033 8.942c.015.066-.036.137-.115.157" transform="translate(-60 -244) translate(60 244) translate(25.579 36.37)"/>
                    <path fill="#64648E" d="M254.813 42.63l-.779.204c-.035.009-.059.04-.052.07l1.976 8.69c.007.03.041.047.076.038l.78-.203c.035-.01.059-.041.051-.071l-1.976-8.69c-.006-.03-.04-.047-.076-.038" transform="translate(-60 -244) translate(60 244) translate(25.579 36.37)"/>
                    <g transform="translate(-60 -244) translate(60 244) translate(25.579 36.37) translate(256.27 49.603)">
                        <mask id="wiq3euq8hp" fill="#fff">
                            <use xlink:href="#s4m3ipag6o"/>
                        </mask>
                        <path fill="#33002C" d="M1.783.304l-1.034.2C.725.508.707.529.71.55l.17 1.275-.795.153c-.024.005-.042.026-.04.047l.116.878c.003.02.026.034.05.03l1.875-.362c.024-.005.042-.026.04-.047L1.832.334c-.003-.021-.025-.035-.05-.03" mask="url(#wiq3euq8hp)"/>
                    </g>
                    <path fill="#FFDACF" d="M236.907 85.185c.465.186.933.366 1.391.568.394.173.81.244 1.187.467.265.158.528.345.68.613.153.268.17.635-.036.866-.153.172-.397.238-.628.229-.23-.009-.452-.082-.673-.148-.578-.173-1.171-.299-1.77-.377-.343-.044-.431.16-.571.43-.568 1.082-1.687 1.858-2.902 2.01" transform="translate(-60 -244) translate(60 244) translate(25.579 36.37)"/>
                    <path fill="#F7A794" d="M239.102 86.08c.268.045.356.224.267.536.19.343.116.524-.222.544-.185.073-.53.046-.735.035-.38-.02-.757-.084-1.133-.144-.098-.016-.166.07-.124.162.122.265-.37 1.11-.477 1.285-.452.725-1.053 1.238-1.831 1.584-.097.042-.027.188.07.164.976-.238 1.8-1.184 2.193-2.077.115-.262.124-.623.26-.862.18-.316-.176.009-.037-.025.114-.029.366.059.482.074.526.069 1.496.22 1.89-.28.392-.5-.084-.956-.574-1.064-.04-.01-.07.05-.03.068" transform="translate(-60 -244) translate(60 244) translate(25.579 36.37)"/>
                    <path fill="#F7A794" d="M239.836 88.79c-.899-.15-1.693-.24-2.462-.763-.043-.03-.08.032-.052.068.53.655 1.723.756 2.502.787.052.002.065-.083.012-.092M239.255 90.236c-.96-.09-1.692-.481-2.36-1.154-.03-.032-.101-.01-.096.04.046.433.565.676.921.846.484.23 1.002.344 1.535.37.066.002.064-.097 0-.102M238.313 91.587c-.472-.155-.925-.396-1.305-.718-.43-.364-.585-.753-.333-1.274.032-.066-.034-.142-.103-.103-.448.252-.293.892-.026 1.222.424.522 1.108.804 1.75.935.041.008.057-.05.017-.062" transform="translate(-60 -244) translate(60 244) translate(25.579 36.37)"/>
                    <path fill="#33002C" d="M187.59 74.403c-1.079 5.76-3.45 11.187-5.182 16.787-.225.73-.442 1.48-.402 2.241.019.355.115.742.406.947.253.179.59.175.9.158 1.942-.111 3.63-.638 5.462-1.148 1.76-.492 4.057-.288 5.878-.283 1.416.003 2.833.068 4.239.233.894.105 2.183.758 2.294-.404.04-.42-.143-.888-.14-1.318.002-.663.117-1.33.137-1.996.04-1.34-.04-2.68-.238-4.005-.292-1.96-.843-3.881-1.642-5.695-1.77-4.015-4.757-7.487-8.464-9.842" transform="translate(-60 -244) translate(60 244) translate(25.579 36.37)"/>
                    <path fill="#FF7137" d="M194.274 87.109s6.766-1.237 13.412 2.995c3.679 2.343 10.09 7.843 10.09 7.843l-6.13 11.006c-3.43-2.17-12.05-7.874-12.05-7.874" transform="translate(-60 -244) translate(60 244) translate(25.579 36.37)"/>
                    <path fill="#FF7137" d="M201.846 93.604s4.836 3.832 5.64 7.732c1.14 5.518-2.679 10.497-2.679 10.497s-.834 7.38 1.597 14.232c-14.383 10.47-30.76 5.766-30.76 5.766s1.964-31.609 9.96-39.588l4.61-3.734 10.538 1.584 1.094 3.51z" transform="translate(-60 -244) translate(60 244) translate(25.579 36.37)"/>
                    <path stroke="#9E381D" stroke-width=".75" d="M207.468 106.263s.557-6.64-4.258-11.444" transform="translate(-60 -244) translate(60 244) translate(25.579 36.37)"/>
                    <path fill="#FFDACF" d="M182.794 111.231L176.889 122.099 165.639 147.563 159.848 147.055 167.867 119.478 174.093 102.593" transform="translate(-60 -244) translate(60 244) translate(25.579 36.37)"/>
                    <path fill="#FFDACF" d="M165.629 146.68c.311.311 1.568 4.98-.312 4.98h-12.52c-2.037 0 2.028-2.528 3.83-3.345 1.803-.818 6.04-2.667 6.04-2.667" transform="translate(-60 -244) translate(60 244) translate(25.579 36.37)"/>
                    <path fill="#F7A794" d="M162.15 149.87s-.405.084-1.01.2c-.605.115-1.414.247-2.198.435-.196.047-.39.097-.57.162-.177.064-.362.138-.454.231-.021.022-.032.04-.037.053l-.02.069c0 .013-.003.027-.005.04-.007.063.003.117.036.167.062.102.21.175.34.226.275.096.533.141.71.165l.28.042s-.102.016-.284.029c-.18.006-.442.032-.763-.036-.157-.039-.349-.081-.502-.265-.076-.09-.12-.22-.117-.342.001-.071.012-.127.022-.167.017-.078.058-.144.1-.193.178-.188.374-.268.572-.347.2-.075.402-.134.606-.184.816-.193 1.641-.264 2.26-.29.62-.022 1.035.004 1.035.004" transform="translate(-60 -244) translate(60 244) translate(25.579 36.37)"/>
                    <path fill="#FF7137" d="M193.24 87.109s-12.036 0-16.996 8.907c-4.959 8.907-6.096 15.11-6.096 15.11l12.244 4.446 4.104-9.695" transform="translate(-60 -244) translate(60 244) translate(25.579 36.37)"/>
                    <path stroke="#9E381D" stroke-width=".75" d="M182.392 115.572L186.496 105.877" transform="translate(-60 -244) translate(60 244) translate(25.579 36.37)"/>
                    <path fill="#135DB7" d="M223.094 151.206v-1.064h13.9c.673 0 1.298-.353 1.644-.931l.119-.021v1.711c0 .064-.024.125-.068.172l-.04.043c-.28.297-.669.465-1.077.465H223.47c-.207 0-.376-.167-.376-.375" transform="translate(-60 -244) translate(60 244) translate(25.579 36.37)"/>
                    <path fill="#FFDACF" d="M218.835 131.726l4.748 13.231.472 4.813h13.37c.444 0 .805-.36.805-.803 0-.333-.205-.63-.516-.75l-7.83-3.642-2.53-14.278" transform="translate(-60 -244) translate(60 244) translate(25.579 36.37)"/>
                    <path fill="#00224C" d="M229.884 144.575l8.303 3.62c.344.15.57.524.57.94 0 .556-.574 1.007-1.065 1.007h-14.597l.487-5.185s2.556 1.72 6.302-.382" transform="translate(-60 -244) translate(60 244) translate(25.579 36.37)"/>
                    <path stroke="#0074E7" stroke-linecap="round" d="M231.654 144.942c-.47.605-.868 1.263-1.183 1.96M232.699 145.573c-.487.665-.682 1.05-.974 1.666M233.582 146.034c-.33.438-.626 1.045-.883 1.53" transform="translate(-60 -244) translate(60 244) translate(25.579 36.37)"/>
                    <path fill="#135DB7" d="M196.461 130.466s10.52-16.8 23.016-16.8c8.614 0 14.66 29.517 14.66 29.517H219.63l-2.441-9.262s-11.345 17.023-21.4 17.66c-3.903.247-9.711-.02-11.265-1.811-3.483-4.015-2.416-10.702 0-15.85" transform="translate(-60 -244) translate(60 244) translate(25.579 36.37)"/>
                    <path stroke="#00276F" stroke-width=".75" d="M233.649 140.759L218.992 140.759" transform="translate(-60 -244) translate(60 244) translate(25.579 36.37)"/>
                    <path fill="#0074E7" d="M211.646 151.206v-1.064h13.9c.673 0 1.298-.353 1.644-.931l.119-.021v1.711c0 .064-.025.125-.068.172l-.04.043c-.28.297-.67.465-1.077.465H212.02c-.207 0-.375-.167-.375-.375" transform="translate(-60 -244) translate(60 244) translate(25.579 36.37)"/>
                    <path fill="#FFDACF" d="M208.564 131.726l3.588 13.41.455 4.634h13.37c.444 0 .804-.36.804-.803 0-.333-.205-.63-.516-.75l-7.513-2.886-1.668-15.034" transform="translate(-60 -244) translate(60 244) translate(25.579 36.37)"/>
                    <path fill="#00316E" d="M218.668 144.575l8.071 3.62c.343.15.57.524.57.94 0 .556-.574 1.007-1.065 1.007h-14.598l.488-5.185s2.788 1.72 6.534-.382" transform="translate(-60 -244) translate(60 244) translate(25.579 36.37)"/>
                    <path stroke="#0074E7" stroke-linecap="round" d="M220.206 144.942c-.47.605-.868 1.263-1.184 1.96M221.25 145.573c-.486.665-.681 1.05-.973 1.666M222.133 146.034c-.33.438-.626 1.045-.883 1.53" transform="translate(-60 -244) translate(60 244) translate(25.579 36.37)"/>
                    <path fill="#0074E7" d="M175.644 131.831s5.246.863 9.215.2c4.185-4.296 14.424-19.757 25.644-18.364 7.61.944 13.328 30.464 13.328 30.464h-14.505l-2.922-10.21s-5.98 11.592-13.789 16.22c-2.075 1.231-5.612 1.44-7.61 1.44-13.94 0-11.266-12.718-9.36-19.75" transform="translate(-60 -244) translate(60 244) translate(25.579 36.37)"/>
                    <path stroke="#135DB7" d="M207.488 140.033s-3.368-16.21-4.278-17.118" transform="translate(-60 -244) translate(60 244) translate(25.579 36.37)"/>
                    <path stroke="#00276F" stroke-width=".75" d="M213.035 144.131s-7.087-24.369-8.859-25.219c-2.798-1.343-17.11 16.864-20.202 18.274-1.284.585-3.816.39-3.816-4.606M223.394 142.037L208.726 142.037M180.368 134.76s2.803-.777 3.575-2.606M174.13 140.033l2.775-.824s.883 4.629 2.076 6.825c-.419 1.53-1.945 3.156-1.945 3.156" transform="translate(-60 -244) translate(60 244) translate(25.579 36.37)"/>
                    <path stroke="#00276F" stroke-dasharray="2 1.5" stroke-width=".75" d="M176.102 140.033s.72 4.246 1.69 6.261c-.34 1.403-1.294 2.374-1.294 2.374" transform="translate(-60 -244) translate(60 244) translate(25.579 36.37)"/>
                    <path fill="#33002C" d="M194.301 68.577c-3.16-1.868-7.813.758-9.163 4.407-1.283 3.47-.543 10.341 5.842 10.336 1.541-.001 1.555-1.932 2.577-3.085" transform="translate(-60 -244) translate(60 244) translate(25.579 36.37)"/>
                    <path fill="#FFDACF" d="M191.367 81.638l-1.09 6.692s.72 2.539 4.118 2.539c2.425 0 2.182-2.418 2.182-2.418l-.97-6.813" transform="translate(-60 -244) translate(60 244) translate(25.579 36.37)"/>
                    <path fill="#FFDACF" d="M196.577 72.13c3.09 3.083 5.848 11.119.972 12.065-3.877.752-7.135-1.699-8.12-4.811-1.454-4.595 4.06-10.337 7.148-7.254" transform="translate(-60 -244) translate(60 244) translate(25.579 36.37)"/>
                    <path fill="#060A47" d="M198.442 76.18c0 .247-.2.446-.447.446-.246 0-.447-.2-.447-.445 0-.247.2-.446.447-.446s.447.2.447.446M193.504 77.973c0 .246.2.446.447.446s.447-.2.447-.446c0-.247-.2-.446-.447-.446-.246 0-.447.2-.447.446M194.558 76.152c-1.013-.413-2.307.121-2.523 1.252-.011.06.075.108.107.045.475-.943 1.311-1.452 2.38-1.163.088.024.117-.101.036-.134M198.606 74.61c-.78-.707-2.397-.186-2.264.982.007.06.08.07.103.013.158-.377.334-.76.708-.968.444-.249.948-.154 1.38.068.058.03.126-.046.073-.095" transform="translate(-60 -244) translate(60 244) translate(25.579 36.37)"/>
                    <path stroke="#F7A794" stroke-linejoin="round" stroke-width=".75" d="M196.376 76.758s1.727 1.838 1.545 2.257c-.3.693-1.337.693-1.337.693" transform="translate(-60 -244) translate(60 244) translate(25.579 36.37)"/>
                    <path fill="#FFF" d="M195.155 81.32l3.44-.898s.45 2.012-.675 2.321c-2.184.6-2.765-1.422-2.765-1.422" transform="translate(-60 -244) translate(60 244) translate(25.579 36.37)"/>
                    <path fill="#33002C" d="M187.158 73.383c.889-2.666 3.816-5.51 6.838-5.415 2.417.077 4.568 1.006 5.647 3.43.036.08-2.662 1.297-3.903 1.886l-4.544 2.156s.92 4.562-1.65 5.379c-2.107-.397-3.055-5.433-2.388-7.436" transform="translate(-60 -244) translate(60 244) translate(25.579 36.37)"/>
                    <path stroke="#F7A794" stroke-linejoin="round" stroke-width=".75" d="M196.027 84.581s-2.267.147-4.062-1.261" transform="translate(-60 -244) translate(60 244) translate(25.579 36.37)"/>
                    <path fill="#FFDACF" d="M191.055 79.556c-.656-.487-1.376-.136-1.641.147-.641.684-.386 1.758.203 2.487.66.818 1.361.846 1.825.677.463-.168.65-.852.365-1.557" transform="translate(-60 -244) translate(60 244) translate(25.579 36.37)"/>
                    <path fill="#00316E" d="M190.937 82.021c-.04-.076-.077-.118-.147-.166-.045-.03-.12-.03-.164 0-.071.048-.108.09-.148.166-.091.176.02.4.23.4.21 0 .32-.224.23-.4" transform="translate(-60 -244) translate(60 244) translate(25.579 36.37)"/>
                    <path fill="#33002C" d="M187.883 71.712c.106-1.47-.38-2.969-1.34-4.135-.36-.437-.8-.838-1.35-1.036-.55-.198-1.226-.157-1.664.212-.22.185-.366.437-.451.702-.276.863.1 1.816.724 2.501.626.685 1.472 1.154 2.302 1.61l.949.521" transform="translate(-60 -244) translate(60 244) translate(25.579 36.37)"/>
                    <path stroke="#9E381D" stroke-width=".75" d="M197.51 87.514s1.877 4.04-1.861 4.838c-3.74.797-5.94-.989-7.154-3.902" transform="translate(-60 -244) translate(60 244) translate(25.579 36.37)"/>
                </g>
            </g>
        </g>
    </g>
</svg>
