<svg xmlns="http://www.w3.org/2000/svg" width="117" height="25" viewBox="0 0 117 25">
    <g fill="none" fill-rule="evenodd">
        <g>
            <g>
                <g>
                    <g>
                        <path fill="#EC1E25" d="M0 11.486c.381.08.768.034 1.152.036 1.471.006 2.943.028 4.413-.008.76-.019 1.43.175 2.077.506 1.545.793 2.784 1.935 4.001 3.096.988.943 1.948 1.91 2.93 2.858.153.148.234.29.232.506-.024 1.876-.04 3.753-.04 5.629 0 .358-.155.344-.435.257-1.009-.314-1.834-.903-2.619-1.542-1.66-1.353-3.137-2.88-4.667-4.356C4.677 16.186 2.451 13.778 0 11.57v-.084z" transform="translate(-13 -10) translate(13 10)"/>
                        <path fill="#EC1E26" d="M22.47 0c-.07.15-.037.312-.037.468-.002 2.257-.021 4.515.005 6.773.02 1.766-.511 3.29-1.726 4.58-1.422 1.507-2.821 3.039-4.229 4.558-.163-.077-.094-.21-.094-.307-.005-3.092.002-6.184-.013-9.275-.001-.325.177-.494.358-.69L22.384 0h.086z" transform="translate(-13 -10) translate(13 10)"/>
                        <path fill="#EC1E25" d="M109.45 19.071c-.494.385-.985.774-1.653.85v-3.415c.993-.975 1.981-1.954 2.98-2.924.228-.221.484-.416.735-.615.698-.551 1.462-.867 2.41-.795.856.065 1.722.014 2.584.014v.085c-.835.693-1.567 1.485-2.349 2.23-.91.865-1.8 1.748-2.7 2.624-.745.578-1.412 1.229-2.008 1.946" transform="translate(-13 -10) translate(13 10)"/>
                        <path fill="#028547" d="M68.989 12.779c0 .842 0 .854.829.839.927-.017 1.859.089 2.78-.062 1.148-.188 1.865-1.143 1.797-2.342-.063-1.108-.758-1.735-1.975-1.84-1.026-.088-2.052-.053-3.077-.081-.315-.008-.37.106-.36.387.02.594.006 1.189.006 1.783v1.316zm.032 8.205c0 .147-.049.321.21.316 1.378-.03 2.756.033 4.135-.052 1.164-.072 2.272-1.378 1.897-2.862-.326-1.288-1.295-1.864-2.464-2.172-1.173-.31-2.38-.154-3.572-.184-.25-.007-.205.18-.206.326-.003.764-.001 1.529-.001 2.292v2.336zm9.152-2.914c.783 2.933-.807 5.294-3.845 5.764-.697.107-1.398.155-2.1.156-1.888.003-3.774-.006-5.66.008-.299.002-.376-.083-.376-.38.004-5.492 0-10.985-.013-16.478 0-.286.057-.385.364-.383 2.084.014 4.168-.002 6.251.011.841.006 1.647.21 2.386.62 1.571.874 2.143 2.258 2.034 4.012-.09 1.445-.703 2.534-2.067 3.238 1.61.698 2.6 1.836 3.026 3.432z" transform="translate(-13 -10) translate(13 10)"/>
                        <path fill="#048548" d="M54.359 12.107c0 .805.002 1.611-.002 2.417-.001.171.004.293.244.29 1.114-.011 2.231.042 3.34-.095 1.595-.198 2.488-1.226 2.435-2.76-.051-1.467-1.025-2.387-2.61-2.505-1.028-.075-2.055-.03-3.08-.06-.281-.007-.337.088-.333.338.015.792.006 1.584.006 2.375m-3.18 3.246c0-2.717.006-5.435-.01-8.152-.001-.352.092-.45.454-.444 2.333.033 4.665-.025 6.997.075 2.755.117 4.529 1.81 4.72 4.504.09 1.289-.093 2.507-.753 3.638-.824 1.412-2.098 2.12-3.726 2.32-1.343.164-2.688.163-4.035.143-.343-.005-.431.09-.428.422.016 1.91.001 3.82.014 5.73.003.307-.063.42-.403.408-.811-.026-1.624-.027-2.435 0-.342.012-.404-.104-.403-.408.011-2.745.007-5.491.007-8.236" transform="translate(-13 -10) translate(13 10)"/>
                        <path fill="#028447" d="M42.554 20.909c.973-2.337 1.772-4.639 2.4-6.995.587-2.209 1.04-4.443 1.244-6.718.03-.333.144-.448.502-.435.816.03 1.634.017 2.45.005.243-.003.284.067.252.294-.703 4.826-1.907 9.519-3.91 14.002-.4.895-.828 1.776-1.274 2.65-.105.205-.219.288-.462.284-.846-.016-1.692-.02-2.537.002-.292.007-.431-.089-.566-.338-1.72-3.186-2.937-6.551-3.829-10.035-.552-2.157-.98-4.339-1.334-6.534-.045-.28.025-.33.292-.326.802.015 1.606.035 2.406-.006.413-.022.504.145.551.484.258 1.88.616 3.745 1.059 5.592.625 2.608 1.424 5.162 2.535 7.617.058.128.122.253.221.457" transform="translate(-13 -10) translate(13 10)"/>
                        <path fill="#038548" d="M92.797 18.27c0-1.832.007-3.666-.007-5.499-.003-.303.064-.423.412-.405.56.028 1.125.004 1.687.009.559.005.672.109.705.63.007.098.017.196.017.294 0 .294.095.335.361.164 1.131-.725 2.36-1.225 3.742-1.292 2.344-.113 3.474.848 3.504 3.06.04 2.895.007 5.792.015 8.689 0 .242-.081.31-.328.307-.859-.01-1.718-.019-2.576.004-.326.008-.383-.101-.382-.382.01-2.7.007-5.4.006-8.102 0-1.048-.603-1.504-1.694-1.274-.743.157-1.414.479-2.081.813-.244.122-.208.31-.208.5 0 2.66-.007 5.318.009 7.977.002.344-.078.454-.456.438-.754-.03-1.51-.026-2.264-.001-.36.013-.475-.073-.471-.43.02-1.833.009-3.667.009-5.5" transform="translate(-13 -10) translate(13 10)"/>
                        <path fill="#028547" d="M87.074 19.522c0-.334-.03-.672.008-1.001.04-.343-.112-.426-.412-.42-.368.008-.737-.002-1.106-.003-1.964-.007-2.856.821-2.585 2.469.016.1.007.203.022.303.157 1.032.875 1.507 1.899 1.255.55-.136 1.031-.412 1.502-.715.474-.306.803-.663.678-1.279-.039-.196-.006-.406-.006-.609m.128 3.227c-.755.666-1.55 1.206-2.51 1.46-.766.202-1.545.285-2.323.123-1.218-.254-2.03-.96-2.33-2.176-.245-1.003-.324-2.008 0-3.013.475-1.483 1.662-2.11 3.06-2.482 1.177-.314 2.385-.392 3.596-.42.291-.008.41-.081.365-.368-.007-.042-.001-.087 0-.13 0-1.472-.694-2.118-2.196-2.004-1.154.087-2.275.333-3.33.817-.257.118-.34.07-.433-.184-.163-.435-.382-.849-.567-1.276-.14-.325-.123-.555.3-.69 1.734-.557 3.485-.99 5.331-.91.623.027 1.239.102 1.834.278 1.288.382 1.855 1.35 2.089 2.57.074.388.094.78.093 1.174-.005 2.01-.004 4.02-.001 6.03 0 .756-.04 1.515.083 2.267.043.265-.023.36-.313.35-.62-.022-1.242-.022-1.862 0-.27.01-.393-.105-.5-.325-.163-.338-.26-.697-.386-1.09" transform="translate(-13 -10) translate(13 10)"/>
                        <path fill="#EC1E25" d="M31.179 11.507c-.847.818-1.63 1.554-2.39 2.31-2.694 2.681-5.348 5.397-8.138 7.99-.78.726-1.595 1.415-2.522 1.974-.374.225-.761.426-1.189.553-.487.145-.501.139-.503-.33-.006-1.32-.01-2.642-.014-3.964-.001-.14.02-.281-.004-.417-.175-.978.167-1.709.956-2.409 1.526-1.355 2.857-2.9 4.502-4.144.38-.287.78-.552 1.19-.803.859-.527 1.773-.819 2.84-.776 1.583.063 3.171.016 4.757.016h.515z" transform="translate(-13 -10) translate(13 10)"/>
                        <path fill="#EC1D25" d="M8.896 0c.681.723 1.303 1.382 1.924 2.043 1.292 1.375 2.583 2.752 3.877 4.125.15.159.269.305.268.552-.008 3.15-.005 6.3-.006 9.45 0 .043-.01.085-.027.21-.481-.51-.928-.977-1.368-1.45-1.092-1.171-2.204-2.322-3.26-3.527-.928-1.06-1.406-2.294-1.42-3.692-.027-2.488-.008-4.977-.008-7.465 0-.051.008-.102.02-.246" transform="translate(-13 -10) translate(13 10)"/>
                        <path fill="#008446" d="M108.552 16.686v3.404c-.007 1.185-.024 2.37-.013 3.554.002.28-.086.356-.392.349-.863-.018-1.73-.03-2.591.004-.406.016-.443-.13-.442-.431.009-5.25.004-10.5.01-15.751 0-.333-.168-.774.08-.968.208-.163.686-.054 1.044-.057.628-.004 1.258.018 1.885-.008.343-.015.406.093.405.379-.012 3.006-.008 6.012-.007 9.019 0 .168.014.338.02.506" transform="translate(-13 -10) translate(13 10)"/>
                        <path fill="#038548" d="M109.844 18.897c.548-.74 1.16-1.41 1.844-2.005 1.406 2.278 2.81 4.558 4.252 6.894-1.142 0-2.214-.004-3.286.002-.224.002-.255-.19-.33-.33-.818-1.526-1.73-2.993-2.48-4.561" transform="translate(-13 -10) translate(13 10)"/>
                    </g>
                </g>
            </g>
        </g>
    </g>
</svg>
