<svg xmlns="http://www.w3.org/2000/svg" width="294" height="228" viewBox="0 0 294 228">
    <defs>
        <linearGradient id="w6po9m5nwa" x1="50.459%" x2="50.459%" y1="63.093%" y2="37.093%">
            <stop offset="0%" stop-color="gray" stop-opacity=".25"/>
            <stop offset="54%" stop-color="gray" stop-opacity=".12"/>
            <stop offset="100%" stop-color="gray" stop-opacity=".1"/>
        </linearGradient>
        <linearGradient id="imp7zqfxxb" x1="50.003%" x2="50.003%" y1="99.987%" y2="0%">
            <stop offset="0%" stop-color="gray" stop-opacity=".25"/>
            <stop offset="54%" stop-color="gray" stop-opacity=".12"/>
            <stop offset="100%" stop-color="gray" stop-opacity=".1"/>
        </linearGradient>
    </defs>
    <g fill="none" fill-rule="evenodd">
        <g>
            <g>
                <g>
                    <g transform="translate(-70 -127) translate(70 127)">
                        <path fill="#FFF" fill-rule="nonzero" d="M159.319 30.282c-17.58-.611-34.322-6.29-50.31-12.504-15.987-6.214-31.822-13.1-48.98-16.391C48.993-.731 36.37-1.03 27.48 4.89c-8.559 5.708-11.324 15.535-12.81 24.663-1.119 6.866-1.776 14.094 1.288 20.52 2.13 4.464 5.905 8.215 8.518 12.49 9.09 14.875 2.664 33.218-7.185 47.742-4.617 6.815-9.982 13.32-13.548 20.567-3.566 7.247-5.215 15.562-2.094 22.961 3.09 7.34 10.46 12.841 18.443 16.715 16.213 7.87 35.31 10.12 53.946 11.395 41.24 2.824 82.696 1.601 124.045.378 15.303-.454 30.67-.914 45.724-3.281 8.36-1.316 16.99-3.4 23.06-8.44 7.703-6.397 9.613-17.226 4.45-25.248-8.66-13.453-32.595-16.794-38.654-31.23-3.33-7.949.09-16.8 4.932-24.172 10.387-15.81 27.795-29.68 28.71-47.752.63-12.411-7.738-24.842-20.678-30.716-13.562-6.155-32.372-5.383-42.373 4.808-10.307 10.493-28.413 14.53-43.936 13.991z" opacity=".429"/>
                        <ellipse cx="137.568" cy="212.167" fill="#1B1B1B" fill-rule="nonzero" opacity=".5" rx="82.527" ry="11.083"/>
                        <rect width="2.637" height="19.528" x="180.545" y="79.167" fill="#000" fill-rule="nonzero" rx="1.318"/>
                        <rect width="1.055" height="6.333" x="100.919" y="63.333" fill="#3A3768" fill-rule="nonzero" rx=".527"/>
                        <rect width="1.055" height="11.083" x="100.919" y="74.944" fill="#3A3768" fill-rule="nonzero" rx=".527"/>
                        <rect width="1.055" height="11.611" x="100.919" y="90.25" fill="#3A3768" fill-rule="nonzero" rx=".527"/>
                        <rect width="80.681" height="163.083" x="100.919" y="41.694" fill="#000" rx="12"/>
                        <path fill="#F7F7F7" fill-rule="nonzero" d="M170.452 45.917h-9.247v1.111c0 1.397-.556 2.737-1.545 3.725-.989.987-2.33 1.542-3.728 1.541h-29.408c-1.398 0-2.74-.554-3.728-1.541-.99-.988-1.545-2.328-1.545-3.725v-1.111h-8.657c-3.536 0-6.402 2.863-6.402 6.396v142.374c0 1.696.675 3.323 1.875 4.523 1.2 1.2 2.83 1.873 4.527 1.873h57.858c3.536 0 6.402-2.863 6.402-6.396V52.324c.003-1.698-.67-3.328-1.871-4.53-1.201-1.202-2.831-1.877-4.531-1.877z"/>
                        <rect width="11.074" height="2.639" x="133.613" y="46.444" fill="#E6E8EC" fill-rule="nonzero" rx="1.319"/>
                        <ellipse cx="147.587" cy="47.764" fill="#E6E8EC" fill-rule="nonzero" rx="1.318" ry="1.319"/>
                        <path fill="#B2D9C7" d="M228.648 51.025s-18.667-1.174-16.468 12.47c0 0-.443 2.411 1.658 3.505 0 0 .034-1.01 1.916-.666.67.116 1.35.15 2.028.102.915-.063 1.785-.434 2.48-1.057 0 0 5.247-2.262 7.286-11.206 0 0 1.51-1.952 1.45-2.454l-3.15 1.404s1.077 2.37.222 4.34c0 0-.102-4.255-.708-4.162-.122.018-1.636.82-1.636.82s1.851 4.129.455 7.13c0 0 .53-5.087-1.033-6.83l-2.217 1.35s2.163 4.264.696 7.744c0 0 .377-5.337-1.164-7.416l-2.009 1.635s2.033 4.202.794 7.088c0 0-.162-6.212-1.228-6.681 0 0-1.758 1.619-2.027 2.28 0 0 1.393 3.052.528 4.662 0 0-.53-4.14-.964-4.163 0 0-1.752 2.743-1.934 4.625 0 0 .076-2.795 1.51-4.884 0 0-1.694.303-2.682 1.448 0 0 .272-1.938 3.114-2.109 0 0 1.448-2.081 1.834-2.206 0 0-2.825-.247-4.538.546 0 0 1.507-1.83 5.057-.997l1.984-1.69s-3.72-.53-5.299.055c0 0 1.816-1.619 5.833-.44l2.16-1.345s-3.173-.712-5.062-.463c0 0 1.995-1.121 5.696.095l1.552-.724s-2.324-.476-3.004-.552c-.681-.077-.717-.27-.717-.27 1.472-.257 2.984-.082 4.366.506 0 0 3.276-1.275 3.221-1.49z"/>
                        <path fill="#B2D9C7" d="M289.14 138.03s-22.583-1.395-19.922 14.807c0 0-.537 2.864 2.006 4.163 0 0 .04-1.2 2.317-.79.811.137 1.635.177 2.454.12 1.106-.074 2.159-.515 2.999-1.255 0 0 6.348-2.686 8.816-13.307 0 0 1.826-2.318 1.754-2.914l-3.811 1.667s1.303 2.815.268 5.154c0 0-.124-5.053-.856-4.943-.147.022-1.98.975-1.98.975s2.24 4.902.55 8.466c0 0 .642-6.041-1.25-8.112l-2.681 1.604s2.617 5.064.842 9.197c0 0 .456-6.338-1.408-8.807l-2.43 1.941s2.46 4.99.96 8.417c0 0-.196-7.376-1.486-7.933 0 0-2.127 1.922-2.451 2.707 0 0 1.684 3.625.638 5.537 0 0-.64-4.916-1.166-4.943 0 0-2.12 3.256-2.34 5.492 0 0 .092-3.32 1.827-5.8 0 0-2.049.36-3.245 1.719 0 0 .33-2.301 3.768-2.504 0 0 1.752-2.472 2.218-2.62 0 0-3.417-.294-5.49.648 0 0 1.824-2.172 6.118-1.184l2.4-2.007s-4.5-.629-6.41.066c0 0 2.197-1.922 7.057-.522l2.612-1.598s-3.838-.846-6.123-.55c0 0 2.414-1.331 6.89.113l1.877-.86s-2.81-.565-3.634-.656c-.823-.09-.866-.32-.866-.32 1.78-.305 3.609-.097 5.28.6 0 0 3.965-1.513 3.898-1.768z" transform="rotate(45 279.283 147.5)"/>
                        <path fill="#B2D9C7" d="M180.294 17.013s-10.412-.618-9.195 6.582c0 0-.244 1.272.926 1.85 0 0 .02-.54 1.071-.354.374.062.754.08 1.132.054.51-.034.997-.23 1.383-.562 0 0 2.932-1.194 4.072-5.914 0 0 .84-1.03.808-1.294l-1.759.74s.6 1.25.129 2.29c0 0-.058-2.244-.395-2.193-.068 0-.915.435-.915.435s1.036 2.18.255 3.762c0 0 .296-2.684-.578-3.605l-1.239.724s1.209 2.25.39 4.085c0 0 .21-2.816-.65-3.913l-1.12.865s1.134 2.217.443 3.74c0 0-.093-3.279-.687-3.527 0 0-.981.853-1.132 1.204 0 0 .778 1.62.296 2.46 0 0-.296-2.184-.548-2.195 0 0-.978 1.447-1.08 2.43.05-.916.34-1.804.844-2.576-.564.106-1.085.371-1.498.764 0 0 .153-1.023 1.74-1.112 0 0 .822-1.1 1.024-1.167 0 0-1.578-.13-2.534.29 0 0 .841-.965 2.822-.528l1.096-.89s-2.08-.27-2.96.029c0 0 1.015-.853 3.259-.232l1.205-.71s-1.773-.376-2.827-.24c0 0 1.115-.592 3.18.048l.864-.381s-1.3-.251-1.68-.292c-.38-.04-.4-.143-.4-.143.822-.135 1.667-.041 2.438.27 0 0 1.853-.68 1.82-.794z"/>
                        <path fill="#B2D9C7" d="M15.294 58.013s-10.412-.618-9.195 6.582c0 0-.244 1.272.926 1.85 0 0 .02-.54 1.071-.354.374.062.754.08 1.132.054.51-.034.997-.23 1.383-.562 0 0 2.932-1.194 4.072-5.914 0 0 .84-1.03.808-1.294l-1.759.74s.6 1.25.129 2.29c0 0-.058-2.244-.395-2.193-.068 0-.915.435-.915.435s1.036 2.18.255 3.762c0 0 .296-2.684-.578-3.605l-1.239.724s1.209 2.25.39 4.085c0 0 .21-2.816-.65-3.913l-1.12.865s1.134 2.217.443 3.74c0 0-.093-3.279-.687-3.527 0 0-.981.853-1.132 1.204 0 0 .778 1.62.296 2.46 0 0-.296-2.184-.548-2.195 0 0-.978 1.447-1.08 2.43.05-.916.34-1.804.844-2.576-.564.106-1.085.371-1.498.764 0 0 .153-1.023 1.74-1.112 0 0 .822-1.1 1.024-1.167 0 0-1.578-.13-2.534.29 0 0 .841-.965 2.822-.528l1.096-.89s-2.08-.27-2.96.029c0 0 1.015-.853 3.259-.232l1.205-.71s-1.773-.376-2.827-.24c0 0 1.115-.592 3.18.048l.864-.381s-1.3-.251-1.68-.292c-.38-.04-.4-.143-.4-.143.822-.135 1.667-.041 2.438.27 0 0 1.853-.68 1.82-.794z" transform="rotate(90 10.746 62.222)"/>
                        <ellipse cx="240.661" cy="209.792" fill="#E5F2EC" fill-rule="nonzero" rx="7.383" ry="1.319"/>
                        <ellipse cx="30.257" cy="219.819" fill="#E5F2EC" fill-rule="nonzero" rx="7.383" ry="1.319"/>
                        <ellipse cx="58.733" cy="226.681" fill="#E5F2EC" fill-rule="nonzero" rx="7.383" ry="1.319"/>
                        <ellipse cx="224.05" cy="222.986" fill="#E5F2EC" fill-rule="nonzero" rx="10.81" ry="1.847"/>
                        <path fill="#B2D9C7" d="M229.049 220.462c.493-.415.852-.973 1.03-1.602.135-.634-.129-1.384-.72-1.63-.663-.26-1.37.213-1.906.689-.536.476-1.152 1.021-1.854.919.735-.684 1.067-1.715.874-2.715-.031-.204-.116-.395-.245-.554-.366-.404-1.033-.232-1.472.089-1.399 1.01-1.79 2.967-1.797 4.724-.143-.634-.022-1.295-.027-1.937-.006-.642-.175-1.384-.71-1.724-.331-.183-.702-.272-1.077-.26-.63-.025-1.33.041-1.76.514-.538.587-.393 1.572.07 2.214.463.642 1.17 1.054 1.822 1.5.52.32.965.755 1.3 1.276.04.072.072.15.096.23h3.932c.887-.462 1.709-1.045 2.444-1.733z"/>
                        <path fill="#E5F2EC" fill-rule="nonzero" d="M59.107 196.333s1.478 2.035-.68 5.093c-2.159 3.058-3.938 5.659-3.226 7.574 0 0 3.258-5.701 5.914-5.78 2.655-.08.908-3.458-2.008-6.887z"/>
                        <path fill="#000" fill-rule="nonzero" d="M59.065 196.333c.13.197.233.412.304.64 2.616 3.194 4.01 6.177 1.496 6.25-2.341.071-5.15 4.426-5.824 5.525.022.085.05.167.08.252 0 0 3.294-5.697 5.98-5.776 2.686-.08.914-3.464-2.036-6.89z" opacity=".1"/>
                        <path fill="#FFD037" fill-rule="nonzero" d="M62.424 198.858c0 .646-.117 1.17-.264 1.17-.146 0-.263-.524-.263-1.17 0-.646.146-.342.293-.342.146 0 .234-.304.234.342z"/>
                        <path fill="#B2D9C7" d="M63.104 199.506c-.619.371-1.16.595-1.204.5-.045-.095.415-.473 1.034-.844.618-.371.376-.101.42 0 .045.101.369-.028-.25.344zM51.505 196.333s-1.478 2.035.68 5.093c2.157 3.058 3.936 5.659 3.224 7.574 0 0-3.254-5.701-5.911-5.78-2.658-.08-.914-3.458 2.007-6.887z"/>
                        <path fill="#99B9EE" fill-rule="nonzero" d="M51.548 196.333c-.131.197-.234.412-.307.64-2.614 3.194-4.005 6.177-1.495 6.25 2.342.071 5.149 4.426 5.823 5.525-.023.086-.05.17-.082.252 0 0-3.29-5.697-5.977-5.776-2.687-.08-.916-3.464 2.038-6.89z" opacity=".1"/>
                        <path fill="#FFD037" fill-rule="nonzero" d="M48.713 198.858c0 .646.12 1.17.266 1.17.146 0 .262-.524.262-1.17 0-.646-.146-.342-.29-.342-.146 0-.238-.304-.238.342z"/>
                        <path fill="#FFD037" fill-rule="nonzero" d="M48.035 199.506c.618.371 1.155.595 1.203.5.047-.095-.418-.473-1.036-.844-.617-.371-.373-.101-.42 0-.047.101-.364-.028.253.344z"/>
                        <path fill="#B2D9C7" d="M49.24 208.099s4.11-.131 5.351-1.029c1.241-.897 6.322-1.975 6.627-.532.305 1.443 6.177 7.172 1.538 7.21-4.639.039-10.781-.736-12.017-1.503-1.236-.766-1.498-4.146-1.498-4.146z"/>
                        <path fill="#000" fill-rule="nonzero" d="M62.839 213.239c-4.64.039-10.783-.757-12.02-1.545-.939-.602-1.316-2.757-1.442-3.75h-.136s.267 3.47 1.496 4.26c1.228.79 7.38 1.584 12.019 1.545 1.338 0 1.8-.51 1.776-1.25-.187.454-.698.731-1.693.74z" opacity=".2"/>
                        <path fill="url(#w6po9m5nwa)" fill-rule="nonzero" d="M82.462 120.53c.142.148.356.178.528.073-.178.003-.356-.022-.528-.074z"/>
                        <path fill="url(#imp7zqfxxb)" fill-rule="nonzero" d="M114.918 66.858c-.574-.168-1.39-.442-2.378-.787 1.025-1.335 1.774-2.86 2.204-4.487l-.084.033c.027-.1.057-.199.084-.299-1.888.776-3.98-.543-5.31-2.229-1.331-1.685-2.237-3.784-3.693-5.339-.607-.616-1.261-1.185-1.956-1.702-.43-.336-.895-.687-1.42-.703-.849-.024-1.515.814-2.334 1.067-.54.123-1.103.102-1.633-.06-2.114-.491-4.151-1.395-6.298-1.629-1.154-.144-2.326-.011-3.417.389-1.088.418-1.578 1.246-2.449 1.9-.944.711-2.824.695-3.937.814-1.349.155-2.707.212-4.064.171-.78-.07-1.567-.041-2.34.087-1.616.358-2.914 1.656-4.125 2.904-.332.286-.57.664-.682 1.086-.015.12-.015.24 0 .359-.013.324.043.648.163.95.366 1.122.888 2.187 1.55 3.165.496.716 1.07 1.39 1.36 2.236.135.417.205.852.21 1.29-.015.465-.063.928-.144 1.387-.214 1.264-.565 2.5-1.047 3.689-.256.63-.544 1.257-.612 1.946-.009.137-.009.275 0 .413-.082 2.125 2.043 3.659 2.448 5.773.032.175.052.352.06.53-.046 1.319-.789 2.608-1.883 3.119.096.038.193.07.291.105-.094.06-.19.114-.29.163.198.076.402.141.609.201-1.251 1.094-2.302 2.396-3.105 3.85-3.662 6.93-28.621 20.523-28.621 20.523s.142.08.37.215c-.092.057-.19.122-.3.195-2.16 1.455-7.23 5.7-2.646 11.054 0 0 3.577-5.714 6.083-8.144.114-.108.223-.209.33-.304.112.173.148.386.097.586l16.414-9.33s5.833-4.13 7.46-5.064c.56-.32 1.989-1.211 3.697-1.605l-.19.085c.613-.172 1.246-.263 1.883-.272 2.905.046 6.05 2.199 7.09 10.725 1.39 11.417.745 13.475.299 13.757-.055-.004-.11-.014-.163-.03.013.012.028.023.043.033-.06-.004-.12-.015-.18-.033.064.06.155.083.24.06.061.018.127.01.182-.022h.22c0 .103-.016.212-.024.318-.022 0-.13.062 0 .07-.032.643-.03 1.357 0 2.077-1.444.081-2.886.168-4.151.247l.114-.606.051-.271c1.108-.09 2.16-.418 2.283-1.33.272-1.998-2.448-3.065-4.747-3.198-2.3-.133-16.142.801-16.142.801s-2.076 2.714 4.505 3.559c.196.103.4.217.607.336 2.576 1.488 6.075 4.224 7.748 5.573l.234.187-.75.606c4.08.933 8.004 16.661 10.172 23.857 2.168 7.196 6.919 6.93 10.853 5.866 3.686-1.002 4.157-11.83 4.2-13.19v-.138l6.555 8.173.497.622c.194.1.381.195.566.285 4.966 2.391 10.45-2.19 8.889-7.402-1.575-5.267-4.024-13.049-5.656-16.339-1.36-2.755-3.132-7.329-4.204-10.2.139-.058.274-.123.405-.196l-.068-.364.068-.035s-1.577-8.293-1.665-14.18v-.31-.193c1.187-.271 1.938-.38 1.938-.38l.021-.255-.138.03.658-7.639s2.421-5.209.569-7.38c-.565-.638-.941-1.418-1.089-2.256-.31-1.998 0-5.323 4.318-8.089 6.647-4.264 9.226-7.73 9.226-7.73s.141-2.547-3.929-3.747zm-13.2 5.299v-3.529c1.232-.06 2.492.084 3.73 0 .608-.043 1.212-.145 1.8-.304l.3.21c-1.811 1.407-3.765 2.622-5.83 3.623zM82.873 127.48c.487.342.977.698 1.458 1.054.3 1.74.564 2.97.583 3.053-.55-1.43-1.234-2.804-2.04-4.107z"/>
                        <path fill="#FFBDC6" fill-rule="nonzero" d="M93.536 125.083l-.289 1.612-.222 1.232-.405 2.254L88.7 133s-.354-.31-.938-.8c-1.607-1.359-4.985-4.125-7.465-5.61-.638-.417-1.329-.744-2.052-.97l15.292-.537z"/>
                        <path fill="#000" fill-rule="nonzero" d="M93.536 125.083l-.289 1.566c-.865.047-1.732.002-2.588-.134l-9.15.131c-.431-.027-.836-.059-1.213-.099-.638-.405-1.329-.723-2.052-.943l15.292-.52z" opacity=".1"/>
                        <path fill="#474463" fill-rule="nonzero" d="M90.758 125.992s4.6.74 4.869-1.102c.269-1.842-2.369-2.837-4.602-2.961-2.233-.124-15.645.74-15.645.74s-2.365 2.959 6.178 3.454l9.2-.131z"/>
                        <path fill="#000" fill-rule="nonzero" d="M93.536 125.083l-.289 1.612-.222 1.232-.405 2.254L88.7 133s-.354-.31-.938-.8c-1.607-1.359-4.985-4.125-7.465-5.61-.638-.417-1.329-.744-2.052-.97l15.292-.537z" opacity=".1"/>
                        <path fill="#000" fill-rule="nonzero" d="M93.536 125.083l-.289 1.566c-.865.047-1.732.002-2.588-.134l-9.15.131c-.431-.027-.836-.059-1.213-.099-.638-.405-1.329-.723-2.052-.943l15.292-.52z" opacity=".1"/>
                        <path fill="#000" fill-rule="nonzero" d="M90.761 125.994s4.602.737 4.866-1.11c.264-1.847-2.368-2.832-4.601-2.955-2.234-.124-15.646.74-15.646.74s-2.365 2.954 6.178 3.446l9.203-.121z" opacity=".1"/>
                        <path fill="#474463" fill-rule="nonzero" d="M76.662 61.222H100.91900000000001V89.72200000000001H76.662z"/>
                        <path fill="#11442C" fill-rule="nonzero" d="M76.662 61.222H100.91900000000001V89.72200000000001H76.662z"/>
                        <path fill="#FFBDC6" fill-rule="nonzero" d="M48.186 110.073c-.387.1-.883.489-1.434 1.052-2.372 2.436-5.77 8.153-5.77 8.153-4.343-5.367.464-9.607 2.512-11.065.499-.352.833-.546.833-.546l3.86 2.406z"/>
                        <path fill="#F2E1D9" fill-rule="nonzero" d="M93.594 69.667s1.179 8.24 5.243 10.203c4.064 1.963-5.243 5.63-5.243 5.63L80.88 80.787s7.21-2.357 5.768-9.29l6.946-1.83z"/>
                        <path fill="#B97A59" fill-rule="nonzero" d="M79.826 120.333l-.287 1.607-.233 1.238-.404 2.255-3.919 2.817s-.353-.308-.936-.798c-1.606-1.359-4.982-4.126-7.463-5.611-.638-.418-1.327-.745-2.05-.971l15.292-.537z"/>
                        <path fill="#000" fill-rule="nonzero" d="M79.826 120.333l-.287 1.566c-.865.047-1.732.002-2.587-.134l-9.15.131c-.432-.027-.84-.059-1.217-.1-.638-.407-1.328-.725-2.052-.945l15.293-.518z" opacity=".1"/>
                        <path fill="#FE443A" fill-rule="nonzero" d="M77.053 121.771s4.603.737 4.864-1.107c.261-1.845-2.366-2.834-4.602-2.957-2.237-.124-15.644.739-15.644.739s-2.369 2.954 6.178 3.449l9.204-.124z"/>
                        <path fill="#000" fill-rule="nonzero" d="M79.298 123.068l-.445 2.304-4.322 2.878s-.39-.315-1.033-.815l5.715-4.463.085.096z" opacity=".1"/>
                        <path fill="#080808" fill-rule="nonzero" d="M105.66 153.533c-.183-.09-.365-.182-.545-.272l-.49-.617-6.428-8.142v.141c-.043 1.36-.506 12.134-4.116 13.13-3.853 1.06-8.5 1.326-10.618-5.84-2.119-7.165-5.99-22.823-9.965-23.753l5.913-4.843s3.915 4.574 5.51 8.952c-.06-.272-2.763-12.89-.544-15.122h19.399s2.995 8.52 5.047 12.74c1.599 3.277 3.997 11.024 5.54 16.267 1.53 5.178-3.84 9.75-8.703 7.359z"/>
                        <path fill="#000" fill-rule="nonzero" d="M104.61 119.192c-2.993 1.753-16.13 1.04-20.405.754l-1.164-.083c-.125 0 .019-.07.019-.07l.12-1.193 3.185-8.009 17.059-9.785c-.346 1.03-.46 2.607-.433 4.413.08 5.803 1.62 13.973 1.62 13.973z" opacity=".1"/>
                        <path fill="#F2E1D9" fill-rule="nonzero" d="M104.61 119.192c-2.973 1.753-16.025 1.04-20.272.754l-1.156-.08-.192-.017.21-.054 1.044-.27 2.24-8.933 16.948-9.786c-.344 1.03-.457 2.608-.43 4.415.078 5.8 1.608 13.971 1.608 13.971z"/>
                        <path fill="#000" fill-rule="nonzero" d="M103.646 105.305c-3.5.808-11.202 3.178-14.161 8.9-1.974 3.81-3.635 5.444-4.793 6.128l-1.175-.082c.008-.024.014-.047.02-.071l1.059-.275 2.275-9.114 17.212-9.985c-.346 1.046-.464 2.656-.437 4.499zM44.283 107.667l3.903 2.201c-.392.093-.893.449-1.45.965-.326-.892-2.368-2.138-3.296-2.67.504-.318.843-.496.843-.496zM82.99 119.553c-.174.09-.386.06-.528-.074.172.05.35.075.528.074z" opacity=".1"/>
                        <path fill="#FE443A" fill-rule="nonzero" d="M91.614 79.888s-3.574.396-6.088-2.252c0 0-10.575 3.047-14.157 9.93-3.582 6.883-27.929 20.39-27.929 20.39s4.236 2.382 3.837 3.573l16.012-9.268s5.694-4.103 7.275-5.03c1.58-.929 10.323-6.62 12.175 8.869 1.852 15.49 0 13.636 0 13.636s2.646.928 6.483-6.487c3.837-7.415 15.744-9.135 15.744-9.135l.661-7.809s2.362-5.177.543-7.325c-.552-.637-.918-1.412-1.06-2.242-.302-1.983 0-5.288 4.213-8.033 6.484-4.238 8.998-7.679 8.998-7.679s.132-2.518-3.838-3.709c-3.97-1.19-20.111-7.678-20.111-7.678l-.543 2.252 12.736 8.994s-6.35 5.155-11.388 5.03c0 0 .935 3.84-3.563 3.973z"/>
                        <path fill="#000" fill-rule="nonzero" d="M94.064 73.244c-.314-1-.558-2.02-.733-3.05l-7.017 1.748c.31 1.263.254 2.581-.16 3.817 2.933.738 6.05-.253 7.91-2.515z" opacity=".1"/>
                        <ellipse cx="88.263" cy="68.611" fill="#F2E1D9" fill-rule="nonzero" rx="7.383" ry="7.389"/>
                        <path fill="#000" fill-rule="nonzero" d="M91.97 51.257c2.098.238 4.091 1.145 6.158 1.64.516.162 1.066.183 1.593.062.802-.251 1.455-1.093 2.287-1.068.511 0 .965.366 1.387.702.676.52 1.312 1.09 1.903 1.705 1.425 1.555 2.308 3.648 3.608 5.34 1.3 1.691 3.35 3.006 5.196 2.23-1.256 4.918-5.37 8.665-9.821 8.971-1.776.12-3.595-.251-5.313.273-.428.175-.88.286-1.34.328-.99 0-1.787-.913-2.404-1.8-1.447-2.088-2.591-4.46-4.22-6.365-.544-.629-1.172-1.227-1.933-1.342-.762-.115-1.46.249-2.137.601-1.118.582-2.26 1.186-3.127 2.187-.868 1-1.414 2.486-1.055 3.825.193.727.633 1.383.641 2.143.017 1.21-1.05 2.098-1.258 3.279-.048.496-.065.994-.052 1.492-.093 1.618-1.145 2.943-2.243 3.96-.43.396-.903.82-1.028 1.431-.084.416 0 .858-.054 1.28-.16 1.049-1.202 1.581-2.124 1.72-1.077.158-2.176.027-3.187-.379 1.29-.615 2.083-2.356 1.784-3.919-.41-2.164-2.575-3.716-2.39-5.921.102-.676.304-1.333.598-1.949.472-1.189.815-2.426 1.022-3.689.164-.978.242-2.014-.062-2.943-.272-.85-.84-1.522-1.321-2.238-.653-.975-1.169-2.036-1.531-3.153-.133-.33-.183-.688-.147-1.041.106-.425.338-.806.666-1.094 1.183-1.248 2.447-2.55 4.032-2.904.756-.129 1.526-.16 2.29-.09 1.328.043 2.658-.014 3.978-.17 1.087-.128 2.925-.11 3.847-.82.86-.664 1.343-1.492 2.401-1.913 1.072-.396 2.223-.523 3.355-.371zM96.173 129.306s4.895 8.477 3.411 11.083M104.708 152.528l-6.373-8.22v.143s-.368-2.661.845-1.768c2.66 1.958 6.914 5.166 7.006 5.718.092.553-.862 2.76-1.478 4.127z" opacity=".1"/>
                        <g fill="#000" fill-rule="nonzero" opacity=".1">
                            <path d="M51.913 16.326s.543 2.223-1.205 3.335c2.687-.456 2.807-2.536 2.714-3.44-.499.08-1.003.114-1.509.105zM1.593 47.658S25.958 34.23 29.546 27.385c2.564-4.913 8.747-7.86 12.03-9.133-2.393.81-10.459 3.861-13.488 9.66C24.514 34.755.136 48.186.136 48.186l1.457-.529zM56.657 15.28c4.147-1.282 8.11-4.482 8.11-4.482L52.043 1.84l.29-1.225L51.116.13l-.53 2.239 12.715 8.952c-2.038 1.593-4.27 2.923-6.644 3.958zM56.73 45.619c1.624-.551 3.29-.97 4.983-1.252l.022-.254c-1.705.373-3.378.876-5.004 1.506zM41.321 59.411h-.116c-.09.046-.198.03-.272-.038.088.026.18.039.272.038.434-.25 1.085-2.218-.272-13.598-1.46-12.141-7.205-11.194-10.348-9.797 3.213-.88 7.634-.118 8.89 10.323 1.371 11.38.717 13.347.272 13.598.565-.02 1.111-.203 1.574-.526zM39.747 59.94c-.092 0-.183-.012-.271-.038.073.068.182.083.271.038z" transform="translate(43.44 59.639)"/>
                        </g>
                        <path fill="#A89D6D" fill-rule="nonzero" d="M98.128 52.364c.516.162 1.066.182 1.593.06.802-.248 1.455-1.093 2.287-1.068.51.016.965.366 1.386.702.676.52 1.313 1.09 1.904 1.706 1.425 1.555 2.308 3.648 3.608 5.34 1.3 1.692 3.35 3.007 5.196 2.23-1.256 4.92-5.37 8.667-9.821 8.973-1.776.123-3.595-.248-5.313.274-.428.176-.88.287-1.34.328-.99 0-1.787-.913-2.404-1.802-1.447-2.088-2.592-4.457-4.22-6.362-.544-.632-1.172-1.23-1.933-1.345-.762-.115-1.46.251-2.138.604-1.117.582-2.26 1.183-3.127 2.186-.867 1.004-1.413 2.485-1.054 3.827.193.727.633 1.383.641 2.143.017 1.213-1.05 2.099-1.259 3.28-.047.495-.064.994-.051 1.492-.093 1.618-1.145 2.94-2.244 3.96-.43.394-.902.82-1.027 1.43-.085.418 0 .858-.055 1.281-.16 1.05-1.202 1.583-2.123 1.72-1.077.16-2.177.029-3.187-.38 1.289-.613 2.083-2.356 1.784-3.917-.41-2.165-2.575-3.72-2.39-5.923.101-.676.303-1.332.598-1.948.471-1.19.814-2.429 1.022-3.693.163-.976.242-2.012-.062-2.944-.272-.847-.84-1.522-1.322-2.238-.652-.974-1.167-2.035-1.53-3.151-.132-.331-.183-.69-.147-1.044.109-.42.34-.796.666-1.08 1.182-1.249 2.447-2.547 4.032-2.905.756-.127 1.526-.156 2.29-.088 1.328.042 2.657-.014 3.977-.17 1.088-.128 2.926-.111 3.848-.82.86-.66 1.343-1.491 2.4-1.912 1.072-.4 2.223-.532 3.356-.386 2.1.24 4.092 1.145 6.159 1.64z"/>
                        <ellipse cx="142.05" cy="125.611" fill="#FFF" fill-rule="nonzero" rx="15.292" ry="15.306"/>
                        <path fill="#59C268" fill-rule="nonzero" d="M162.089 123.236c0 8.218-4.947 15.627-12.533 18.772-7.586 3.145-16.318 1.407-22.125-4.404-5.806-5.812-7.543-14.551-4.4-22.144 3.142-7.593 10.545-12.543 18.756-12.543 11.212 0 20.302 9.097 20.302 20.319zm-22.648 10.756l15.06-15.073c.246-.245.384-.58.384-.927 0-.348-.138-.682-.384-.927l-1.853-1.841c-.245-.247-.578-.385-.925-.385-.348 0-.68.138-.926.385l-12.283 12.293-5.735-5.753c-.512-.51-1.34-.51-1.853 0l-1.853 1.865c-.51.513-.51 1.342 0 1.855l8.515 8.519c.245.246.579.385.926.385.348 0 .681-.139.927-.385v-.011z"/>
                    </g>
                </g>
            </g>
        </g>
    </g>
</svg>
