<svg xmlns="http://www.w3.org/2000/svg" xmlns:xlink="http://www.w3.org/1999/xlink" width="325" height="368" viewBox="0 0 325 368">
    <defs>
        <path id="7yfq0tw8ga" d="M0.742 0.325L63.07 0.325 63.07 28.953 0.742 28.953z"/>
        <path id="tsgup6pfwc" d="M0 0.167L15.081 0.167 15.081 0.949 0 0.949z"/>
        <path id="mni259tgie" d="M0.252 0.725L105.852 0.725 105.852 113.402 0.252 113.402z"/>
    </defs>
    <g fill="none" fill-rule="evenodd">
        <g>
            <g>
                <g>
                    <path fill="#E0E0E0" d="M70.128 269.2c-1.562-1.649-3.88-2.272-6.012-3.057-9.361-3.445-16.908-11.471-19.764-21.023-2.856-9.55-.954-20.399 4.981-28.41l-.322-1.659c-.729-7.709-10.047-13.236-17.17-10.185-7.122 3.052-9.538 13.608-4.451 19.45-8.36.69-13.883 10.21-12.706 18.508 1.177 8.297 7.255 15.109 14.02 20.061 11.095 8.123 24.788 12.642 38.542 12.722.938.004 1.924-.023 2.735-.494 1.964-1.14 1.708-4.267.147-5.914M302.99 235.446c1.92-3.113 2.192-7.315.243-10.411-1.95-3.096-6.23-4.664-9.555-3.134 1.862-3.104.773-7.61-2.301-9.525-3.075-1.915-7.604-.905-9.573 2.133-2.225 3.436-1.048 8.044.864 11.662 1.912 3.618 4.531 7.017 5.162 11.06.643 4.13-.942 8.358-3.415 11.73-2.471 3.371-5.774 6.029-9.036 8.644l-.623.6c5.853 2.026 12.555 1.45 17.976-1.545 3.07-1.698 5.914-4.505 6.115-8.006.113-1.955-.617-3.914-.32-5.85.438-2.864 2.942-4.89 4.463-7.358" transform="translate(-45 -101) translate(45 101)"/>
                    <g transform="translate(-45 -101) translate(45 101) translate(80.663 338.047)">
                        <mask id="v3mgmmvtrb" fill="#fff">
                            <use xlink:href="#7yfq0tw8ga"/>
                        </mask>
                        <path fill="#E0E0E0" d="M53.914 25.329c-3.044-.378-6.104-1.712-7.895-4.2-1.145-1.593-1.698-3.536-2.695-5.225-.998-1.69-2.724-3.219-4.68-3.028-3.026.295-5.066 4.476-8.017 3.738-1.773-.44-2.617-2.523-2.63-4.35-.013-1.825.522-3.647.295-5.46-.64-5.092-7.185-7.595-12.068-6.003C11.341 2.393 3.924 8.278.742 12.307c3.346 5.561 10.216 7.722 16.515 9.3 10.574 2.65 21.249 4.898 31.993 6.74 2.52.432 5.094.842 7.62.446 2.524-.396 5.035-1.737 6.2-4.01-3.033.462-6.111.923-9.156.546" mask="url(#v3mgmmvtrb)"/>
                    </g>
                    <path fill="#E0E0E0" d="M255.821 324.134c-.776-4.351-5.12-8.182-9.426-7.18 3.572-2.942 3.593-8.858.769-12.523-2.824-3.666-7.73-5.248-12.357-5.11-4.628.139-9.07 1.764-13.365 3.486 2.105-2.681-.976-6.854-4.38-7.079-3.404-.224-6.443 1.94-9.204 3.942-2.76 2.002-5.947 4.04-9.317 3.514l3.167 1.262c7.557 1.143 15.174 2.909 21.717 6.853 6.543 3.945 11.93 10.374 13.06 17.926 1.13 7.55-2.848 16.004-10.017 18.645 9.663.601 19.503-3.837 25.445-11.477 2.714-3.488 4.684-7.91 3.908-12.26M7.54 211.3c-.112 0-.203-3.263-.203-7.287 0-4.027.09-7.289.204-7.289.112 0 .203 3.262.203 7.29 0 4.023-.09 7.287-.203 7.287" transform="translate(-45 -101) translate(45 101)"/>
                    <g transform="translate(-45 -101) translate(45 101) translate(0 203.454)">
                        <mask id="yqg90k7apd" fill="#fff">
                            <use xlink:href="#tsgup6pfwc"/>
                        </mask>
                        <path fill="#E0E0E0" d="M15.081.558c0 .112-3.377.204-7.54.204C3.376.762 0 .67 0 .558 0 .445 3.376.354 7.54.354c4.163 0 7.54.091 7.54.204" mask="url(#yqg90k7apd)"/>
                    </g>
                    <path fill="#E0E0E0" d="M298.46 286.215c-.112 0-.204-3.263-.204-7.287 0-4.027.092-7.29.205-7.29.112 0 .203 3.263.203 7.29 0 4.024-.09 7.287-.203 7.287" transform="translate(-45 -101) translate(45 101)"/>
                    <path fill="#E0E0E0" d="M306.001 278.927c0 .113-3.377.204-7.54.204-4.165 0-7.541-.091-7.541-.204 0-.112 3.376-.204 7.54-.204s7.541.092 7.541.204M254.207 36.091c-.113 0-.204-3.263-.204-7.287 0-4.026.09-7.29.204-7.29.113 0 .204 3.264.204 7.29 0 4.024-.09 7.287-.204 7.287" transform="translate(-45 -101) translate(45 101)"/>
                    <path fill="#E0E0E0" d="M261.747 28.803c0 .113-3.376.203-7.54.203-4.165 0-7.54-.09-7.54-.203 0-.113 3.375-.204 7.54-.204 4.164 0 7.54.091 7.54.204M20.388 142.827c0 2.46-1.996 4.453-4.458 4.453-2.461 0-4.457-1.993-4.457-4.453s1.996-4.454 4.457-4.454c2.462 0 4.458 1.993 4.458 4.454M193.786 332.504c0 2.46-1.996 4.454-4.457 4.454-2.462 0-4.458-1.994-4.458-4.454s1.996-4.453 4.458-4.453c2.461 0 4.457 1.993 4.457 4.453M235.263 248.335c0 2.46-1.995 4.453-4.457 4.453-2.462 0-4.457-1.993-4.457-4.453s1.995-4.454 4.457-4.454c2.462 0 4.457 1.994 4.457 4.454M102.83 26.554c0 2.459-1.995 4.453-4.457 4.453-2.462 0-4.457-1.994-4.457-4.453 0-2.46 1.995-4.454 4.457-4.454 2.462 0 4.457 1.993 4.457 4.454M123.949 290.036c0 1.23-.998 2.227-2.23 2.227-1.23 0-2.228-.998-2.228-2.227 0-1.23.999-2.228 2.229-2.228s2.229.998 2.229 2.228M70.172 278.927c0 1.23-.998 2.227-2.229 2.227-1.23 0-2.228-.997-2.228-2.227s.998-2.227 2.228-2.227c1.231 0 2.23.998 2.23 2.227M125.113 31.007c0 1.23-.997 2.227-2.228 2.227-1.23 0-2.23-.997-2.23-2.227s1-2.227 2.23-2.227 2.228.997 2.228 2.227M223.29 151.503c0 1.23-.998 2.227-2.229 2.227s-2.228-.997-2.228-2.227.997-2.227 2.228-2.227c1.231 0 2.229.997 2.229 2.227" transform="translate(-45 -101) translate(45 101)"/>
                    <path fill="#EBEBEB" d="M9.257 24.396s-4.963 2.56 1.99 12.949c6.955 10.388 11.513 15.4 11.513 15.4s1.306 2.447-.81 3.101c-2.114.655-6.965.459-7.615 3.216-.675 2.861 1.625 5.212 5.935 7.003 4.309 1.791 13.608 6.062 14.447 6.452.824.382 1.736 1.485.367 2.161-1.37.677-11.946 3.06-10.515 8.007 1.433 4.947 14.26 7.966 15.656 8.323 1.396.356 1.782.884 1.76 1.63-.022.744-3.653 1.21-6.633 2.01-2.98.802-6.296 2.253-5.23 5.038 1.065 2.785 9.064 7.955 26.957 7.596l8.28-.709 3.665-7.494c6.865-16.516 4.967-25.843 2.76-27.85-2.206-2.008-4.768.547-6.601 3.027-1.834 2.48-3.593 5.688-4.296 5.436-.702-.25-1.052-.802-.875-2.231.176-1.43 2.044-14.464-2.043-17.602-4.086-3.137-10.166 5.833-11.296 6.86-1.13 1.026-1.826-.225-1.882-1.13-.055-.923-.642-11.133-.737-15.796-.097-4.663-1.448-7.66-4.36-8.076-2.806-.402-4.394 4.182-5.776 5.911-1.381 1.729-3.185-.379-3.185-.379s-3.006-6.07-10.147-16.33C13.444 20.659 9.16 24.455 9.16 24.455" transform="translate(-45 -101) translate(45 101)"/>
                    <path fill="#E0E0E0" d="M66.016 108.462c-5.215-7.556-14.258-21.141-22.083-32.764-7.822-11.619-14.914-22.132-20.09-29.714-2.588-3.781-4.685-6.844-6.14-8.972l-1.668-2.44-.428-.64c-.095-.144-.139-.222-.139-.222s.058.068.16.207l.45.625 1.708 2.413c1.48 2.097 3.601 5.147 6.207 8.926 5.215 7.556 12.332 18.054 20.154 29.673 7.825 11.624 16.844 25.224 22.02 32.805" transform="translate(-45 -101) translate(45 101)"/>
                    <path fill="#E0E0E0" d="M21.11 59.61c.004-.018.215.016.593.092.38.073.925.197 1.597.356 1.343.32 3.188.808 5.213 1.385l5.18 1.494 1.57.443c.372.102.576.168.572.185-.004.017-.215-.015-.595-.088-.38-.075-.924-.198-1.595-.364-1.34-.334-3.178-.846-5.203-1.422l-5.187-1.457-1.574-.434c-.372-.107-.575-.173-.571-.19M36.337 62.971c-.07-.016.771-3.86 1.879-8.583 1.107-4.725 2.06-8.541 2.13-8.526.07.017-.772 3.86-1.88 8.584-1.106 4.724-2.06 8.542-2.13 8.525M47.545 81.359c-.015-.01.083-.205.275-.549l.82-1.451c.689-1.227 1.635-2.924 2.609-4.836.979-1.91 1.804-3.668 2.392-4.947l.697-1.513c.167-.357.267-.55.284-.545.016.007-.053.215-.191.584-.139.369-.349.9-.623 1.548-.546 1.299-1.348 3.075-2.33 4.99-.977 1.917-1.95 3.606-2.681 4.811-.368.6-.671 1.084-.891 1.412-.218.328-.345.505-.36.496M33.103 81.347c0-.018.2-.037.565-.057l1.54-.06c1.302-.038 3.1-.074 5.086-.098 1.986-.023 3.785-.03 5.086-.023l1.542.022c.364.011.566.026.566.044 0 .017-.201.037-.565.057l-1.54.059c-1.301.039-3.1.075-5.086.1-1.986.023-3.784.03-5.087.022l-1.542-.022c-.364-.01-.565-.026-.565-.044M40.934 98.836c0-.018.257-.04.723-.066l1.974-.083c1.668-.06 3.972-.123 6.518-.178 2.545-.055 4.85-.09 6.518-.103l1.976-.001c.467.005.725.016.726.034 0 .018-.257.04-.723.066l-1.975.084c-1.668.059-3.972.123-6.518.178-2.544.054-4.849.09-6.517.102l-1.977.002c-.466-.006-.725-.017-.725-.035M58.925 98.325c-.015-.01.103-.26.33-.704l.973-1.878c.819-1.586 1.942-3.781 3.113-6.24 1.174-2.457 2.18-4.709 2.895-6.344l.85-1.936c.202-.457.322-.707.339-.7.016.006-.072.268-.246.737-.175.469-.437 1.143-.776 1.97-.673 1.655-1.653 3.923-2.83 6.384-1.173 2.463-2.323 4.65-3.184 6.215-.433.782-.79 1.411-1.045 1.84-.255.43-.403.664-.419.656" transform="translate(-45 -101) translate(45 101)"/>
                    <path fill="#F5F5F5" d="M278.164 173.451c-8.828-7.693-9.66-20.297-8.083-31.378.264-1.849.27-3.828 1.33-5.362 1.059-1.533 3.242-2.424 4.82-1.463 1.31.798 1.738 2.466 2.367 3.875.836 1.875 2.21 3.5 3.909 4.628 1.116.74 2.54 1.273 3.777.755 1.697-.71 2.125-2.902 2.312-4.75l1.05-10.33c.187-1.847.385-3.733 1.148-5.423.765-1.69 2.21-3.181 4.02-3.485 1.812-.302 3.876.945 4.052 2.792.073.769-.164 1.532-.196 2.305-.03.772.235 1.658.941 1.95.713.295 1.51-.148 2.12-.629 2.108-1.659 3.662-3.92 5.129-6.178 1.466-2.259 2.904-4.577 4.854-6.424 1.95-1.847 4.517-3.2 7.18-3.065 2.662.135 5.305 2.071 5.693 4.739.39 2.674-1.414 5.152-3.295 7.08-2.79 2.862-5.99 5.314-9.47 7.255-.626.35-1.306.729-1.602 1.389-.535 1.187.5 2.535 1.673 3.07 1.329.607 2.838.625 4.26.95 1.422.325 2.915 1.128 3.313 2.547.553 1.968-1.24 3.777-2.933 4.905-3.392 2.26-7.167 3.925-11.106 4.905-1.414.35-2.892.632-4.09 1.469-1.199.836-2.04 2.424-1.518 3.796.522 1.373 2.177 1.972 3.63 1.861 1.451-.11 2.81-.746 4.221-1.111 2.643-.684 5.903-.156 7.293 2.212.913 1.557.79 3.574.065 5.234-.725 1.66-1.982 3.022-3.294 4.261-4.584 4.332-10.208 7.613-16.319 9.019-6.11 1.406-11.627 1.372-17.25-1.399" transform="translate(-45 -101) translate(45 101)"/>
                    <path fill="#E0E0E0" d="M281.79 166.79c2.242-5.436 5.197-11.191 8.492-17.104l2.457-4.368c.81-1.432 1.612-2.854 2.483-4.194 1.732-2.69 3.601-5.143 5.448-7.417 1.847-2.275 3.683-4.367 5.413-6.31 1.736-1.941 3.388-3.72 4.963-5.276 3.14-3.127 5.968-5.343 7.97-6.786 1-.726 1.794-1.263 2.338-1.619.26-.17.465-.302.62-.402.14-.088.214-.131.218-.126.003.005-.064.057-.198.156l-.603.43c-.529.375-1.31.93-2.298 1.669-1.975 1.475-4.769 3.713-7.878 6.851-1.56 1.564-3.197 3.347-4.92 5.293-1.72 1.951-3.546 4.047-5.382 6.321-1.836 2.274-3.692 4.724-5.41 7.4-.864 1.335-1.658 2.743-2.47 4.18l-2.453 4.367c-3.293 5.908-6.248 11.644-8.501 17.057" transform="translate(-45 -101) translate(45 101)"/>
                    <path fill="#E0E0E0" d="M295.321 141.121c-.023.001-.055-.286-.095-.806-.043-.521-.079-1.277-.11-2.21-.062-1.866-.061-4.447-.049-7.292.012-2.846-.023-5.42-.115-7.28-.042-.93-.085-1.682-.121-2.202-.033-.52-.04-.81-.017-.812.024-.004.076.281.15.799.076.516.155 1.268.229 2.2.154 1.862.228 4.446.215 7.295-.018 2.808-.036 5.347-.05 7.288v2.208c0 .521-.013.812-.037.812" transform="translate(-45 -101) translate(45 101)"/>
                    <path fill="#E0E0E0" d="M319.556 139.243c-.002.024-.344.027-.96.011-.616-.01-1.506-.032-2.607-.023-2.2 0-5.241.107-8.59.372-3.351.27-6.372.644-8.549.978-1.09.159-1.969.311-2.576.413-.609.104-.947.15-.953.128-.004-.024.325-.116.926-.26.602-.142 1.476-.331 2.566-.523 2.173-.396 5.2-.81 8.56-1.081 3.359-.265 6.412-.334 8.62-.271 1.103.022 1.995.08 2.61.134.615.057.954.098.953.122M282.129 166.384c-.012.004-.057-.101-.133-.307l-.313-.902c-.268-.785-.628-1.93-1.053-3.353-.854-2.843-1.908-6.806-3.012-11.195-1.105-4.392-2.122-8.36-2.913-11.217l-.948-3.38-.254-.922c-.054-.211-.076-.324-.065-.329.011-.003.056.103.131.309l.314.901c.269.785.628 1.931 1.053 3.352.853 2.843 1.908 6.807 3.012 11.198 1.105 4.39 2.121 8.358 2.914 11.215l.948 3.38.252.922c.054.212.078.324.067.328" transform="translate(-45 -101) translate(45 101)"/>
                    <path fill="#E0E0E0" d="M314.792 159.618c.002.012-.11.044-.327.095l-.95.208-3.498.731c-2.954.617-7.024 1.517-11.52 2.517-4.498 1.001-8.58 1.864-11.547 2.42-1.484.28-2.686.493-3.521.624l-.961.144c-.221.03-.338.04-.34.027-.002-.012.112-.044.327-.096.256-.055.57-.124.95-.208l3.499-.73c2.953-.617 7.023-1.517 11.522-2.518 4.496-1 8.577-1.863 11.545-2.42 1.483-.279 2.686-.492 3.52-.622.386-.058.703-.107.962-.145.221-.03.337-.04.34-.027" transform="translate(-45 -101) translate(45 101)"/>
                    <g transform="translate(-45 -101) translate(45 101) translate(209.88)">
                        <mask id="qb7rk28wbf" fill="#fff">
                            <use xlink:href="#mni259tgie"/>
                        </mask>
                        <path fill="#E0E0E0" d="M.252 41.24c1.422-8.15 5.31-20.066 9.969-26.906C14.88 7.494 22.063 2.057 30.264.921 38.467-.215 47.516 3.63 51.21 11.034c1.981 3.97 2.345 8.537 3.79 12.73 1.444 4.195 4.61 8.386 9.036 8.724 3.918.3 7.693-2.522 11.55-1.772 5.022.977 6.961 7.162 6.99 12.273.027 5.112-.7 10.787 2.443 14.82 2.572 3.3 6.979 4.436 10.53 6.65 7.682 4.787 10.97 14.675 10.191 23.687-.778 9.011-4.932 17.357-9.343 25.256-3.676-12.957-8.684-25.535-14.92-37.472-3.562-6.82-10.065-12.624-15.821-17.733-8.84-7.842-28.246-11.585-39.978-13.027-11.733-1.442-13.807-1.757-25.426-3.93" mask="url(#qb7rk28wbf)"/>
                    </g>
                </g>
                <g>
                    <path fill="#E8505B" d="M83.995 1.537C55.001 3.635 23.35 7.459.14 16.336l7.33 49.413S52.456 49.71 89.057 50.825L83.995 1.537z" transform="translate(-45 -101) translate(45 101) translate(48 50)"/>
                    <path fill="#FFF" d="M83.995 1.537C55.001 3.635 23.35 7.459.14 16.336l7.33 49.413S52.456 49.71 89.057 50.825L83.995 1.537z" transform="translate(-45 -101) translate(45 101) translate(48 50)"/>
                    <path fill="#E8505B" d="M81.904 44.306c0 .007-.094.025-.279.052l-.822.113-3.164.393c-1.375.162-3.057.363-5.003.649-1.946.278-4.169.554-6.61.959-9.782 1.506-23.245 3.993-37.871 7.761-5.084 1.308-9.984 2.656-14.468 4.057l-.223.07-.031-.229c-1.567-11.33-3.084-21.1-4.248-28.027l-1.4-8.11-.382-2.167c-.036-.231-.067-.416-.09-.56-.018-.127-.025-.192-.02-.193.006-.002.024.062.054.186l.124.554.445 2.157c.377 1.882.898 4.632 1.512 8.092 1.232 6.919 2.8 16.683 4.393 28.014l-.255-.158c4.497-1.415 9.396-2.77 14.487-4.078 14.642-3.773 28.129-6.218 37.93-7.653 2.446-.386 4.673-.644 6.623-.9 1.95-.265 3.636-.443 5.015-.58l3.174-.319.826-.072c.187-.014.283-.018.283-.011" transform="translate(-45 -101) translate(45 101) translate(48 50)"/>
                    <path fill="#E8505B" d="M82.887 32.294c-.02.005-.11-.345-.334-.983-.253-.63-.695-1.538-1.492-2.555-.796-1.01-1.95-2.126-3.52-3.07-.38-.257-.821-.437-1.253-.665-.456-.17-.911-.392-1.417-.51-.987-.297-2.091-.456-3.225-.313-1.126.136-2.287.536-3.285 1.287-1.005.735-1.882 1.72-2.627 2.846-1.525 2.249-2.516 4.99-3.684 7.836-.615 1.404-1.419 2.858-2.728 3.896-.646.515-1.414.924-2.264 1.08-.85.16-1.748.038-2.547-.293-3.302-1.304-4.772-5.093-8.108-6.246-1.632-.555-3.456-.337-4.951.404-.75.372-1.426.884-1.962 1.508-.539.621-.938 1.355-1.307 2.093-.746 1.464-1.305 3.091-2.566 4.24-.619.564-1.415.95-2.25 1.01-.831.072-1.648-.146-2.353-.503-1.418-.733-2.47-1.916-3.239-3.171-.751-1.282-1.21-2.626-1.713-3.89-.492-1.267-1.007-2.476-1.696-3.517-.69-1.037-1.579-1.874-2.593-2.397-2.037-1.078-4.306-.947-5.945-.173-1.686.718-2.951 1.728-3.774 2.711-.83.987-1.219 1.934-1.416 2.577-.2.65-.227 1.012-.256 1.006 0 0 .001-.364.177-1.027.174-.66.544-1.634 1.373-2.656.82-1.018 2.095-2.067 3.805-2.819 1.67-.815 4.043-.982 6.169.127 1.062.535 2.004 1.41 2.721 2.477.72 1.071 1.248 2.3 1.75 3.568.509 1.263.978 2.604 1.705 3.829.743 1.206 1.772 2.342 3.101 3.02.662.332 1.407.525 2.15.459.744-.056 1.459-.402 2.024-.92 1.156-1.047 1.72-2.638 2.468-4.126.374-.751.784-1.513 1.361-2.18.57-.666 1.288-1.211 2.084-1.607 1.585-.787 3.514-1.02 5.262-.427 1.779.582 3.05 1.947 4.23 3.176 1.172 1.25 2.384 2.47 3.898 3.086.746.308 1.557.417 2.326.275.771-.14 1.484-.514 2.094-.997 1.235-.974 2.016-2.36 2.626-3.743 1.165-2.81 2.184-5.595 3.748-7.874.765-1.145 1.673-2.154 2.723-2.91 1.042-.775 2.264-1.189 3.437-1.32 1.183-.14 2.32.037 3.33.35.517.127.982.358 1.446.537.438.237.884.427 1.27.692 1.586.98 2.74 2.128 3.526 3.167.788 1.046 1.213 1.98 1.444 2.623.115.323.158.584.206.752.04.17.058.259.05.26M6.056 25.807c.021.11-.356.274-.843.366-.487.093-.898.078-.919-.032-.02-.11.356-.274.843-.367.487-.092.898-.077.92.033M7.338 34.832c.047.101-.237.333-.635.518-.398.184-.76.251-.807.15-.047-.101.237-.333.635-.518.399-.185.759-.252.807-.15M8.94 44.693c.036.106-.256.303-.654.441-.398.14-.75.166-.788.06-.037-.106.255-.304.654-.442.397-.139.75-.165.788-.06M10.862 54.386c.034.107-.298.306-.74.444-.442.139-.828.165-.862.058-.034-.108.298-.306.74-.445.442-.138.829-.164.862-.057M65.538 7.815c-.021-.013.334-.118.947-.212.622-.108 1.536-.243 2.698-.406 2.323-.326 5.636-.754 9.587-1.24l.184-.022.017.185 1.038 11.188.015.168.018.195-.195.025-12.962 1.581-.174.021-.018-.17-.885-8.25-.221-2.279c-.047-.52-.064-.792-.049-.784.016.009.065.298.142.832l.315 2.297 1.04 8.144-.193-.15 12.955-1.645-.178.22-.015-.169-.993-11.191.201.163-13.274 1.5" transform="translate(-45 -101) translate(45 101) translate(48 50)"/>
                    <path fill="#E8505B" d="M77.578 9.782c-.003.12-2.231.119-4.953.411-2.723.281-4.902.745-4.93.628-.028-.1 2.13-.747 4.887-1.032 2.755-.295 5.003-.11 4.996-.007M77.717 12.677c0 .118-2.077.197-4.623.446-2.547.241-4.6.559-4.623.444-.022-.105 2.014-.604 4.584-.849 2.57-.25 4.663-.148 4.662-.041M74.613 15.206c.014.112-1.167.352-2.638.538-1.471.185-2.675.246-2.689.135-.015-.111 1.167-.352 2.638-.538 1.47-.185 2.674-.246 2.69-.135M225.316 16.075C196.927 7.456 172.979.096 140.822.3l-4.915 50.351c33.4 2.945 44.562 5.123 75.404 16.243l14.005-50.819z" transform="translate(-45 -101) translate(45 101) translate(48 50)"/>
                    <path fill="#FFF" d="M225.316 16.075C196.927 7.456 172.979.096 140.822.3l-4.915 50.351c33.4 2.945 44.562 5.123 75.404 16.243l14.005-50.819z" transform="translate(-45 -101) translate(45 101) translate(48 50)"/>
                    <path fill="#E8505B" d="M161.05 24.733l1.253-10.683c-2.977-.346-6.162.525-8.756 2.412-3.054 2.224-5.284 5.856-5.38 10.564-.01.514.002 1.04.045 1.58 0 .012 0 .025.002.038h.002l12.523-1.403.31-2.508zM173.995 22.984c-1.237-3.963-4.215-7.381-8.922-8.472-.126-.029-.253-.057-.38-.083-.082-.016-.162-.035-.244-.05-.24-.043-.482-.08-.73-.112l-.033-.005h-.003l-.03-.005v.002L162.4 24.94l-.294 2.511 11.823 4.3.015.005c.297-.879.5-1.798.612-2.735.237-2.001.048-4.085-.561-6.038" transform="translate(-45 -101) translate(45 101) translate(48 50)"/>
                    <path fill="#000" d="M173.995 22.984c-1.237-3.963-4.215-7.381-8.922-8.472-.126-.029-.253-.057-.38-.083-.082-.016-.162-.035-.244-.05-.24-.043-.482-.08-.73-.112l-.033-.005h-.003l-.03-.005v.002L162.4 24.94l-.294 2.511 11.823 4.3.015.005c.297-.879.5-1.798.612-2.735.237-2.001.048-4.085-.561-6.038" transform="translate(-45 -101) translate(45 101) translate(48 50)"/>
                    <path fill="#E8505B" d="M161.227 28.654l-12.525 1.402c.521 6.042 4.949 11.053 10.896 11.782 5.977.733 11.518-3.1 13.469-8.883l-11.824-4.299M214.345 25.673c-.013.025-.406-.135-1.105-.445-.699-.315-1.714-.756-2.977-1.282-2.522-1.055-6.063-2.382-10.075-3.526-4.015-1.138-7.726-1.871-10.427-2.301-1.35-.218-2.447-.377-3.207-.476-.759-.104-1.177-.175-1.175-.202.002-.028.427-.011 1.192.045.766.051 1.871.167 3.232.348 2.721.36 6.462 1.052 10.497 2.196 4.032 1.149 7.577 2.527 10.078 3.653 1.252.56 2.252 1.043 2.93 1.402.68.355 1.05.563 1.037.588M213.485 30.929c-.013.025-.406-.135-1.105-.446-.699-.315-1.714-.755-2.977-1.281-2.522-1.055-6.063-2.383-10.075-3.527-4.014-1.138-7.726-1.87-10.427-2.3-1.35-.218-2.447-.377-3.206-.477-.76-.103-1.178-.174-1.176-.202.003-.028.427-.01 1.192.046.766.051 1.871.167 3.232.348 2.721.359 6.462 1.052 10.497 2.195 4.032 1.15 7.577 2.528 10.078 3.653 1.252.561 2.253 1.043 2.93 1.403.68.355 1.05.563 1.037.588M212.626 36.185c-.014.024-.407-.136-1.106-.446-.698-.315-1.713-.756-2.976-1.282-2.522-1.055-6.064-2.382-10.076-3.527-4.014-1.137-7.726-1.87-10.427-2.3-1.35-.217-2.447-.376-3.206-.476-.76-.104-1.178-.175-1.176-.202.003-.029.427-.01 1.192.045.766.052 1.871.168 3.232.349 2.722.359 6.462 1.051 10.497 2.195 4.032 1.15 7.577 2.527 10.079 3.652 1.25.562 2.252 1.044 2.93 1.403.68.356 1.05.564 1.037.589M210.905 41.44c-.012.025-.394-.135-1.07-.444-.675-.314-1.66-.754-2.882-1.279-2.442-1.052-5.873-2.38-9.767-3.524-3.895-1.14-7.502-1.875-10.127-2.306-1.313-.218-2.38-.377-3.117-.477-.738-.104-1.145-.175-1.142-.203.001-.028.415-.01 1.16.046.744.052 1.82.169 3.142.35 2.646.36 6.283 1.054 10.2 2.2 3.913 1.15 7.347 2.53 9.769 3.652 1.211.56 2.179 1.041 2.834 1.399.657.354 1.013.56 1 .586M207.168 45.633c-.013.025-.357-.113-.967-.383l-2.585-1.145c-2.188-.947-5.241-2.196-8.736-3.194-3.499-.99-6.754-1.533-9.114-1.88l-2.801-.385c-.663-.091-1.029-.155-1.026-.183.003-.028.373-.017 1.041.026.669.038 1.633.127 2.823.258 2.377.274 5.663.775 9.189 1.774 3.523 1.005 6.58 2.306 8.743 3.323 1.08.514 1.947.946 2.536 1.264.589.314.91.5.897.525M194.555 46.226c-.017.057-.783-.131-2.02-.417-1.237-.287-2.95-.655-4.86-.982-1.908-.33-3.648-.565-4.907-.745-1.261-.175-2.04-.293-2.035-.35.005-.055.795-.038 2.067.065 1.27.106 3.024.297 4.944.63 1.92.329 3.639.745 4.864 1.104 1.225.359 1.962.645 1.947.695" transform="translate(-45 -101) translate(45 101) translate(48 50)"/>
                    <path fill="#E8505B" d="M145.75 6.266s.214-.018.652-.034l1.954-.065c1.726-.042 4.221-.014 7.413.166 6.362.426 15.495 1.498 26.042 4.643l.144.043-.027.152-6.771 38.624-.3 1.712-.04.217-.215-.056c-5.936-1.553-11.784-2.712-17.387-3.573-5.601-.857-10.96-1.463-15.936-1.778l-.191-.012.021-.187 3.323-28.906.955-8.104c.112-.917.2-1.627.26-2.126l.072-.541c.016-.12.027-.18.03-.175.004.003 0 .069-.011.196l-.051.56-.22 2.164-.864 8.15c-.76 6.999-1.844 16.947-3.137 28.822l-.168-.199c4.999.302 10.361.898 15.978 1.748 5.614.855 11.477 2.012 17.431 3.569l-.252.16.301-1.71 6.83-38.615.117.194c-10.487-3.164-19.606-4.288-25.946-4.771-3.177-.21-5.694-.267-7.382-.262l-1.942.004c-.443-.001-.683-.01-.683-.01" transform="translate(-45 -101) translate(45 101) translate(48 50)"/>
                </g>
                <path fill="#E8505B" d="M163.02 158.825L190.76 165 195 158.825 194.315 150.872 190.1 147 175.568 147 162 159.284" transform="translate(-45 -101) translate(45 101)"/>
                <g>
                    <path fill="#000" d="M96.12 130.972L123.842 137.115 128.079 130.972 127.394 123.061 123.182 119.21 108.659 119.21 95.1 131.429" transform="translate(-45 -101) translate(45 101) translate(67 28)"/>
                    <path fill="#FFBE9D" d="M138.394 73.834l34.993-4.716 5.508-1.554s12.613-2.773 13.79-3.194c1.362-.486 1.923.054 2.068.568.226.802-.541 1.699-1.695 2.152-.4.157-6.798 2.375-6.798 2.375s.632.104 2.161.623c1.53.52 3 2.495 3.734 4.796.736 2.302.738 3.01-.141 3.339-.354.131-.71.032-1.018-.142-.502-.284-.866-.768-1.05-1.316-1.227-3.67-3.522-3.959-3.522-3.959l-.72.203s2.367 1.655 2.326 3.655c-.006.327-.078.61-.184.86.334.97.143 2.11-.506 2.908-.675.83-1.813 1.257-2.867 1.074-.504-.087-1.05-.385-1.122-.892-.039-.267.066-.53.163-.783.05-.133.097-.27.124-.41l-2.098.287s-4.749.392-6.796.797l-32.77 9.877c-4.543 1.369-9.326-1.256-10.614-5.826-1.401-4.971 1.92-10.033 7.034-10.722" transform="translate(-45 -101) translate(45 101) translate(67 28)"/>
                    <path fill="#FFBE9D" d="M174.198 70.012c.055.734.788 1.246 1.508 1.396.72.151 1.47.053 2.199.151 2.18.295 3.876 2.279 6.067 2.468.306.027.691-.036.782-.33.084-.272-.15-.529-.364-.717l-5.46-4.83" transform="translate(-45 -101) translate(45 101) translate(67 28)"/>
                    <path fill="#EB996E" d="M178.93 68.15c.02-.02.247.145.644.462.397.318.963.788 1.655 1.375l2.417 2.078.694.606c.206.209.567.39.634.89.021.252-.17.5-.375.58-.202.09-.397.104-.588.097-.361-.035-.71-.096-1.054-.21-1.376-.448-2.437-1.28-3.501-1.776-.528-.256-1.052-.443-1.559-.519-.506-.076-1.004-.06-1.464-.093-.933-.023-1.688-.423-1.994-.862-.324-.444-.255-.778-.241-.766.041-.011.038.299.365.661.323.368.989.684 1.883.673.445.014.946-.021 1.498.045.553.068 1.12.257 1.675.514 1.116.501 2.188 1.317 3.462 1.726.314.105.642.16.952.193.301.022.561-.089.534-.25-.003-.179-.253-.4-.49-.606-.232-.21-.461-.414-.685-.615l-2.358-2.146c-.667-.615-1.203-1.118-1.566-1.473-.364-.355-.556-.561-.538-.583M185.64 72.936c.006.054.54-.232 1.376-.018.409.106.85.381 1.198.823.356.438.624 1.012.861 1.637.24.624.469 1.24.798 1.746.327.502.723.897 1.145 1.102.424.216.85.146 1.07.025.228-.122.314-.238.307-.245-.015-.02-.125.065-.348.15-.22.08-.578.111-.942-.098-.365-.201-.726-.585-1.023-1.066-.299-.483-.514-1.08-.757-1.712-.24-.63-.527-1.234-.92-1.696-.386-.468-.893-.761-1.345-.85-.451-.099-.828-.039-1.069.032-.242.075-.358.155-.352.17M193.5 66.908c-.015-.035-.498.143-1.275.433l-3.04 1.118-3.059 1.073c-.784.272-1.268.442-1.257.478.008.035.513-.07 1.314-.296.802-.225 1.897-.573 3.091-1.002 1.196-.43 2.261-.858 3.023-1.195.762-.336 1.218-.576 1.203-.609M184.714 74.888c-.014.015.094.122.275.32.168.19.447.517.395.963-.023.216-.172.406-.413.52-.234.118-.527.165-.846.233-.31.066-.696.176-.944.506-.237.324-.287.763-.159 1.151.13.4.448.69.787.846.343.155.706.214 1.054.156.656-.131 1.187-.376 1.624-.606.431-.237.751-.487.934-.697.182-.214.23-.366.218-.371-.022-.011-.097.118-.292.297-.196.179-.518.394-.947.602-.429.2-.97.424-1.575.53-.564.083-1.333-.202-1.548-.84-.105-.312-.06-.67.115-.912.178-.245.486-.352.79-.422.303-.073.62-.127.893-.277.275-.134.487-.418.498-.694.029-.558-.321-.885-.51-1.06-.21-.18-.338-.258-.35-.245" transform="translate(-45 -101) translate(45 101) translate(67 28)"/>
                    <path fill="#EB996E" d="M183.965 79.253c-.002-.012-.15 0-.347.164-.19.158-.424.498-.392.973.032.465.369.988.928 1.245.554.26 1.256.254 1.9.027.646-.23 1.176-.662 1.509-1.152.339-.49.476-1.024.508-1.464.031-.443-.04-.8-.113-1.032-.076-.233-.148-.35-.162-.344-.052.012.186.521.086 1.358-.053.41-.2.898-.521 1.34-.316.44-.805.83-1.397 1.04-.588.209-1.223.216-1.708.001-.487-.21-.794-.648-.842-1.039-.05-.396.126-.715.275-.878.157-.17.286-.218.276-.239M178.14 76.375c.024-.007-.011-.253-.224-.607-.21-.349-.628-.802-1.275-1.043l.013.237c.258-.123.53-.272.8-.444 1.511-.954 2.258-2.238 2.195-2.263-.063-.052-.884 1.12-2.34 2.037-.261.166-.522.313-.768.438l-.272.14.286.097c.587.202.996.59 1.228.893.236.306.325.527.357.515M189.038 72.634c-.05-.05-.42.359-.46 1.005-.047.646.265 1.101.321 1.059.071-.034-.098-.479-.054-1.04.032-.563.26-.981.193-1.024" transform="translate(-45 -101) translate(45 101) translate(67 28)"/>
                    <path fill="#FFBE9D" d="M25.747 84.82s-5.112-8.29-6.016-8.992c-.905-.703-8.997-3.668-9.687-3.45-.692.217-10.498 1.894-9.371 3.058 1.125 1.166 7.963-.099 7.963-.099l.918.46s-5.907.941-7.15 1.66c-1.146.663-.753 2.065.33 1.953 1.081-.112 6.213-1.106 6.519-.895.305.21-5.584 1.386-6.218 1.76-.852.505-.938 2.022.138 1.948.635-.044 6.188-1.48 6.188-1.48s-4.403 1.7-4.809 2.085c-.665.63-.138 1.59.816 1.38.655-.144 3.766-1.629 4.643-1.82 0 0 .82.22 1.564 1.879.347.774 1.927 5.605 4.817 5.541 2.56-.055 5.074 2.057 5.074 2.057l4.281-7.044z" transform="translate(-45 -101) translate(45 101) translate(67 28)"/>
                    <path fill="#EB996E" d="M.692 75.461c-.017.054.645.33 1.787.495.57.08 1.257.125 2.02.084.75-.083 1.568-.2 2.43-.319l1.829-.267-.11-.01c2.418.863 4.19 1.424 4.228 1.328.037-.098-1.675-.823-4.079-1.743l-.048-.018-.063.008-1.814.246c-.84.122-1.64.24-2.402.35-.734.063-1.4.053-1.958.016-1.117-.077-1.802-.239-1.82-.17" transform="translate(-45 -101) translate(45 101) translate(67 28)"/>
                    <path fill="#FFBE9D" d="M21.916 83.838c-.598.555-1.58.418-2.278-.003-.699-.42-1.235-1.066-1.902-1.536-1.994-1.406-4.867-1.073-6.791-2.572-.268-.21-.533-.552-.386-.858.136-.285.52-.317.835-.309l8.077.194" transform="translate(-45 -101) translate(45 101) translate(67 28)"/>
                    <path fill="#EB996E" d="M19.471 78.754c.001-.032-.31-.07-.87-.11-.563-.042-1.376-.086-2.38-.131-1.047-.04-2.235-.086-3.533-.134l-1.02-.033c-.324.015-.755-.11-1.186.246-.206.189-.238.535-.132.754.096.225.244.385.406.523.318.244.649.457 1.014.625 1.456.674 2.945.797 4.184 1.198.623.19 1.189.433 1.657.754.47.32.862.709 1.262 1.029.774.685 1.69.93 2.27.804.597-.116.793-.44.773-.442-.026-.038-.256.216-.796.264-.54.054-1.318-.19-2.037-.875-.372-.324-.753-.73-1.252-1.093-.5-.363-1.103-.637-1.748-.847-1.285-.433-2.771-.58-4.115-1.209-.334-.151-.643-.353-.919-.561-.261-.21-.39-.495-.246-.605.137-.144.509-.136.854-.125l1.021.017 3.534.036c1.006.003 1.82-.003 2.384-.016.563-.014.874-.037.875-.069" transform="translate(-45 -101) translate(45 101) translate(67 28)"/>
                    <path fill="#E8505B" d="M65.556 268.387l-1.867 20.559-6.162 15.835c-.444 1.142.17 2.42 1.338 2.786.655.205 1.361.084 1.906-.332 3.47-2.645 16.186-12.439 16.239-13.95.06-1.752 3.408-21.556 3.408-21.556l-14.862-3.342z" transform="translate(-45 -101) translate(45 101) translate(67 28)"/>
                    <path fill="#FFF" d="M58.865 307.568L77.167 291.9l-.099.869c-.086.751-.431 1.45-.983 1.966-1.476 1.382-5.634 5.109-15.251 12.508-.56.431-1.3.553-1.969.325M73.715 284.804c-.555.297-.811 1.055-.538 1.62.274.566 1.043.834 1.601.548.56-.288.895-1.189.56-1.72-.335-.531-1.254-.797-1.728-.384" transform="translate(-45 -101) translate(45 101) translate(67 28)"/>
                    <path fill="#263238" d="M64.57 299.14c-.121.043-.461-1.084-1.615-1.8-1.131-.751-2.297-.592-2.308-.722-.012-.051.266-.181.753-.195.483-.015 1.17.131 1.8.535.63.406 1.048.97 1.235 1.415.19.45.188.756.136.767M62.798 301.72c-.108.078-.689-.664-1.715-1.089-1.016-.448-1.954-.355-1.972-.487-.048-.111.99-.433 2.15.07 1.166.49 1.65 1.462 1.537 1.506M67.69 295.93c-.108.086-.997-1.06-2.534-1.86-1.525-.825-2.97-.919-2.96-1.057-.02-.112 1.535-.224 3.172.656 1.646.863 2.427 2.214 2.321 2.26M68.779 289.727c-.07.116-1.148-.486-2.614-.707-1.465-.242-2.676 0-2.705-.133-.046-.106 1.2-.571 2.775-.315 1.577.241 2.62 1.068 2.544 1.155M69.48 283.706c-.078.112-1.138-.702-2.702-.808-1.563-.142-2.737.495-2.796.372-.029-.046.225-.278.728-.497.5-.221 1.262-.393 2.103-.327.842.068 1.567.357 2.026.654.462.296.676.564.64.606M66.944 281.755c-.025-.002-.041-.282.06-.779.102-.491.33-1.206.849-1.961.264-.356.55-.82 1.153-1.025.3-.104.718-.003.93.297.211.291.25.638.22.963-.17 1.3-1.43 2.431-2.916 2.452-1.487-.006-2.723-.998-3.176-2.188-.095-.306-.142-.673.057-1.002.196-.332.628-.423.916-.339.599.16.943.555 1.27.856.642.65 1.01 1.297 1.218 1.754.206.46.259.735.234.744-.078.046-.403-1.066-1.674-2.267-.322-.279-.692-.628-1.125-.72-.212-.044-.405.02-.5.183-.098.156-.084.419 0 .66.387.977 1.519 1.88 2.776 1.865 1.251-.004 2.358-1 2.504-2.045.031-.252-.006-.513-.124-.679-.115-.163-.313-.226-.511-.17-.417.115-.733.514-.993.848-1.035 1.408-1.08 2.584-1.168 2.553" transform="translate(-45 -101) translate(45 101) translate(67 28)"/>
                    <path fill="#263238" d="M84.446 280.447l15.373-121.831-4.915-28.321-28.994 1.538-3.61 146.364c-.03 1.09.733 2.044 1.804 2.253l16.886 2.605c1.68.259 3.243-.921 3.456-2.608" transform="translate(-45 -101) translate(45 101) translate(67 28)"/>
                    <path fill="#263238" d="M99.379 162.702l27.962 27.694-40.233 9.792 2.864 20.314 54.457-7.417c4.655-.634 8.844-3.152 11.59-6.965 4.218-5.853 4.323-13.721.263-19.686l-42.424-62.322-18.955 6.183 4.476 32.407z" transform="translate(-45 -101) translate(45 101) translate(67 28)"/>
                    <path fill="#455A64" d="M97.835 155.654c.11-.024.545 1.534.97 3.48.427 1.948.684 3.545.574 3.57-.11.023-.545-1.535-.971-3.482-.427-1.947-.684-3.544-.573-3.568" transform="translate(-45 -101) translate(45 101) translate(67 28)"/>
                    <path fill="#455A64" d="M93.76 202.746s.224-.082.665-.222l1.958-.608 7.503-2.284 27.304-8.217-.07.26-33.566-35.772.346-.114-2.067 17.476c-3.461 29.018-6.713 55.271-9.232 74.254-1.248 9.492-2.35 17.161-3.154 22.455-.448 2.64-.743 4.698-1.047 6.077l-.338 1.568c-.078.353-.128.531-.128.531s.023-.185.088-.54l.297-1.575c.278-1.38.547-3.443.971-6.085.756-5.3 1.813-12.973 3.025-22.47 2.445-18.988 5.652-45.245 9.114-74.263l2.072-17.475.05-.43.296.315 33.504 35.83.175.188-.246.073-27.342 8.085-7.528 2.202-1.971.564c-.447.125-.678.177-.678.177" transform="translate(-45 -101) translate(45 101) translate(67 28)"/>
                    <path fill="#455A64" d="M84.71 278.148c-.112-.015 3.082-25.872 7.132-57.747 4.052-31.886 7.425-57.715 7.537-57.7.112.013-3.081 25.865-7.132 57.752-4.05 31.875-7.425 57.71-7.537 57.695M94.837 142.761c.053-.015.307.706.649 1.889s.768 2.83 1.168 4.668c.4 1.836.698 3.512.879 4.731.18 1.219.25 1.978.196 1.987-.057.01-.227-.734-.48-1.936-.284-1.345-.62-2.937-.993-4.695l-1.05-4.684c-.27-1.198-.424-1.944-.369-1.96M96.635 140.374c-.044-.023.393-.382 1.136-.122.348.122.759.47.848 1.002.094.506-.09 1.144-.634 1.484-.556.323-1.213.182-1.607-.16-.424-.348-.482-.914-.363-1.264.111-.37.344-.6.523-.7.183-.102.303-.1.31-.077.036.052-.428.217-.553.845-.058.297.015.676.323.907.292.236.793.32 1.156.1.366-.223.53-.697.475-1.074-.047-.387-.32-.663-.594-.8-.573-.28-1.006-.075-1.02-.14M135.576 195.137c-.085.094-1.659-1.358-3.924-2.663-2.257-1.324-4.296-1.973-4.257-2.092.018-.098 2.153.386 4.462 1.738 2.316 1.337 3.795 2.952 3.719 3.017" transform="translate(-45 -101) translate(45 101) translate(67 28)"/>
                    <path fill="#E8505B" d="M75.139 47.248l-16.054 7.756 6.92 48.337-2.719 21.696c-.35 2.796.71 5.583 2.83 7.438l25.928-.512 18.157-9.99 8.338-1.41-3.413-16.514 1.53-23.428 18.978 10.14c1.46.782 3.163.985 4.767.57l34.793-9.006-1.807-13.414-31.497 3.563-23.986-21.21-17.854-4.016-3.183-5.264H78.599l-1.277.96c-.611.457-1.071 1.088-1.32 1.81l-.863 2.494z" transform="translate(-45 -101) translate(45 101) translate(67 28)"/>
                    <path fill="#E8505B" d="M59.085 55.004s-5.267 3.338-7.23 9.437c-1.834 5.701-5.975 28.767-5.975 28.767L27.64 81.88 17.128 92.938l24.317 21.459c3.727 3.29 9.061 4.025 13.538 1.868h.001c3.737-1.802 6.323-5.359 6.884-9.472l2.985-21.87-5.768-29.92z" transform="translate(-45 -101) translate(45 101) translate(67 28)"/>
                    <path fill="#FFBE9D" d="M113.859 124.112L112.729 122.449 100.725 124.669 98.515 129.788z" transform="translate(-45 -101) translate(45 101) translate(67 28)"/>
                    <path fill="#E8505B" d="M66.117 132.474c10.726 4.32 22.181 2.731 32.397-2.686 3.084-1.635 5.944-3.67 9.042-5.282 3.097-1.61 6.534-2.803 10.016-2.559 3.482.245 6.995 2.168 8.388 5.371 1.392 3.203.002 7.564-3.278 8.759l1.16 1.038c4.817-2.243 7.1-8.734 4.75-13.502-1.802-3.658-5.588-5.837-8.363-8.823-4.08-4.39-4.505-12.89-4.531-19.503" transform="translate(-45 -101) translate(45 101) translate(67 28)"/>
                    <path fill="#263238" d="M89.65 56.592c-.003.022-.284.037-.791.045-.483.084-1.279.185-1.902.876-.621.668-.965 1.794-.947 3.065.001 1.266.247 2.722.87 4.11l.302.675-.591-.439c-1.342-.996-2.73-2.199-4.044-3.579-3.097-3.236-5.176-6.795-6.219-9.528-.547-1.36-.826-2.517-1.009-3.312-.142-.807-.208-1.253-.18-1.257.091-.022.318 1.789 1.457 4.46 1.099 2.674 3.186 6.158 6.245 9.355 1.3 1.363 2.664 2.558 3.98 3.553l-.289.236c-.335-.734-.535-1.478-.669-2.198-.132-.72-.202-1.419-.179-2.08.006-1.317.395-2.519 1.103-3.227.712-.73 1.565-.79 2.064-.837.524.032.8.06.798.082" transform="translate(-45 -101) translate(45 101) translate(67 28)"/>
                    <path fill="#E8505B" d="M90.612 56.592c1.321-.57 3.279.272 4.227 1.354.628.715.98 1.707 1.806 2.177.831.473 3.437.834 4.197.254 0 0 .464-2.232.706-3.156.964-3.661 1.38-6.988 1.786-10.723-2.528-1.224-1.831-2.838-6.375-2.53 0 0 1.139 3.357.158 6.412" transform="translate(-45 -101) translate(45 101) translate(67 28)"/>
                    <path fill="#263238" d="M97.118 50.38c-.043-.012.165-.606.263-1.719.08-1.103.025-2.754-.564-4.644l-.059-.188.191-.01c1.003-.058 2.162-.147 3.353.302.596.227 1.088.692 1.547 1.116.465.427.974.807 1.57 1.086l.122.058-.014.138c-.202 1.903-.433 3.981-.793 6.125-.236 1.402-.518 2.76-.846 4.056-.33 1.293-.585 2.537-.863 3.716l-.018.076-.052.034c-.453.292-.91.307-1.34.327-.435.01-.853-.024-1.259-.082-.404-.058-.796-.138-1.172-.255-.371-.11-.755-.29-1.029-.56-.557-.533-.842-1.167-1.207-1.657-.354-.495-.799-.853-1.233-1.123-.875-.54-1.704-.708-2.254-.704-.558.005-.839.153-.849.12 0 0 .263-.195.844-.24.574-.043 1.445.096 2.375.63.46.266.944.634 1.336 1.155.39.507.695 1.128 1.198 1.587.49.456 1.27.585 2.038.704.39.05.794.078 1.2.064.397-.014.838-.067 1.126-.263l-.07.11c.267-1.184.52-2.45.842-3.736.32-1.286.596-2.634.83-4.027.358-2.13.596-4.2.81-6.099l.108.195c-.627-.297-1.18-.718-1.65-1.161-.472-.441-.902-.856-1.434-1.066-1.065-.422-2.21-.368-3.195-.326l.132-.2c.572 1.966.577 3.635.446 4.76-.077.562-.177.992-.268 1.276-.093.284-.148.429-.162.425M123.873 124.383c-.032-.002.036-.313-.008-.9-.04-.58-.204-1.456-.772-2.416-.563-.955-1.515-1.987-2.88-2.784-1.36-.806-3.147-1.247-5.134-1.41-1.992-.183-4.197-.075-6.57-.236-2.364-.166-4.907-.577-7.408-1.572-2.49-.98-4.922-2.627-6.682-4.993-.873-1.182-1.545-2.555-1.921-4.027-.395-1.47-.496-3.021-.44-4.568.122-3.102.835-6.04 1.263-8.89.45-2.851.698-5.63.783-8.282.149-5.306-.319-10.088-1.03-14.037-.71-3.953-1.618-7.084-2.31-9.22-.336-1.073-.638-1.891-.836-2.45l-.217-.637c-.047-.145-.068-.22-.062-.223.007-.002.04.068.1.208l.256.623c.223.55.55 1.361.91 2.429.74 2.125 1.693 5.254 2.442 9.218.752 3.96 1.251 8.763 1.123 14.1-.075 2.666-.317 5.463-.764 8.332-.427 2.87-1.132 5.797-1.25 8.844-.158 3.03.54 6.055 2.275 8.343 1.702 2.296 4.064 3.913 6.5 4.882 2.447.983 4.952 1.404 7.293 1.583 2.344.174 4.556.083 6.57.285 2.009.184 3.837.654 5.226 1.502 1.388.837 2.345 1.91 2.901 2.9.56.998.703 1.901.717 2.492.015.3-.015.525-.036.677-.02.15-.032.228-.04.227" transform="translate(-45 -101) translate(45 101) translate(67 28)"/>
                    <path fill="#263238" d="M112.158 110.086c.02.02-.303.352-.904.936-.298.296-.67.648-1.127 1.03-.453.386-.955.845-1.557 1.293-1.17.938-2.64 1.962-4.332 2.999-1.706 1.014-3.643 2.03-5.753 2.924-2.118.877-4.2 1.546-6.12 2.051-1.926.48-3.685.81-5.174.985-.742.116-1.42.152-2.013.205-.592.057-1.105.075-1.524.08-.838.02-1.3.016-1.302-.012 0-.028.46-.079 1.293-.146.416-.03.924-.07 1.512-.15.587-.074 1.26-.13 1.994-.262 1.474-.211 3.214-.569 5.119-1.064 1.898-.52 3.958-1.194 6.058-2.064 2.091-.886 4.015-1.882 5.717-2.871 1.69-1.01 3.164-2 4.349-2.904.61-.43 1.12-.87 1.587-1.237.467-.364.854-.698 1.166-.974.632-.546.993-.839 1.011-.819M107.112 84.343c.014.004-.01.152-.068.432l-.274 1.222c-.115.533-.274 1.18-.517 1.914-.235.736-.463 1.59-.835 2.49l-.547 1.429c-.194.495-.442.99-.675 1.513-.449 1.056-1.047 2.125-1.652 3.263-1.282 2.235-2.861 4.598-4.761 6.89-1.925 2.271-3.976 4.239-5.952 5.892-1.014.795-1.963 1.57-2.923 2.196-.476.32-.919.651-1.373.928l-1.31.788c-.822.523-1.622.896-2.305 1.256-.68.367-1.29.637-1.793.843l-1.155.482c-.265.106-.407.155-.413.143-.006-.014.126-.088.381-.218l1.12-.551c.492-.228 1.088-.517 1.754-.901.67-.377 1.455-.766 2.263-1.301l1.287-.805c.446-.282.882-.618 1.35-.942.945-.632 1.877-1.412 2.877-2.207 1.947-1.656 3.971-3.614 5.88-5.866 1.882-2.272 3.456-4.607 4.747-6.812.608-1.124 1.214-2.18 1.672-3.22.236-.517.49-1.005.691-1.494l.568-1.408c.385-.89.632-1.73.887-2.457.262-.723.443-1.361.58-1.885.142-.486.256-.882.348-1.2.084-.274.134-.417.148-.414M74.086 136.411c-.024.035-.627-.3-1.429-1.065-.801-.76-1.756-1.995-2.418-3.561-.656-1.57-.87-3.118-.852-4.222.016-1.11.199-1.774.24-1.766.07.009-.01.682.05 1.759.054 1.074.306 2.556.938 4.07.639 1.512 1.52 2.728 2.249 3.52.727.795 1.264 1.21 1.222 1.265M73.514 130.307c.117.031-.1 1.037.014 2.273.097 1.238.48 2.193.37 2.243-.089.056-.67-.882-.777-2.208-.118-1.325.296-2.348.393-2.308M65.786 102.247c-.014.002-.046-.124-.095-.367l-.194-1.066-.657-3.927c-.552-3.316-1.33-7.892-2.269-12.932-.94-5.043-1.86-9.594-2.541-12.885-.328-1.599-.599-2.915-.8-3.9-.081-.423-.149-.774-.203-1.063-.043-.245-.058-.375-.045-.378.014-.003.056.12.124.36l.278 1.046c.234.91.552 2.235.928 3.873.752 3.279 1.719 7.825 2.66 12.871.939 5.046 1.674 9.635 2.153 12.964.239 1.665.42 3.014.53 3.948l.117 1.077c.022.247.028.378.014.38M115.91 102.247c-.014 0-.027-.133-.039-.388-.01-.301-.02-.669-.033-1.113-.024-.966-.027-2.365-.015-4.093.033-3.456.183-8.233.583-13.492.397-5.263.928-10.01 1.337-13.44l.513-4.06.162-1.1c.042-.251.07-.383.084-.381.014.002.012.136-.003.39l-.085 1.11-.385 4.073c-.335 3.437-.82 8.184-1.217 13.438-.399 5.252-.595 10.017-.701 13.468l-.114 4.088c-.018.444-.033.811-.043 1.112-.015.255-.029.388-.044.388M53.29 104.267c-.139.06-1.17-2.796-3.166-5.9-2.011-3.104-4.345-5.057-4.244-5.16.032-.036.646.408 1.535 1.251.886.844 2.025 2.115 3.05 3.686 1.021 1.572 1.74 3.114 2.2 4.245.457 1.134.673 1.859.624 1.878" transform="translate(-45 -101) translate(45 101) translate(67 28)"/>
                    <path fill="#263238" d="M54.636 100.86c-.064.026-.33-.597-.878-1.525-.55-.925-1.44-2.132-2.708-3.172-1.268-1.038-2.607-1.72-3.583-2.184-.982-.458-1.608-.712-1.587-.772.016-.047.676.111 1.702.507 1.017.401 2.413 1.058 3.727 2.134 1.315 1.077 2.206 2.365 2.701 3.347.496.988.667 1.65.626 1.665" transform="translate(-45 -101) translate(45 101) translate(67 28)"/>
                    <path fill="#FAFAFA" d="M62.703 82.01c.01.006-.038.129-.163.347-.131.215-.354.52-.718.837-.705.624-2.093 1.308-3.839 1.036-1.729-.256-3.573-1.507-4.82-3.412-.637-.943-1.146-2.025-1.59-3.165-.219-.573-.44-1.15-.625-1.765-.18-.614-.309-1.28-.22-1.969.092-.677.397-1.347.953-1.779.56-.442 1.313-.502 1.934-.345 1.279.318 2.197 1.35 2.577 2.445.41 1.104.242 2.328-.32 3.205-.554.883-1.39 1.47-2.234 1.713-.85.256-1.682.141-2.32-.11-.646-.253-1.119-.633-1.448-.984-.323-.359-.513-.687-.61-.919-.1-.232-.127-.362-.117-.366.044-.024.183.512.84 1.175.334.318.799.663 1.415.88.61.217 1.38.3 2.155.048.773-.24 1.537-.799 2.032-1.613.496-.809.634-1.898.254-2.902-.354-.995-1.2-1.914-2.316-2.184-.546-.132-1.153-.073-1.594.279-.446.344-.718.918-.797 1.511-.142 1.214.413 2.407.813 3.536.434 1.126.923 2.184 1.53 3.102 1.187 1.848 2.928 3.057 4.556 3.334 1.638.294 2.983-.31 3.69-.874.732-.58.942-1.089.982-1.06M93.492 94.047c.003.005-.069.068-.214.185l-.654.507c-.586.427-1.45 1.077-2.697 1.695-.624.302-1.354.584-2.195.73-.835.15-1.795.129-2.748-.178-1.92-.612-3.671-2.255-4.96-4.371-1.3-2.123-2.184-4.803-2.267-7.74-.082-2.92.61-6.124 2.41-8.914.876-1.38 2.049-2.733 3.687-3.448.815-.35 1.741-.476 2.64-.334.895.134 1.791.58 2.366 1.34.587.747.811 1.736.737 2.667-.07.938-.367 1.853-.848 2.667-.97 1.633-2.571 2.84-4.355 3.534-1.8.673-3.744.863-5.589.578-1.857-.257-3.578-1.047-5.04-2.09-2.937-2.13-4.83-5.222-5.924-8.309-.534-1.54-.97-3.158-.72-4.757.13-.788.43-1.544.913-2.164.476-.621 1.16-1.086 1.912-1.247 1.509-.326 3.027.323 3.944 1.363.952 1.064 1.166 2.526.953 3.758-.211 1.25-.813 2.353-1.607 3.164-.793.814-1.732 1.365-2.649 1.735-1.854.741-3.6.795-4.974.754-1.385-.058-2.448-.22-3.167-.323-.341-.055-.611-.1-.816-.132-.183-.032-.277-.053-.275-.06 0-.007.096 0 .282.02l.82.09c.722.078 1.786.213 3.16.245 1.364.018 3.084-.061 4.884-.804.89-.371 1.794-.915 2.548-1.705.752-.781 1.318-1.843 1.51-3.031.194-1.169-.026-2.538-.904-3.501-.85-.96-2.28-1.549-3.633-1.244-1.374.291-2.336 1.677-2.546 3.139-.23 1.491.186 3.059.72 4.576 1.082 3.027 2.948 6.048 5.8 8.108 1.425 1.01 3.08 1.767 4.869 2.014 1.778.274 3.656.087 5.383-.558 1.71-.665 3.237-1.822 4.151-3.358.453-.762.732-1.625.796-2.488.069-.862-.137-1.74-.65-2.397-.503-.666-1.294-1.07-2.114-1.194-.821-.131-1.672-.018-2.426.303-1.524.658-2.666 1.948-3.522 3.295-1.761 2.708-2.454 5.838-2.388 8.698.067 2.878.917 5.51 2.174 7.6 1.25 2.086 2.946 3.698 4.786 4.305 1.857.616 3.589.085 4.804-.479 1.24-.588 2.117-1.214 2.717-1.62l.677-.472c.154-.106.234-.158.239-.152M71.884 50.072c.023.01-.055.264-.25.702-.191.439-.518 1.054-1.004 1.763-.957 1.415-2.674 3.181-5.064 4.322-2.392 1.142-4.844 1.366-6.545 1.221-.856-.068-1.54-.201-2.001-.327-.462-.125-.708-.224-.701-.248.016-.074 1.034.226 2.718.287 1.67.069 4.039-.196 6.353-1.301 2.313-1.105 4.01-2.78 5.006-4.123 1.012-1.348 1.42-2.329 1.488-2.296M83.453 53.41c.014.119-1.17.178-2.21 1.084-1.062.88-1.313 2.04-1.428 2.007-.049-.007-.063-.311.09-.773.151-.46.505-1.06 1.074-1.545.571-.483 1.219-.736 1.697-.809.48-.077.778-.013.777.036M100.016 58.016c-.01.021-.26-.06-.664-.307-.402-.245-.956-.673-1.473-1.355-.504-.68-1-1.617-1.086-2.78-.033-.572.08-1.23.481-1.76.377-.516 1.076-.936 1.815-.768.721.166 1.222.748 1.424 1.37.225.639.027 1.352-.36 1.803-.778.943-2.034 1.088-2.836.752-.828-.318-1.296-.89-1.549-1.282-.255-.404-.31-.667-.292-.674.032-.015.138.223.422.582.28.35.757.851 1.513 1.102.728.269 1.807.092 2.45-.715.313-.392.455-.934.272-1.445-.165-.504-.593-.977-1.13-1.093-.534-.13-1.09.181-1.41.61-.334.432-.444.983-.424 1.502.055 1.05.493 1.964.944 2.627.946 1.343 1.956 1.764 1.903 1.83M103.14 48.867c-.095.081-.949-1.152-2.586-1.805-1.624-.688-3.098-.41-3.109-.533-.01-.047.34-.19.945-.235.601-.049 1.456.038 2.319.39.86.355 1.53.895 1.923 1.353.398.457.548.805.507.83M124.674 57.99c.003.006-.049.039-.154.097l-.472.245c-.42.205-1.048.492-1.882.8-1.66.61-4.18 1.32-7.377 1.388-.8.01-1.644-.045-2.503-.243-.856-.193-1.744-.552-2.472-1.204-.725-.646-1.207-1.64-1.21-2.683-.024-1.038.345-2.103 1.042-2.948 1.434-1.698 3.996-2.25 6.234-1.603 2.247.624 4.298 2.422 4.998 4.843.717 2.39.109 5.064-1.492 6.794-1.578 1.765-3.76 2.642-5.8 3.122-2.073.47-4.084.51-5.94.6-1.859.075-3.586.186-5.127.5-3.092.608-5.278 2.2-6.31 3.603-1.06 1.416-1.137 2.464-1.202 2.434-.007-.001.002-.062.025-.18.029-.116.052-.296.125-.518.135-.45.402-1.101.925-1.83 1.016-1.465 3.228-3.135 6.378-3.79 1.564-.34 3.31-.466 5.17-.557 1.856-.103 3.853-.158 5.871-.628 1.994-.477 4.1-1.345 5.585-3.022 1.51-1.636 2.076-4.152 1.4-6.412-.653-2.273-2.59-3.98-4.714-4.574-2.111-.62-4.525-.09-5.839 1.46-.64.768-.988 1.752-.97 2.7-.001.953.421 1.84 1.08 2.44.661.602 1.493.954 2.314 1.147.825.198 1.648.261 2.43.26 3.154-.03 5.661-.687 7.326-1.249.837-.282 1.47-.545 1.9-.725.428-.185.654-.28.661-.267M105.138 88.763c-.066.03-.34-.656-1.054-1.574-.7-.912-1.919-2.033-3.57-2.655-1.65-.62-3.305-.58-4.433-.355-1.141.219-1.799.555-1.829.49-.023-.033.598-.47 1.766-.772 1.152-.306 2.895-.4 4.64.255 1.743.657 2.994 1.876 3.658 2.866.68.998.86 1.734.822 1.745M114.285 94.688c.036.014-.23.725-1.071 1.584-.82.85-2.309 1.796-4.165 1.948-1.857.143-3.477-.556-4.42-1.267-.966-.715-1.341-1.376-1.308-1.394.055-.05.506.534 1.47 1.156.947.622 2.49 1.232 4.225 1.098 1.737-.142 3.163-.987 4-1.75.855-.768 1.207-1.415 1.27-1.375M116.667 79.099c-.035.058-.506-.227-1.339-.447-.823-.224-2.044-.333-3.285.063-1.24.398-2.173 1.197-2.713 1.857-.55.663-.769 1.168-.83 1.14-.042-.012.082-.57.602-1.316.506-.74 1.476-1.64 2.817-2.07 1.34-.428 2.652-.257 3.493.05.856.306 1.281.688 1.255.723M145.843 71.887c.014-.003.063.196.143.581.05.192.078.434.1.721.035.287.044.62.026.995-.02 1.485-.566 3.715-2.244 5.84-.83 1.058-1.963 2.056-3.376 2.785-1.407.745-3.112 1.13-4.893 1.125-3.555-.016-7.495-1.721-10.06-4.982-.631-.815-1.146-1.728-1.416-2.716-.275-.985-.267-2.043.05-2.99.304-.949.959-1.792 1.833-2.237.871-.446 1.863-.507 2.754-.326.893.188 1.71.623 2.327 1.237.61.614 1.03 1.361 1.278 2.124.493 1.536.384 3.092-.036 4.373-.423 1.29-1.116 2.33-1.847 3.106-.735.779-1.495 1.315-2.156 1.667-.663.355-1.223.526-1.598.637-.384.088-.586.124-.59.11-.016-.048.822-.162 2.11-.885 1.245-.721 3.003-2.202 3.806-4.72.388-1.238.47-2.734-.01-4.18-.24-.72-.64-1.414-1.209-1.978-.568-.556-1.325-.955-2.15-1.122-.823-.163-1.726-.097-2.5.303-.77.398-1.356 1.148-1.633 2.017-.287.868-.294 1.842-.038 2.757.254.92.739 1.788 1.347 2.573 2.476 3.15 6.3 4.823 9.742 4.856 1.722.015 3.374-.345 4.735-1.05 1.372-.692 2.484-1.646 3.305-2.665 1.663-2.045 2.245-4.21 2.31-5.667.08-1.474-.167-2.281-.11-2.29M151.886 88.117c-.018.014-.2-.166-.477-.538-.274-.372-.621-.964-.855-1.774-.225-.81-.277-1.831-.119-2.919.158-1.092.449-2.245.794-3.46.75-2.426 1.938-4.397 2.803-5.785.44-.692.812-1.242 1.078-1.616.265-.374.423-.574.447-.56.052.033-.461.91-1.277 2.325-.8 1.42-1.93 3.39-2.66 5.755-.338 1.187-.642 2.347-.813 3.396-.173 1.052-.15 2.015.026 2.794.394 1.561 1.139 2.333 1.053 2.382M166.714 70.085c.027-.009.11.19.237.561.135.369.273.92.396 1.61.247 1.38.312 3.357-.148 5.462-.469 2.103-1.358 3.87-2.164 5.016-.4.575-.758 1.017-1.035 1.295-.272.282-.43.428-.45.409-.056-.049.518-.692 1.244-1.862.729-1.165 1.55-2.898 2.006-4.946.448-2.05.43-3.969.26-5.332-.166-1.367-.416-2.193-.346-2.213M115.472 106.734c-.008.011-.126-.049-.342-.175-.215-.129-.525-.325-.955-.521-.844-.415-2.143-.902-3.818-1.07-1.665-.16-3.72.026-5.75.922-1.011.445-2.007 1.071-2.873 1.904-.434.41-.837.872-1.13 1.4-.293.524-.471 1.124-.394 1.72.07.593.366 1.163.837 1.472.468.312 1.086.302 1.595.073 1.07-.458 1.485-1.694 1.453-2.753-.048-2.205-1.456-3.965-2.904-4.714-1.486-.776-2.935-.697-3.834-.508-.92.205-1.376.491-1.394.453-.006-.012.102-.087.323-.21.226-.115.566-.272 1.033-.397.913-.242 2.417-.379 4.005.406 1.547.762 3.07 2.59 3.147 4.964.012.582-.073 1.196-.332 1.769-.253.571-.724 1.09-1.335 1.356-.596.275-1.377.3-1.979-.099-.597-.394-.936-1.074-1.02-1.763-.09-.703.122-1.395.444-1.968.325-.579.756-1.064 1.21-1.49.906-.865 1.947-1.508 2.996-1.96 2.11-.908 4.228-1.065 5.932-.865 1.715.21 3.026.752 3.86 1.217.426.221.726.442.928.593.204.15.306.233.297.244M118.305 113.218c.094.062-.33.867-.948 1.798-.617.931-1.193 1.636-1.287 1.574-.094-.063.33-.868.947-1.8.618-.93 1.195-1.635 1.288-1.572M128.248 124.437c-.064.017-.173-.28-.445-.685-.27-.406-.738-.901-1.382-1.263-.648-.359-1.316-.496-1.802-.51-.487-.02-.797.045-.815-.019-.017-.042.274-.212.805-.27.528-.061 1.292.043 2.01.442.717.4 1.208.995 1.434 1.476.23.483.24.82.195.829M95.899 120.441c.028.058-.942.54-2.454 1.404-1.497.87-3.57 2.15-5.327 4.12-1.75 1.97-2.633 4.285-2.82 5.988-.208 1.718.13 2.782.044 2.794-.022.007-.121-.248-.224-.732-.105-.483-.174-1.205-.106-2.091.116-1.77.99-4.194 2.801-6.23 1.811-2.028 3.95-3.291 5.494-4.102.778-.405 1.423-.702 1.874-.893.45-.193.706-.283.718-.258M107.405 124.268c-.025.03-.438-.258-.853-.942-.418-.676-.754-1.778-.654-3.001.104-1.223.618-2.255 1.14-2.852.524-.606.979-.822.999-.788.043.058-.338.352-.77.964-.434.607-.864 1.572-.962 2.71-.09 1.137.172 2.161.5 2.831.325.674.653 1.028.6 1.078M89.42 110.07c-.02.014-.14-.178-.45-.454-.312-.268-.85-.606-1.63-.725-.769-.117-1.782-.018-2.732.57-.963.57-1.831 1.545-2.593 2.74-.774 1.19-1.43 2.624-2.42 4.018-.974 1.4-2.47 2.631-4.318 3.23-1.83.623-4.014.563-5.927-.345-1.902-.893-3.577-2.528-4.36-4.65-.38-1.055-.496-2.237-.134-3.307.343-1.072 1.12-1.938 2.032-2.492.91-.566 1.994-.811 3.026-.693 1.033.133 1.966.623 2.687 1.28 1.456 1.32 2.154 3.204 2.125 4.926-.016 1.733-.648 3.28-1.462 4.475-.818 1.209-1.851 2.072-2.832 2.665-.987.593-1.917.948-2.69 1.17-.774.227-1.391.33-1.81.384-.209.03-.37.042-.478.05-.108.007-.164.007-.165.001-.001-.016.217-.05.63-.132.412-.08 1.02-.208 1.776-.453.757-.243 1.664-.616 2.617-1.214.949-.598 1.936-1.453 2.712-2.632.775-1.166 1.364-2.666 1.364-4.316.015-1.632-.665-3.415-2.037-4.644-.678-.61-1.547-1.056-2.484-1.174-.936-.102-1.934.123-2.772.648-.838.513-1.546 1.31-1.853 2.278-.325.96-.225 2.051.132 3.04.735 2 2.336 3.575 4.144 4.428 1.823.868 3.887.934 5.642.35 1.771-.567 3.205-1.724 4.162-3.072.975-1.347 1.649-2.776 2.452-3.977.789-1.205 1.702-2.203 2.718-2.78 1.01-.597 2.079-.676 2.874-.529.809.15 1.357.526 1.66.82.302.306.393.515.393.515M89.681 122.28c-.023.035-.57-.271-1.264-.999-.694-.72-1.48-1.907-1.925-3.385-.437-1.48-.428-2.905-.242-3.888.183-.989.473-1.545.51-1.529.067.022-.12.605-.224 1.57-.108.96-.07 2.314.347 3.73.425 1.414 1.135 2.567 1.751 3.312.614.75 1.091 1.134 1.047 1.19M92.564 104.213c-.021.04-.552-.264-1.574-.665-1.018-.399-2.53-.92-4.47-1.177-1.934-.26-4.298-.265-6.81.333-1.24.312-2.563.736-3.757 1.41-.575.343-1.106.853-1.244 1.487-.122.606.223 1.404.81 1.576.284.087.608-.026.826-.249.226-.225.372-.545.469-.874.18-.663.2-1.398.18-2.083-.058-1.386-.425-2.708-1.003-3.847-.567-1.145-1.347-2.108-2.21-2.844-.865-.737-1.818-1.242-2.728-1.57-1.839-.653-3.468-.604-4.539-.451-1.08.171-1.648.41-1.661.37-.006-.014.134-.076.405-.184.272-.104.684-.232 1.23-.343 1.08-.204 2.75-.303 4.66.336.945.32 1.94.828 2.85 1.583.908.753 1.729 1.747 2.329 2.933.609 1.18 1 2.552 1.065 4 .022.727.013 1.457-.188 2.212-.11.37-.27.747-.572 1.051-.295.304-.774.488-1.222.354-.448-.126-.748-.48-.93-.843-.175-.373-.247-.793-.17-1.204.188-.824.817-1.379 1.436-1.753 1.28-.714 2.596-1.119 3.878-1.434 2.57-.59 4.979-.553 6.936-.252 1.965.3 3.484.869 4.492 1.316.507.224.886.427 1.136.575.253.143.382.224.376.237M31.535 106.467c-.025-.033.486-.378 1.258-1.161.763-.78 1.786-2.049 2.462-3.888.665-1.804.937-4.3-.198-6.632-.544-1.155-1.392-2.248-2.5-3.088-1.096-.847-2.483-1.416-3.943-1.481-.72-.024-1.441.136-2.072.433-.627.302-1.161.787-1.379 1.399-.217.616-.085 1.296.281 1.818.363.525.906.911 1.487 1.104 1.194.383 2.455.035 3.39-.576.95-.615 1.642-1.465 2.056-2.335.84-1.767.897-3.416.98-4.502l.054-1.271c.012-.292.024-.445.039-.445.014 0 .029.152.043.444.014.291.028.722.022 1.277-.036 1.095-.041 2.766-.878 4.62-.417.921-1.132 1.83-2.132 2.496-.98.658-2.35 1.067-3.69.65-.66-.215-1.27-.64-1.692-1.241-.427-.593-.6-1.427-.337-2.171.264-.746.89-1.299 1.578-1.632.697-.33 1.473-.501 2.262-.476 1.565.07 3.025.678 4.174 1.571 1.159.886 2.038 2.034 2.597 3.246.577 1.21.797 2.5.773 3.682-.02 1.188-.29 2.275-.645 3.211-.73 1.879-1.812 3.145-2.62 3.9-.405.384-.748.65-.991.813-.241.166-.371.247-.38.235M47.765 118.127c-.018.016-.248-.206-.613-.652-.366-.443-.85-1.128-1.341-2.038-.986-1.8-1.906-4.631-1.698-7.814.21-3.183 1.495-5.869 2.709-7.523.605-.838 1.175-1.453 1.596-1.845.421-.394.677-.584.693-.566.058.057-.92.886-2.052 2.574-1.131 1.667-2.334 4.297-2.539 7.387-.202 3.09.646 5.855 1.548 7.655.9 1.822 1.762 2.773 1.697 2.822M63.07 101.082c-.074.026-.398-1.18-1.369-2.909-.955-1.722-2.67-3.942-5.188-5.609-2.52-1.667-5.232-2.377-7.19-2.583-1.97-.217-3.205-.045-3.21-.123-.003-.024.3-.09.859-.148.558-.06 1.374-.09 2.38-.017 1.997.136 4.797.817 7.386 2.531 2.588 1.712 4.31 4.024 5.216 5.811.461.897.753 1.66.917 2.198.165.537.223.842.2.85" transform="translate(-45 -101) translate(45 101) translate(67 28)"/>
                    <path fill="#000" d="M84.47 123.016c-.747.32-.678 1.515-.05 2.031.625.517 1.514.536 2.324.498 9.186-.44 18.047-5.42 23.202-13.042-7.08 5.813-16.367 8.009-25.298 10.035M83.072 115.02c-.771-1.182-.252-2.842.744-3.843.995-1.001 2.354-1.531 3.62-2.157 4.61-2.276 8.4-6.171 10.552-10.843 1.423-3.086 2.503-6.874 5.654-8.142-1.606 10.883-9.705 20.549-20.134 24.029M60.84 74.386c.789 8.56.178 17.25-1.803 25.614-.42 1.78-.906 3.57-.873 5.398.032 1.828 1.163 3.943 2.603 5.067 1.302-2.997 1.326-5.888 1.873-9.118.493-2.912 1.32-9.703 1.322-9.803.115-5.946-1.288-11.036-3.568-16.39M75.601 48.658c1.146 6.284 4.29 12.187 8.862 16.642 1.733 1.69 3.885 3.25 6.303 3.173-1.386-2.84-1.818-6.136-1.21-9.238 2.074 1.308 4.165 2.624 6.45 3.511 2.287.886 4.807 1.326 7.206.82l1.505-13.025c.057-.492.106-1.022-.135-1.454-.242-.432-.902-.657-1.24-.297-.145.153-.197.367-.245.571-.883 3.806-1.373 7.211-2.255 11.017-.633.627-2.585.368-3.869-.106-1.12-.413-1.548-1.34-2.29-2.275-.74-.935-.608-.771-1.706-1.238-2.018-.856-5.895-.174-6.74 1.64-.845 1.815-.206 4.203.357 5.984-5.598-3.62-9.762-9.4-11.424-15.858M118.305 67.039c-.157.315 4.877 17.304 4.877 17.304l-6.526-3.721 1.649-13.583z" transform="translate(-45 -101) translate(45 101) translate(67 28)"/>
                    <path fill="#FFBE9D" d="M77.766 17.744v27.051c0 1.546.546 3.042 1.54 4.224 1.527 1.813 3.365 3.338 5.429 4.5l5.453 3.073 4.51-4.03c1.326-1.185 2.113-2.86 2.184-4.637.077-1.971.077-3.957.077-3.957s7.642-.549 8.36-8.09c.337-3.55.444-10.823.462-17.525.022-7.646-5.837-14.024-13.451-14.654l-.216-.018C84.228 3.49 77.74 9.849 77.766 17.744" transform="translate(-45 -101) translate(45 101) translate(67 28)"/>
                    <path fill="#EB996E" d="M96.96 43.968s-4.779-.114-9.582-3.72c0 0 1.977 5.723 9.56 5.666l.021-1.946z" transform="translate(-45 -101) translate(45 101) translate(67 28)"/>
                    <path fill="#263238" d="M103.55 23.2c-.026.572-.532 1.02-1.128 1.002-.595-.017-1.057-.493-1.03-1.064.027-.57.532-1.02 1.128-1.002.596.017 1.058.493 1.03 1.065M103.856 21.396c-.146.129-.91-.543-2.07-.636-1.157-.11-2.058.417-2.171.264-.057-.067.1-.31.492-.55.388-.237 1.03-.447 1.753-.385.722.064 1.307.38 1.633.682.335.303.434.567.363.625M92.617 22.65c-.027.572-.532 1.02-1.128 1.002-.596-.017-1.058-.493-1.03-1.064.026-.57.532-1.02 1.128-1.002.596.017 1.058.493 1.03 1.064M92.444 20.668c-.146.13-.913-.542-2.072-.635-1.156-.11-2.056.416-2.17.264-.057-.068.099-.31.493-.55.387-.238 1.03-.448 1.752-.385.722.064 1.307.38 1.634.682.333.302.433.567.363.624M95.939 29.62c0-.067.731-.132 1.91-.184.3-.006.585-.042.652-.24.087-.208-.01-.538-.126-.894l-.689-2.329c-.95-3.312-1.612-6.026-1.478-6.062.134-.038 1.012 2.617 1.963 5.93.226.816.444 1.593.65 2.338.084.346.246.744.058 1.175-.099.215-.33.358-.523.393-.194.042-.361.031-.508.028-1.18-.033-1.91-.09-1.909-.155M92.461 30.14c.19.004.088 1.264 1.091 2.247 1 .986 2.353.955 2.35 1.132.01.08-.32.22-.887.188-.557-.026-1.353-.273-1.967-.874-.612-.602-.834-1.357-.834-1.877-.004-.53.162-.831.247-.816M93.119 16.147c-.14.306-1.285.06-2.659.112-1.374.023-2.504.33-2.66.034-.07-.143.146-.424.614-.692.464-.27 1.19-.5 2.013-.524.825-.022 1.562.17 2.04.413.483.242.714.511.652.657M103.708 18.003c-.226.247-1.002-.093-1.961-.186-.957-.125-1.788.03-1.953-.26-.07-.141.08-.394.455-.614.37-.22.974-.374 1.632-.3.657.075 1.21.362 1.521.66.317.298.407.58.306.7M86.64 10.144l-.043.03c-1.28.85-2.187 2.158-2.523 3.657l-.034.15c-.473 2.129-.6 4.324-1.095 6.448-.493 2.124-.402 3.747-2.528 4.226-1.341.301-2.482-.445-2.96-1.204-.186-.293-.19-.662-.187-1.009.027-5.232-1.024-7.264-.565-12.7.126-1.48.936-2.81 2.21-3.573 1.204-.722 2.663-1.452 3.877-.749 1.218.706 2.657 3.208 3.554 4.292" transform="translate(-45 -101) translate(45 101) translate(67 28)"/>
                    <path fill="#FFBE9D" d="M80.027 21.37c-.124-.067-5.057-1.963-5.318 3.21-.263 5.176 4.983 4.372 5 4.223.016-.148.318-7.433.318-7.433" transform="translate(-45 -101) translate(45 101) translate(67 28)"/>
                    <path fill="#EB996E" d="M78.228 26.763c-.022-.017-.094.059-.249.12-.152.061-.41.095-.674-.02-.536-.228-.952-1.119-.93-2.053.01-.472.132-.915.318-1.278.177-.37.435-.623.712-.657.277-.05.464.125.52.274.061.148.024.25.05.26.014.013.115-.081.085-.297-.017-.105-.07-.23-.187-.335-.12-.107-.299-.168-.492-.157-.4.007-.778.356-.981.755-.227.399-.374.897-.386 1.426-.02 1.045.465 2.047 1.2 2.301.36.114.669.02.832-.094.167-.12.2-.235.182-.245" transform="translate(-45 -101) translate(45 101) translate(67 28)"/>
                    <path fill="#263238" d="M82.552 6.205c-1.099-2.17 2.625-4.847 5.237-5.439 2.612-.592 5.862.927 8.325 1.978 1.555.663 3.086 1.534 4.774 1.604 1.132.047 2.243-.274 3.338-.563 1.096-.288 2.233-.548 3.353-.378 1.12.17 2.23.866 2.572 1.947.34 1.081-.39 2.464-1.522 2.527 1.493-.667 3.472.535 3.57 2.168.1 1.632-1.72 3.064-3.282 2.584.78-.495 1.828.517 1.66 1.425-.165.91-1.05 1.507-1.924 1.808-2.229.768-4.711.258-6.875-.676-2.165-.934-4.132-2.274-6.272-3.261-2.14-.988-5.717-2.738-7.997-2.14-1.678.44-2.977 2.312-3.861 1.801-.856-.493-1.343-1.472-1.44-2.456-.099-.983.123-1.966.344-2.93" transform="translate(-45 -101) translate(45 101) translate(67 28)"/>
                    <path fill="#455A64" d="M109.265 7.79c-.042-.03-.298.36-.902.916-.604.546-1.603 1.247-3.018 1.61-1.39.359-3.24.359-4.902-.607-1.689-.931-3.06-2.63-4.665-4.255-1.599-1.639-3.543-2.915-5.566-3.267-2.01-.361-3.943.228-5.073 1.3-1.137 1.084-1.454 2.401-1.445 3.24.002.428.083.753.143.967.077.21.126.315.143.31.049-.013-.131-.455-.087-1.271.05-.795.41-2.013 1.49-2.978 1.066-.953 2.869-1.466 4.744-1.105 1.886.355 3.728 1.566 5.29 3.165 1.575 1.59 2.989 3.334 4.798 4.307 1.8 1.012 3.783.967 5.225.542 1.474-.426 2.482-1.208 3.062-1.814.288-.31.49-.569.604-.76.119-.188.173-.29.159-.3M78.732 21.036c.018.019.234-.124.463-.517.23-.387.439-1.039.412-1.85.023-1.672-1.298-3.578-1.295-5.891-.02-1.144.27-2.234.825-3.033.552-.798 1.352-1.28 2.054-1.499.71-.228 1.334-.179 1.741-.091.409.1.624.215.646.176.014-.02-.167-.197-.589-.367-.417-.156-1.1-.27-1.895-.066-.784.195-1.69.685-2.341 1.575-.646.88-.975 2.083-.953 3.311.004 1.233.358 2.377.726 3.336.365.961.665 1.82.72 2.57.146 1.535-.587 2.315-.514 2.346" transform="translate(-45 -101) translate(45 101) translate(67 28)"/>
                </g>
                <g fill="#E8505B">
                    <path d="M130.522 92.716s-.394.017-1.165.03l-3.418.048c-3.005.048-7.437.162-13.137.441-5.7.296-12.668.798-20.723 1.716-4.024.484-8.324 1.035-12.858 1.788-4.538.724-9.315 1.626-14.287 2.758-4.972 1.128-10.147 2.48-15.439 4.204-5.28 1.74-10.712 3.804-16.01 6.597-2.648 1.393-5.238 3.01-7.677 4.898-2.42 1.896-4.704 4.125-6.286 6.869-.19.345-.397.685-.577 1.037l-.442 1.102-.223.553c-.061.189-.096.385-.147.577l-.28 1.16c-.182 1.574-.241 3.215.236 4.773.766 3.171 2.86 5.903 5.262 8.201 4.907 4.603 11.163 7.806 17.65 10.492 6.527 2.675 13.444 4.758 20.567 6.498 14.26 3.47 29.373 5.513 44.893 6.603 15.535 1.06 30.768 1.05 45.421.178 14.653-.89 28.74-2.663 41.934-5.466 6.592-1.415 12.958-3.096 19.014-5.122 6.058-2.01 11.792-4.435 16.995-7.395 2.572-1.524 5.01-3.188 7.165-5.097 2.146-1.906 4.029-4.09 5.19-6.597l.384-.955c.126-.317.271-.628.331-.965l.239-.989c.036-.165.088-.328.111-.494l.04-.504c.188-1.339.05-2.675-.294-3.944-.354-1.272-.98-2.432-1.656-3.53-.737-1.063-1.527-2.077-2.424-2.975-1.765-1.824-3.734-3.356-5.731-4.718-2-1.361-4.041-2.556-6.075-3.617-4.055-2.153-8.064-3.817-11.843-5.266-7.584-2.857-14.324-4.727-19.856-6.114-5.536-1.382-9.884-2.253-12.834-2.816-1.474-.295-2.604-.483-3.36-.627-.758-.14-1.144-.221-1.144-.221s1.562.229 4.519.767c2.956.537 7.31 1.383 12.857 2.743 5.541 1.364 12.294 3.213 19.898 6.055 3.79 1.441 7.811 3.1 11.885 5.25 2.042 1.06 4.092 2.255 6.108 3.62 2.01 1.366 3.995 2.905 5.784 4.744.908.906 1.712 1.933 2.464 3.013.69 1.118 1.332 2.302 1.699 3.61.356 1.302.499 2.689.31 4.06l-.042.518c-.023.17-.076.337-.112.506l-.244 1.015c-.061.345-.209.664-.337.989l-.393.977c-1.182 2.564-3.09 4.779-5.255 6.708-2.176 1.932-4.628 3.61-7.214 5.147-5.228 2.982-10.978 5.421-17.05 7.442-6.07 2.036-12.447 3.726-19.05 5.15-13.213 2.817-27.319 4.599-41.988 5.496-14.671.88-29.92.89-45.474-.17-15.54-1.092-30.672-3.139-44.96-6.621-7.137-1.747-14.07-3.837-20.619-6.527-6.512-2.702-12.798-5.917-17.763-10.58-2.43-2.33-4.568-5.112-5.358-8.381-.488-1.605-.43-3.301-.237-4.923l.288-1.196c.052-.198.089-.4.152-.594l.229-.567.455-1.131c.185-.36.395-.707.59-1.06 1.622-2.802 3.94-5.053 6.382-6.964 2.464-1.903 5.072-3.526 7.735-4.922 5.326-2.8 10.775-4.863 16.071-6.598 5.306-1.721 10.492-3.065 15.472-4.187 4.982-1.124 9.766-2.018 14.31-2.733 4.54-.743 8.845-1.285 12.873-1.758 8.064-.898 15.038-1.376 20.741-1.648 5.705-.255 10.138-.344 13.144-.365l3.42-.008c.77 0 1.164.012 1.164.012" transform="translate(-45 -101) translate(45 101) translate(36 106)"/>
                    <path d="M66.536 33.463s-.445.1-1.317.273c-.872.176-2.172.417-3.869.781-3.395.705-8.398 1.793-14.753 3.527-6.338 1.765-14.082 4.114-22.603 7.98-2.123.975-4.295 2.043-6.466 3.275-2.172 1.224-4.367 2.576-6.49 4.158-2.115 1.584-4.195 3.366-5.991 5.5-1.78 2.126-3.358 4.598-4.062 7.439-.756 2.814-.54 5.942.644 8.758 1.158 2.836 3.123 5.36 5.42 7.573 4.634 4.438 10.517 7.802 16.776 10.696 12.611 5.724 27.014 9.561 42.299 12.426 15.31 2.833 31.6 4.586 48.527 5.347 16.926.743 34.506.53 52.416-.933 17.906-1.491 35.325-4.116 51.717-8.417 8.184-2.166 16.118-4.758 23.555-8.078 3.708-1.672 7.302-3.514 10.641-5.673 3.332-2.157 6.456-4.605 8.965-7.554 2.497-2.916 4.338-6.494 4.445-10.265.044-.467-.017-.933-.047-1.397-.056-.462-.025-.936-.15-1.385l-.304-1.359c-.078-.459-.303-.873-.447-1.312-.607-1.753-1.634-3.306-2.685-4.795-2.25-2.9-5.039-5.27-7.944-7.33-2.92-2.051-6.007-3.754-9.092-5.307-6.205-3.055-12.49-5.39-18.622-7.301-6.133-1.917-12.117-3.436-17.865-4.707-23.045-4.966-42.151-6.315-55.287-7.044-6.58-.341-11.697-.355-15.165-.444l-3.946-.086c-.889-.02-1.343-.043-1.343-.043s.454-.006 1.343.002l3.947.045c3.468.061 8.587.05 15.171.368 13.145.68 32.264 1.985 55.342 6.92 5.757 1.264 11.75 2.776 17.898 4.69 6.145 1.906 12.446 4.238 18.677 7.297 3.099 1.557 6.2 3.263 9.143 5.326 2.926 2.07 5.744 4.456 8.028 7.396 1.07 1.513 2.117 3.092 2.74 4.886.148.448.376.872.458 1.342l.313 1.394c.128.46.098.948.155 1.422.03.478.094.955.05 1.435-.054 1.924-.552 3.83-1.359 5.595-.792 1.776-1.902 3.404-3.166 4.898-2.543 2.993-5.693 5.462-9.045 7.634-3.36 2.175-6.969 4.026-10.69 5.707-7.462 3.336-15.412 5.936-23.612 8.109-16.421 4.313-33.86 6.944-51.785 8.436-17.93 1.466-35.525 1.676-52.468.926-16.943-.767-33.25-2.53-48.578-5.375-15.303-2.88-29.725-6.735-42.37-12.489-6.279-2.912-12.183-6.292-16.855-10.778-2.315-2.238-4.304-4.794-5.48-7.684-1.205-2.87-1.42-6.074-.645-8.943.724-2.899 2.331-5.4 4.133-7.545 1.819-2.152 3.916-3.942 6.045-5.531 2.138-1.586 4.344-2.938 6.526-4.163 2.18-1.231 4.36-2.296 6.49-3.268 8.549-3.856 16.306-6.183 22.656-7.926 6.367-1.712 11.377-2.775 14.779-3.456 3.403-.68 5.202-.973 5.202-.973M93.983 151.48l-3.905.615c-2.559.41-6.33 1.058-11.137 2.108-4.801 1.074-10.667 2.503-17.251 4.858-3.283 1.193-6.756 2.598-10.257 4.45-1.754.918-3.503 1.969-5.205 3.179-1.697 1.213-3.35 2.598-4.784 4.256-.7.838-1.37 1.729-1.89 2.72-.553.971-.938 2.048-1.166 3.162-.045.281-.111.561-.138.846l-.05.86c.005.575.073 1.153.125 1.731.154.56.237 1.147.449 1.696l.331.821.167.413.22.389c1.122 2.107 2.81 3.929 4.705 5.53 1.895 1.615 4.056 2.972 6.308 4.228 4.518 2.514 9.53 4.453 14.763 6.156 5.244 1.689 10.76 3.045 16.46 4.202 11.405 2.294 23.57 3.702 36.215 4.324 12.645.606 25.784.459 39.163-.68 13.374-1.158 26.385-3.203 38.575-6.641 6.078-1.75 11.96-3.844 17.379-6.615 2.693-1.407 5.27-2.987 7.56-4.877.598-.442 1.1-.991 1.651-1.48.539-.503.996-1.08 1.496-1.615.883-1.16 1.735-2.36 2.227-3.719 1.164-2.664.874-5.733-.346-8.246-1.28-2.513-3.263-4.555-5.392-6.27-4.312-3.426-9.212-5.731-13.995-7.651-4.804-1.914-9.599-3.357-14.246-4.558-4.65-1.199-9.167-2.142-13.5-2.902-17.351-3.028-31.646-3.58-41.475-3.79l-15.29-.084s5.444-.07 15.292-.011c9.832.18 24.134.707 41.503 3.715 4.338.755 8.86 1.694 13.517 2.89 4.655 1.198 9.457 2.638 14.274 4.552 4.796 1.92 9.711 4.226 14.054 7.67 2.146 1.728 4.152 3.787 5.457 6.342 1.246 2.555 1.543 5.709.357 8.427-.502 1.386-1.367 2.605-2.26 3.78-.506.54-.97 1.124-1.512 1.633-.556.493-1.064 1.047-1.664 1.494-2.308 1.905-4.898 3.493-7.6 4.908-5.439 2.783-11.334 4.882-17.422 6.637-12.209 3.447-25.233 5.496-38.62 6.653-13.39 1.14-26.539 1.287-39.195.677-12.655-.626-24.83-2.039-36.248-4.342-5.705-1.162-11.228-2.524-16.48-4.218-5.243-1.71-10.264-3.657-14.797-6.183-2.26-1.263-4.429-2.628-6.336-4.256-1.907-1.614-3.609-3.453-4.746-5.593l-.222-.394-.17-.42-.334-.834c-.216-.559-.301-1.157-.456-1.728-.053-.589-.121-1.178-.125-1.763l.052-.877c.028-.29.095-.576.141-.862.233-1.134.627-2.227 1.189-3.212.527-1.003 1.206-1.903 1.913-2.748 1.45-1.67 3.115-3.06 4.82-4.277 1.712-1.213 3.468-2.265 5.228-3.181 3.514-1.853 6.995-3.254 10.283-4.443 6.598-2.346 12.471-3.761 17.277-4.822 4.815-1.037 8.588-1.67 11.15-2.063 2.562-.396 3.913-.567 3.913-.567" transform="translate(-45 -101) translate(45 101) translate(36 106)"/>
                    <path d="M196.226 222.995c-.06.016.101-1.06-.65-2.85-.728-1.793-2.671-4.022-5.733-6.038-6.154-4.045-16.438-7.442-29.384-9.519-6.48-1.052-13.647-1.777-21.361-2.09-7.713-.314-15.977-.233-24.63.453-4.327.343-8.75.84-13.237 1.554-4.484.717-9.044 1.61-13.596 2.864-2.279.613-4.554 1.323-6.807 2.15-2.251.824-4.488 1.76-6.643 2.892-2.15 1.135-4.236 2.466-6.023 4.163-1.777 1.659-3.226 3.905-3.26 6.414.03 2.51 1.476 4.758 3.252 6.42 1.786 1.698 3.873 3.03 6.023 4.165 2.155 1.134 4.392 2.07 6.644 2.896 2.254.827 4.53 1.535 6.81 2.15 4.552 1.253 9.112 2.147 13.597 2.866 4.489.712 8.912 1.21 13.24 1.553 8.654.686 16.919.767 24.632.452 7.715-.313 14.883-1.037 21.363-2.09 12.946-2.077 23.229-5.474 29.382-9.519 3.06-2.016 5.003-4.244 5.732-6.038.75-1.79.59-2.865.649-2.848l-.051.746c0 .25-.075.55-.162.907-.064.364-.22.76-.407 1.208-.72 1.805-2.663 4.05-5.726 6.078-6.156 4.07-16.444 7.486-29.399 9.58-6.484 1.06-13.656 1.792-21.375 2.111-7.718.322-15.988.245-24.65-.438-4.331-.34-8.759-.837-13.251-1.55-4.49-.717-9.056-1.61-13.617-2.865-2.283-.613-4.563-1.324-6.821-2.153-2.259-.827-4.502-1.765-6.666-2.902-2.158-1.14-4.257-2.478-6.06-4.192-.89-.862-1.721-1.816-2.309-2.93-.6-1.096-.985-2.335-.994-3.607.01-1.274.4-2.51 1.001-3.606.588-1.112 1.42-2.066 2.31-2.925 1.804-1.714 3.902-3.05 6.06-4.19 2.164-1.136 4.406-2.073 6.664-2.9 2.258-.828 4.537-1.539 6.82-2.153 4.56-1.253 9.125-2.146 13.614-2.864 4.492-.711 8.919-1.209 13.249-1.548 8.66-.683 16.93-.76 24.647-.438 7.718.32 14.89 1.05 21.375 2.11 12.954 2.094 23.243 5.51 29.4 9.58 3.064 2.029 5.007 4.273 5.728 6.078.186.448.343.844.406 1.209.088.357.163.656.163.906.03.43.043.63.05.748M23.235 101.698c0 1.379-1.12 2.496-2.5 2.496s-2.499-1.117-2.499-2.496 1.119-2.496 2.5-2.496c1.38 0 2.5 1.117 2.5 2.496M249.313 103.39c0 1.38-1.119 2.496-2.5 2.496-1.38 0-2.5-1.117-2.5-2.496 0-1.38 1.12-2.497 2.5-2.497 1.381 0 2.5 1.118 2.5 2.497M147.353 195.391c0 1.38-1.119 2.497-2.5 2.497-1.38 0-2.5-1.118-2.5-2.497 0-1.38 1.12-2.496 2.5-2.496 1.381 0 2.5 1.117 2.5 2.496M71.442 131.228c0 .69-.56 1.248-1.25 1.248s-1.25-.558-1.25-1.248.56-1.249 1.25-1.249 1.25.56 1.25 1.249M226.876 161.482c0 .69-.56 1.249-1.25 1.249s-1.25-.56-1.25-1.249c0-.69.56-1.248 1.25-1.248s1.25.558 1.25 1.248" transform="translate(-45 -101) translate(45 101) translate(36 106)"/>
                    <path d="M128.206 219.221c0 .69-.559 1.249-1.25 1.249-.69 0-1.249-.56-1.249-1.249 0-.69.56-1.248 1.25-1.248s1.25.558 1.25 1.248M63.594.658c0 .347-.281.628-.628.628s-.628-.281-.628-.628c0-.346.281-.627.628-.627s.628.28.628.627" transform="translate(-45 -101) translate(45 101) translate(36 106)"/>
                </g>
                <g>
                    <path fill="#E8505B" d="M184.21 108.463c-30.347 8.03-59.598 7.42-91.48 0L89.01 50.218c32.942 6.41 66.014 5.598 95.201-1.378v59.623z" transform="translate(-45 -101) translate(45 101) translate(27 94)"/>
                    <path fill="#FFF" d="M184.21 108.463c-30.347 8.03-59.598 7.42-91.48 0L89.01 50.218c32.942 6.41 66.014 5.598 95.201-1.378v59.623z" transform="translate(-45 -101) translate(45 101) translate(27 94)"/>
                    <path fill="#E8505B" d="M179.506 99.606c.003.006-.06.039-.19.095l-.572.244c-.508.2-1.246.53-2.226.88-1.942.738-4.8 1.693-8.398 2.634-7.182 1.916-17.434 3.441-28.793 3.282-11.361-.146-21.558-1.708-28.85-3.084-3.651-.694-6.589-1.333-8.611-1.804-1.013-.229-1.796-.427-2.327-.557l-.602-.156c-.135-.038-.203-.06-.202-.067.002-.007.073.002.212.026l.61.118c.566.115 1.349.277 2.342.481 2.033.422 4.977 1.02 8.63 1.675 7.297 1.302 17.477 2.814 28.804 2.961 11.322.158 21.538-1.316 28.715-3.155 3.597-.902 6.46-1.812 8.416-2.504.986-.325 1.732-.63 2.25-.807l.587-.206c.133-.043.203-.063.205-.056" transform="translate(-45 -101) translate(45 101) translate(27 94)"/>
                    <path fill="#E8505B" d="M134.92 101.981c-3.807 1.124-7.714.827-11.685-.39V80.859c3.895-.783 7.79-.783 11.685 0v21.122zM153.78 100.746c-.005-.003-.01-.056-.016-.158-.005-.122-.01-.271-.019-.452l-.047-1.731-.128-6.438-.333-22.125.156.188c-3.72-.764-7.905-.794-12.092.01l.165-.203.005.413c.125 12.25.237 23.316.316 31.218l-.113-.137c1.867.39 3.583.596 5.092.62 1.51.03 2.806-.118 3.847-.314 1.042-.197 1.827-.45 2.36-.62l.59-.205c.137-.047.211-.07.217-.066.006.004-.056.035-.186.094l-.595.254c-.525.194-1.308.473-2.356.696-1.045.22-2.353.394-3.88.385-1.525-.003-3.26-.19-5.146-.566l-.112-.022-.002-.115c-.11-7.902-.267-18.967-.44-31.218l-.004-.411-.002-.17.168-.034c4.234-.813 8.479-.777 12.246.01l.155.033.001.156.167 22.228.016 6.406-.008 1.7-.009.434c-.003.096-.008.144-.013.14M171.738 98.306c-3.128 1.692-7.246 1.917-11.685 1.662V65.729c3.978-.845 7.889-1.003 11.685 0v32.577zM116.368 100.284c-.014-.013-.026-.318-.04-.877l-.046-2.394-.091-8.407.114.165c-3.129-1.147-7.045-2.237-11.25-1.867l-.02.001.185-.203-.028 11.679-.108-.162c1.582.67 3.135 1.026 4.51 1.287 1.382.249 2.602.392 3.607.492l2.339.198c.513.041.814.078.828.088.013.011-.263.024-.833.02-.543-.01-1.34-.034-2.352-.101-1.01-.07-2.24-.186-3.638-.413-1.394-.24-2.97-.578-4.597-1.246l-.108-.044v-.12l-.028-11.678v-.188l.185-.014.02-.002c4.306-.377 8.27.755 11.412 1.943l.116.044-.001.12-.091 8.524-.045 2.353c-.015.537-.027.816-.04.802M121.864 69.99c.001.053-.872.118-2.285.14-1.414.023-3.368-.006-5.522-.132-2.154-.127-4.097-.328-5.5-.516-1.4-.188-2.259-.354-2.252-.407.007-.058.878.007 2.284.12 1.405.115 3.346.27 5.493.397 2.145.125 4.09.2 5.5.25 1.409.05 2.282.09 2.282.147M120.123 72.538c-.002.056-.768.048-2.006-.01-1.236-.057-2.944-.166-4.828-.31-1.886-.144-3.59-.298-4.822-.429-1.231-.131-1.99-.24-1.984-.296.007-.056.775-.048 2.012.01 1.237.057 2.942.165 4.824.31 1.882.143 3.583.297 4.815.428 1.231.132 1.992.24 1.99.297" transform="translate(-45 -101) translate(45 101) translate(27 94)"/>
                    <path fill="#E8505B" d="M124.399 75.879c-.01-.011-.007-.262.01-.727l.079-2.018.345-7.311.15.157c-5.624.072-13.279-.192-21.626-1.199l.226-.189V64.61l-.002.021-.002.042-.005.083-.01.165-.019.33-.038.658-.076 1.304-.15 2.558-.291 4.866-.17-.203c6.253.77 11.657 1.096 15.487 1.244l4.482.136 1.18.036c.272.012.422.02.43.029.008.007-.126.016-.396.029-.267.01-.69.028-1.214.034-1.045.016-2.57.017-4.49-.024-3.836-.08-9.255-.355-15.525-1.1l-.18-.021.01-.182.275-4.867.146-2.559.075-1.304.038-.658.02-.33.009-.166.005-.082.002-.041.002-.021V64.569c-.049.04.432-.363.23-.192 8.328 1.004 15.96 1.31 21.575 1.306h.16l-.01.157-.508 7.389-.153 1.981c-.038.45-.061.679-.071.669" transform="translate(-45 -101) translate(45 101) translate(27 94)"/>
                    <path fill="#E8505B" d="M127.064 80.271c-.099.056-.749-.891-1.505-2.088-.761-1.202-1.258-2.25-1.16-2.304.098-.057.747.89 1.506 2.088.759 1.2 1.257 2.25 1.159 2.304M.261 4.425l9.921 59.983s15.14 28.337 55.379 34.725l-6.494-53.546S21.858 34.087.261 4.425" transform="translate(-45 -101) translate(45 101) translate(27 94)"/>
                    <path fill="#FFF" d="M.261 4.425l9.921 59.983s15.14 28.337 55.379 34.725l-6.494-53.546S21.858 34.087.261 4.425" transform="translate(-45 -101) translate(45 101) translate(27 94)"/>
                    <path fill="#E8505B" d="M60.37 94.858c-.001.007-.088-.014-.255-.06l-.74-.215-2.837-.863c-1.225-.394-2.753-.797-4.447-1.488l-2.739-1.043c-.972-.363-2-.749-3.038-1.25-2.094-.958-4.42-1.943-6.785-3.272-2.423-1.218-4.88-2.758-7.45-4.394-5.085-3.352-10.297-7.66-14.95-12.95-2.071-2.4-3.943-4.884-5.394-7.52l-.013-.025-.006-.034-4.543-29.335-1.3-8.653-.33-2.33-.078-.606c-.015-.136-.02-.206-.014-.207.007-.001.023.067.05.201l.113.6.4 2.319 1.418 8.635c1.178 7.371 2.815 17.633 4.68 29.313l-.018-.058c1.42 2.57 3.29 5.056 5.343 7.434 4.622 5.254 9.799 9.55 14.851 12.904 2.552 1.637 4.993 3.182 7.4 4.408 2.348 1.338 4.661 2.334 6.742 3.307 1.032.507 2.052.9 3.018 1.273l2.722 1.069c1.683.71 3.201 1.134 4.418 1.552l2.81.935.728.253c.163.059.246.093.245.1" transform="translate(-45 -101) translate(45 101) translate(27 94)"/>
                    <path fill="#E8505B" d="M56.834 77.447c.003.004-.043.047-.138.125l-.426.342-1.673 1.302-6.32 4.837-.099.077-.074-.103-7.73-10.686.237.04-5.926 4.217-.198.14-.083-.227-7.64-20.709-1.097-2.98.373.02-4.826 9.575-.209.416-.152-.44-10.08-29.046.213-.012-1.482 6.247-.406 1.646-.112.421c-.027.094-.043.141-.047.14-.006-.001 0-.05.017-.147l.083-.427.35-1.66 1.38-6.27.084-.379.13.367 10.242 28.991-.362-.023 4.814-9.581.21-.42.162.44 1.098 2.982 7.605 20.72-.282-.086c2.082-1.47 4.077-2.876 5.944-4.193l.139-.098.098.138 7.652 10.741-.173-.026 6.388-4.747 1.711-1.251.447-.316c.1-.07.155-.102.158-.097M55.446 48.678c-.009.027-.308-.041-.845-.188-.537-.145-1.305-.38-2.248-.693-1.887-.622-4.461-1.585-7.227-2.832-2.766-1.25-5.192-2.544-6.907-3.546-.857-.5-1.542-.921-2.006-1.228-.465-.304-.714-.484-.7-.508.015-.024.292.11.78.372l2.067 1.112c1.746.936 4.181 2.182 6.934 3.426 2.753 1.242 5.298 2.243 7.155 2.933.863.32 1.598.59 2.202.813.52.193.804.313.795.34M57.044 51.167c-.012.051-.758-.063-1.944-.344-1.185-.28-2.807-.74-4.56-1.364-1.75-.627-3.297-1.3-4.391-1.835-1.094-.535-1.744-.919-1.72-.967.026-.053.719.24 1.838.704 1.12.465 2.672 1.092 4.412 1.715 1.739.62 3.336 1.119 4.497 1.47 1.16.35 1.882.563 1.868.62" transform="translate(-45 -101) translate(45 101) translate(27 94)"/>
                    <path fill="#E8505B" d="M41.188 73.355c0 .497-.302.899-.674.899-.373 0-.675-.402-.675-.9 0-.495.302-.897.675-.897.372 0 .674.402.674.898M26.469 54.393c0 .497-.303.899-.674.899-.373 0-.675-.402-.675-.9 0-.495.302-.897.675-.897.371 0 .674.402.674.898M11.604 34.605c0 .497-.302.899-.674.899-.372 0-.674-.402-.674-.9 0-.495.302-.897.674-.897.372 0 .674.402.674.898M262.74 15.112l-4.97 60.94s-14.512 26.06-54.476 27.054l4.939-61.358s34.862-1.413 54.508-26.636" transform="translate(-45 -101) translate(45 101) translate(27 94)"/>
                    <path fill="#E8505B" d="M262.002 11.934c-1.304-4.219-4.46-10.23-11.977-11.481l-8.884 81.97s16.678-3.328 17.126-12.466c.039-.788 3.376-41.529 4.21-51.616.184-2.207.179-4.29-.475-6.407" transform="translate(-45 -101) translate(45 101) translate(27 94)"/>
                    <path fill="#FFF" d="M262.74 15.112l-4.97 60.94s-14.512 26.06-54.476 27.054l4.939-61.358s34.862-1.413 54.508-26.636" transform="translate(-45 -101) translate(45 101) translate(27 94)"/>
                    <path fill="#E8505B" d="M261.55 30.647c-3.985 5.76-6.23 12.707-6.369 19.708-.04 2.021.079 4.116-.69 5.986-.769 1.87-2.779 3.431-4.73 2.897-2.038-.559-2.95-2.967-4.736-4.096-1.59-1.003-3.739-.833-5.362.114-1.624.946-2.772 2.558-3.522 4.28-1.452 3.342-1.547 7.11-2.618 10.593-1.07 3.483-3.694 6.993-7.337 7.152-1.33.058-2.646-.345-3.976-.305-2.813.084-5.254 2.172-6.565 4.662-1.312 2.488-1.705 5.343-2.079 8.131 0 0 21.304 2.029 45.222-26.196l2.763-32.926z" transform="translate(-45 -101) translate(45 101) translate(27 94)"/>
                    <path fill="#E8505B" d="M227.68 67.614c0 .755-.375 1.369-.836 1.369-.461 0-.836-.614-.836-1.37 0-.755.375-1.369.836-1.369.461 0 .836.614.836 1.37M237.715 42.277c0 .755-.375 1.369-.836 1.369-.461 0-.836-.614-.836-1.37 0-.755.375-1.368.836-1.368.461 0 .836.613.836 1.369" transform="translate(-45 -101) translate(45 101) translate(27 94)"/>
                    <path fill="#E8505B" d="M261.071 33.588c.009.004-.038.122-.137.347l-.45.988-1.757 3.721-6.353 13.226-.087.18-.169-.108-15.07-9.53.298-.095-.626 1.54-9.733 23.814-.067.163-.151-.085c-3.758-2.113-6.824-3.81-8.956-4.967-1.066-.577-1.897-1.021-2.468-1.31l-.652-.319c-.15-.058-.228-.093-.227-.1.026-.078 1.277.457 3.429 1.575 2.158 1.112 5.246 2.77 9.024 4.85l-.218.077 9.641-23.85.626-1.541.092-.226.207.13 15.042 9.575-.255.072 6.486-13.161 1.844-3.68.5-.963c.115-.217.179-.327.187-.323" transform="translate(-45 -101) translate(45 101) translate(27 94)"/>
                </g>
            </g>
        </g>
    </g>
</svg>
