<svg xmlns="http://www.w3.org/2000/svg" width="227" height="19" viewBox="0 0 227 19">
    <g fill="none" fill-rule="evenodd">
        <g>
            <g>
                <g transform="translate(-169 -133) translate(169 133) translate(25 2)">
                    <g transform="translate(138)">
                        <circle cx="7.5" cy="7.5" r="5.25" fill="#4DAA5C"/>
                        <circle cx="7.5" cy="7.5" r="7.5" stroke="#4DAA5C"/>
                    </g>
                    <rect width="30" height="1" y="8" fill="#DFE6E8" rx=".5"/>
                    <rect width="30" height="1" x="52" y="8" fill="#DFE6E8" rx=".5"/>
                    <rect width="30" height="1" x="104" y="8" fill="#DFE6E8" rx=".5"/>
                    <circle cx="197" cy="8" r="5" fill="#E6ECEE"/>
                    <rect width="30" height="1" x="156" y="8" fill="#DFE6E8" rx=".5"/>
                </g>
                <g>
                    <path d="M0 0L19 0 19 19 0 19z" transform="translate(-169 -133) translate(169 133)"/>
                    <path fill="#46B34B" d="M9.5 1.583c-4.37 0-7.917 3.547-7.917 7.917 0 4.37 3.547 7.917 7.917 7.917 4.37 0 7.917-3.547 7.917-7.917 0-4.37-3.547-7.917-7.917-7.917zM7.355 12.896l-2.843-2.842c-.308-.309-.308-.807 0-1.116.31-.309.808-.309 1.117 0l2.288 2.28 5.446-5.447c.31-.308.808-.308 1.117 0 .308.309.308.808 0 1.117l-6.01 6.008c-.3.309-.807.309-1.115 0z" transform="translate(-169 -133) translate(169 133)"/>
                </g>
                <g>
                    <path d="M0 0L19 0 19 19 0 19z" transform="translate(-169 -133) translate(169 133) translate(57)"/>
                    <path fill="#46B34B" d="M9.5 1.583c-4.37 0-7.917 3.547-7.917 7.917 0 4.37 3.547 7.917 7.917 7.917 4.37 0 7.917-3.547 7.917-7.917 0-4.37-3.547-7.917-7.917-7.917zM7.355 12.896l-2.843-2.842c-.308-.309-.308-.807 0-1.116.31-.309.808-.309 1.117 0l2.288 2.28 5.446-5.447c.31-.308.808-.308 1.117 0 .308.309.308.808 0 1.117l-6.01 6.008c-.3.309-.807.309-1.115 0z" transform="translate(-169 -133) translate(169 133) translate(57)"/>
                </g>
                <g>
                    <path d="M0 0L19 0 19 19 0 19z" transform="translate(-169 -133) translate(169 133) translate(109)"/>
                    <path fill="#46B34B" d="M9.5 1.583c-4.37 0-7.917 3.547-7.917 7.917 0 4.37 3.547 7.917 7.917 7.917 4.37 0 7.917-3.547 7.917-7.917 0-4.37-3.547-7.917-7.917-7.917zM7.355 12.896l-2.843-2.842c-.308-.309-.308-.807 0-1.116.31-.309.808-.309 1.117 0l2.288 2.28 5.446-5.447c.31-.308.808-.308 1.117 0 .308.309.308.808 0 1.117l-6.01 6.008c-.3.309-.807.309-1.115 0z" transform="translate(-169 -133) translate(169 133) translate(109)"/>
                </g>
            </g>
        </g>
    </g>
</svg>
