<svg xmlns="http://www.w3.org/2000/svg" width="19" height="19" viewBox="0 0 19 19">
    <g fill="none" fill-rule="evenodd">
        <g>
            <g>
                <g>
                    <path d="M0 0L19 0 19 19 0 19z" transform="translate(-228 -16) translate(171 16) translate(57)"/>
                    <path fill="#FFF" d="M9.5 1.583c-4.37 0-7.917 3.547-7.917 7.917 0 4.37 3.547 7.917 7.917 7.917 4.37 0 7.917-3.547 7.917-7.917 0-4.37-3.547-7.917-7.917-7.917zM7.355 12.896l-2.843-2.842c-.308-.309-.308-.807 0-1.116.31-.309.808-.309 1.117 0l2.288 2.28 5.446-5.447c.31-.308.808-.308 1.117 0 .308.309.308.808 0 1.117l-6.01 6.008c-.3.309-.807.309-1.115 0z" transform="translate(-228 -16) translate(171 16) translate(57)"/>
                </g>
            </g>
        </g>
    </g>
</svg>
