<svg xmlns="http://www.w3.org/2000/svg" xmlns:xlink="http://www.w3.org/1999/xlink" width="80" height="80" viewBox="0 0 80 80">
    <defs>
        <path id="dtodqaopya" d="M60 6.667c3.682 0 6.667 2.984 6.667 6.666v53.334c0 3.682-2.985 6.666-6.667 6.666H20c-3.682 0-6.667-2.984-6.667-6.666V26.345c0-.22.088-.433.244-.59L32.423 6.912c.156-.157.368-.244.589-.244H60z"/>
    </defs>
    <g fill="none" fill-rule="evenodd">
        <g>
            <g>
                <g>
                    <g transform="translate(-8 -262) translate(8 262)">
                        <path d="M0 0H80V80H0z"/>
                        <mask id="2t1lq0svtb" fill="#fff">
                            <use xlink:href="#dtodqaopya"/>
                        </mask>
                        <use fill="#5EC9EA" xlink:href="#dtodqaopya"/>
                        <path fill="#1BA0CD" d="M30 5c1.84 0 3.333 1.492 3.333 3.333V25c0 1.84-1.492 3.333-3.333 3.333H13.333C11.493 28.333 10 26.841 10 25V8.333C10 6.493 11.492 5 13.333 5H30z" mask="url(#2t1lq0svtb)"/>
                        <path fill="#A6DCF4" d="M30 3.333c1.84 0 3.333 1.493 3.333 3.334v16.666c0 1.841-1.492 3.334-3.333 3.334H13.333c-1.84 0-3.333-1.493-3.333-3.334V6.667c0-1.841 1.492-3.334 3.333-3.334H30z" mask="url(#2t1lq0svtb)"/>
                        <path fill="#FFF" d="M40.43 62.6c0 .544-.093 1.062-.28 1.552-.187.49-.455.921-.805 1.295-.35.373-.774.669-1.272.886-.497.218-1.065.327-1.703.327-.762 0-1.396-.167-1.902-.502-.505-.334-.906-.665-1.201-.991l1.866-1.494c.171.171.37.315.595.432.226.117.463.175.712.175.14 0 .303-.027.49-.082.187-.054.362-.155.525-.303.163-.148.303-.35.42-.607.117-.256.175-.595.175-1.015V49.907h2.38V62.6zm2.24-12.693h3.57c.653 0 1.229.085 1.727.256.497.171.949.475 1.353.91.404.436.684.945.84 1.529.156.583.233 1.372.233 2.368 0 .731-.042 1.357-.128 1.878-.086.521-.268 1.008-.548 1.459-.327.544-.763.968-1.307 1.271-.544.304-1.26.455-2.147.455H45.05v6.487h-2.38V49.907zm2.38 7.886h1.143c.483 0 .856-.07 1.12-.21.265-.14.46-.33.584-.571.124-.241.198-.533.221-.875.024-.343.035-.724.035-1.144 0-.389-.011-.758-.035-1.108-.023-.35-.093-.653-.21-.91-.116-.257-.3-.459-.548-.607-.249-.147-.607-.221-1.073-.221H45.05v5.646zm6.977-3.966c0-.67.116-1.26.35-1.774.233-.513.54-.937.921-1.271.381-.335.81-.588 1.284-.759.474-.17.952-.256 1.435-.256.482 0 .96.085 1.435.256.474.171.902.424 1.283.759.381.334.688.758.922 1.271.233.514.35 1.105.35 1.774v.84h-2.38v-.84c0-.576-.16-1-.479-1.272-.319-.272-.696-.408-1.131-.408-.436 0-.813.136-1.132.408-.319.272-.478.696-.478 1.272V62.6c0 .576.16 1 .478 1.272.319.272.696.408 1.132.408.435 0 .812-.136 1.131-.408.32-.273.479-.696.479-1.272v-3.127h-1.89v-2.1h4.27V62.6c0 .684-.117 1.28-.35 1.785-.234.506-.54.926-.922 1.26-.381.334-.809.587-1.283.758-.475.171-.953.257-1.435.257-.483 0-.96-.086-1.435-.257-.475-.17-.903-.424-1.284-.758-.38-.334-.688-.754-.921-1.26-.234-.506-.35-1.1-.35-1.785v-8.773z" mask="url(#2t1lq0svtb)"/>
                    </g>
                </g>
            </g>
        </g>
    </g>
</svg>
