<svg xmlns="http://www.w3.org/2000/svg" width="186" height="186" viewBox="0 0 186 186">
    <g fill="none" fill-rule="evenodd">
        <g>
            <g>
                <path d="M0 0L186 0 186 186 0 186z" transform="translate(-114 -182) translate(114 182)"/>
                <path fill="#FFF" d="M93 15.5c-42.78 0-77.5 34.72-77.5 77.5s34.72 77.5 77.5 77.5 77.5-34.72 77.5-77.5S135.78 15.5 93 15.5zM93 155c-34.178 0-62-27.823-62-62 0-34.178 27.822-62 62-62 34.177 0 62 27.822 62 62 0 34.177-27.823 62-62 62zm30.07-90.752l-45.57 45.57-14.57-14.57c-3.023-3.023-7.905-3.023-10.928 0-3.022 3.022-3.022 7.904 0 10.927l20.073 20.073c3.022 3.022 7.905 3.022 10.927 0l51.073-51.073c3.023-3.022 3.023-7.905 0-10.927-3.022-3.023-7.982-3.023-11.005 0z" transform="translate(-114 -182) translate(114 182)"/>
            </g>
        </g>
    </g>
</svg>
